<?xml version="1.0" encoding="utf-8" ?><svg xmlns="http://www.w3.org/2000/svg" xmlns:xlink="http://www.w3.org/1999/xlink" width="334" height="324" viewBox="0 0 334 324"><path fill="#34140B" d="M149.541 0L181.483 0C182.374 1.06136 183.466 1.01192 184.779 1.22567C189.786 2.04024 195.033 3.26933 199.824 4.94205C216.24 10.6731 232.61 20.6249 240.719 36.5848C241.102 37.3313 243.283 42.0038 243.493 42.121L244.206 41.698C245.453 42.116 252.8 42.3925 254.766 42.5717C260.098 42.9796 267.177 45.5772 272.084 47.7827C291.039 56.3008 301.138 79.068 293.548 98.8389C297.844 99.9978 302.245 102.416 306.007 104.758C315.061 110.392 320.595 116.355 325.95 125.632C327.856 128.923 329.454 132.383 330.723 135.969C331.62 138.47 332.597 144.539 334 145.747L334 167.416C332.745 168.529 331.981 172.891 331.332 174.724C328.306 183.268 323.272 191.404 316.739 197.719C313.625 200.729 308.932 203.603 305.109 205.648C303.326 206.561 300.238 207.901 298.683 208.915C297.547 210.957 296.83 215.256 296.08 217.726C290.006 237.739 266.036 244.012 248.627 234.898C246.562 233.817 244.709 232.614 242.757 231.332C235.82 239.902 228.467 250.186 224.827 260.586C222.54 267.285 221.02 274.221 220.297 281.262C219.128 292.693 222.044 303.576 215.117 314.118C210.343 321.382 189.158 322.195 187.44 324L149.58 324C149.105 323.518 148.948 323.268 148.23 323.154C136.023 321.203 120.366 319.917 117.808 304.641C116.924 301.952 117.231 288.709 117.175 285.052C116.892 282.592 116.889 279.61 116.514 277.263C114.57 265.124 111.546 253.985 104.935 243.444C102.743 239.95 101.76 238.083 98.8341 235.106C97.8901 235.179 93.6215 237.107 92.4885 237.519C89.1699 238.729 87.0076 239.334 83.5009 239.713C72.9922 240.848 62.5622 238.903 54.168 232.165C49.8875 228.73 46.3998 223.055 44.9329 217.761C44.4189 215.906 44.0759 212.362 43.8575 210.384C20.9836 204.423 4.58592 185.483 0.781293 162.131C0.781292 162.131 0.0690723 161.488 0 161.426L0 141.641C1.42562 140.406 2.2194 134.018 3.13915 131.508C5.98055 123.921 10.1054 116.88 15.3334 110.691C16.8616 108.413 19.5331 105.989 21.6914 104.312C22.2243 103.947 22.9679 103.351 23.4706 102.925C28.5479 98.6205 34.0759 95.8318 40.2185 93.2293C40.0844 79.98 42.608 70.3434 51.3064 59.9251C57.4924 52.516 67.4958 46.662 76.9198 44.7479C79.7851 44.1659 84.6843 43.7219 87.6914 43.4485C88.4995 41.0228 89.9941 38.0125 91.2464 35.7745C100.453 19.3227 117.207 8.93008 134.882 3.7503C137.299 3.03927 139.744 2.42561 142.211 1.91083C144.02 1.543 147.129 1.17932 148.945 0.682063C149.179 0.414708 149.377 0.187354 149.541 0Z"/><path fill="#8D6D4F" d="M117.175 285.052C117.948 286.188 118.306 302.167 117.962 304.003C117.922 304.219 117.871 304.431 117.808 304.641C116.924 301.952 117.231 288.709 117.175 285.052Z"/><path fill="#633D2F" d="M243.493 42.121L244.206 41.698C245.453 42.116 252.8 42.3925 254.766 42.5717C252.687 42.9318 245.893 42.7622 243.684 42.5353L243.493 42.121Z"/><path fill="#8D6D4F" d="M21.6914 104.312C21.5075 105.538 16.9104 109.776 15.7847 110.611L15.3334 110.691C16.8616 108.413 19.5331 105.989 21.6914 104.312Z"/><path fill="#74BD46" d="M8.58473 166.578C1.86423 142.864 12.341 116.62 33.4815 103.973C35.6435 102.706 37.8712 101.555 40.1554 100.524C47.8733 97.0448 46.8727 98.3724 46.7973 89.745C46.6258 70.0982 62.2365 53.123 81.5655 50.603C83.5346 50.3463 90.322 50.5821 91.6129 49.6329C92.771 48.7813 94.8853 42.939 95.7097 41.547C111.573 9.98368 154.436 1.80798 185.571 8.00299C188.046 8.23782 191.588 9.32753 193.971 10.052C206.031 13.7193 220.919 20.9278 228.808 31.1605C231.709 34.0419 233.869 37.6576 235.783 41.244C236.995 43.5165 238.4 47.8124 240.126 49.4393C243.201 49.219 246.085 48.9361 249.227 48.9215C271.961 48.816 294.108 67.3462 288.671 91.4988C288.064 94.1953 285.325 100.16 285.491 102.321C287.288 103.823 291.27 104.775 293.584 105.725C295.523 106.521 297.068 107.293 298.947 108.234C314.809 116.172 326.053 134.255 327.606 151.845C328.84 164.844 324.847 177.798 316.512 187.847C311.571 193.728 306.205 197.82 299.272 201.279C294.743 203.539 291.637 203.015 291.14 208.802C289.041 233.21 263.17 238.733 246.329 225.476C248.858 223.337 250.404 222.032 251.937 218.979C247.953 219.508 245.627 220.978 241.985 221.746C231.352 223.99 221.524 221.462 212.984 214.895C211.394 213.68 209.912 212.331 208.554 210.861C211.309 207.678 212.523 205.622 213.767 201.588C208.525 204.054 203.652 208.241 198.538 210.93C177.096 222.202 150.261 219.759 131.264 204.678C130.266 203.886 127.99 202.259 126.749 202.296C125.903 203.457 129.893 209.553 130.79 210.753C124.744 217.858 117.287 222.816 107.754 223.71C101.417 224.304 95.6942 222.148 89.712 220.354C91.2497 224.168 92.9309 225.726 96.6124 227.612C92.3479 230.45 89.291 232.121 84.2533 233.054C68.6714 235.937 51.4793 227.863 50.357 210.464C50.2879 209.393 50.2561 208.327 50.2346 207.25C48.1825 204.317 44.0745 203.843 40.7223 202.724C38.9194 202.127 37.1731 201.37 35.5039 200.464C28.537 196.748 23.0589 192.269 18.1888 186.009C16.5038 183.843 13.8132 180.05 13.0653 177.412C11.1728 174.54 9.314 169.912 8.58473 166.578Z"/><path fill="#4D8F30" d="M228.808 31.1605C231.709 34.0419 233.869 37.6576 235.783 41.244C236.995 43.5165 238.4 47.8124 240.126 49.4393C243.201 49.219 246.085 48.9361 249.227 48.9215C271.961 48.816 294.108 67.3462 288.671 91.4988C288.064 94.1953 285.325 100.16 285.491 102.321C287.288 103.823 291.27 104.775 293.584 105.725C295.523 106.521 297.068 107.293 298.947 108.234C314.809 116.172 326.053 134.255 327.606 151.845C328.84 164.844 324.847 177.798 316.512 187.847C311.571 193.728 306.205 197.82 299.272 201.279C294.743 203.539 291.637 203.015 291.14 208.802C289.041 233.21 263.17 238.733 246.329 225.476C248.858 223.337 250.404 222.032 251.937 218.979C247.953 219.508 245.627 220.978 241.985 221.746C231.352 223.99 221.524 221.462 212.984 214.895C211.394 213.68 209.912 212.331 208.554 210.861C211.309 207.678 212.523 205.622 213.767 201.588C208.525 204.054 203.652 208.241 198.538 210.93C177.096 222.202 150.261 219.759 131.264 204.678C130.266 203.886 127.99 202.259 126.749 202.296C125.903 203.457 129.893 209.553 130.79 210.753C124.744 217.858 117.287 222.816 107.754 223.71C101.417 224.304 95.6942 222.148 89.712 220.354C91.2497 224.168 92.9309 225.726 96.6124 227.612C92.3479 230.45 89.291 232.121 84.2533 233.054C68.6714 235.937 51.4793 227.863 50.357 210.464C50.2879 209.393 50.2561 208.327 50.2346 207.25C48.1825 204.317 44.0745 203.843 40.7223 202.724C38.9194 202.127 37.1731 201.37 35.5039 200.464C28.537 196.748 23.0589 192.269 18.1888 186.009C16.5038 183.843 13.8132 180.05 13.0653 177.412C15.5978 178.411 18.0619 181.574 20.1849 183.488C29.3587 191.756 44.228 197.093 56.4385 196.745C58.1464 199.904 59.937 203.269 62.5067 205.781C70.0894 213.194 82.5129 213.206 90.9087 207.172C93.1997 205.525 94.7666 203.884 96.7509 201.848C100.212 203.569 104.019 204.48 107.884 204.515C117.328 204.594 122.994 200.33 129.254 194.125C135.48 197.903 142.866 200.16 149.978 201.585C166.216 204.84 184.331 202.225 199.01 194.548C201.283 193.359 204.112 191.405 206.294 189.958C218.37 205.807 233.212 207.879 251.445 202.201C254.359 203.185 257.412 203.701 260.489 203.727C266.773 203.77 272.801 201.239 277.171 196.724C282.712 191.101 284.069 185.344 283.991 177.758C288.714 176.053 292.924 173.172 296.222 169.386C301.375 163.416 301.462 157.786 300.976 150.565C299.918 149.187 299.646 148.892 299.737 147.171C299.678 146.891 299.569 146.422 299.463 146.154C294.89 134.607 284.329 127.008 273.712 121.83C272.497 122.243 271.318 122.319 270.047 122.457C268.712 121.689 268.215 121.334 267.028 120.349C264.621 120.112 262.374 119.355 259.413 119.112C261.526 113.473 262.813 109.678 263.665 103.815C265.806 89.0844 261.223 74.471 248.394 66.0701C243.189 62.6616 238.702 61.9606 232.739 60.6705C232.683 54.5353 233.649 52.7512 232.33 45.7568C231.695 42.3899 228.532 32.9593 228.808 31.1605Z"/><path fill="#467C2B" d="M267.028 120.349C266.473 118.024 266.219 116.164 267.549 113.962C268.532 112.368 270.113 111.235 271.938 110.814C277.131 109.572 280.697 114.813 277.27 118.985C276.39 120.055 275.254 121.75 273.712 121.83C272.497 122.243 271.318 122.319 270.047 122.457C268.712 121.689 268.215 121.334 267.028 120.349Z"/><path fill="#D92F48" d="M299.737 147.171C301.568 145.568 304.636 142.088 307.133 143.848C308.96 147.184 304.092 150.577 300.976 150.565C299.918 149.187 299.646 148.892 299.737 147.171Z"/><path fill="#467C2B" d="M307.527 161.245C310.808 160.938 311.346 162.035 312.953 164.546C312.327 166.995 312.231 167.541 310.384 169.186C304.427 169.518 303.029 164.549 307.527 161.245Z"/><path fill="#C7F48E" d="M8.58473 166.578C1.86423 142.864 12.341 116.62 33.4815 103.973C35.6435 102.706 37.8712 101.555 40.1554 100.524C47.8733 97.0448 46.8727 98.3724 46.7973 89.745C46.6258 70.0982 62.2365 53.123 81.5655 50.603C83.5346 50.3463 90.322 50.5821 91.6129 49.6329C92.771 48.7813 94.8853 42.939 95.7097 41.547C111.573 9.98368 154.436 1.80798 185.571 8.00299C184.139 9.12938 180.146 8.73674 178.279 8.80978C149.601 9.93165 117.861 20.4578 101.881 45.9232C100.119 48.7299 98.7789 51.8473 97.0878 54.6391C93.5848 55.1572 90.011 55.5994 86.5485 56.2874C76.6311 58.2582 67.3344 63.7033 61.2412 71.8679C54.7413 80.5775 51.7522 93.2162 51.7604 104.016C43.7166 107.693 37.7582 110.414 30.9191 116.291C22.2169 123.77 17.5796 131.225 13.6464 141.82C12.1775 145.687 11.0725 149.683 10.3457 153.755C9.636 157.807 9.36578 161.574 9.19367 165.654C9.17685 166.053 8.84516 166.31 8.58473 166.578Z"/><path fill="#34140B" d="M154.849 154.833C158.599 154.865 162.772 156.743 167.662 156.685C172.307 156.981 177.214 154.658 181.681 154.855C188.042 155.137 189.437 161.3 188.769 166.468C187.867 173.447 184.996 177.952 179.771 182.236C176.997 184.079 173.846 185.277 170.548 185.743C164.994 186.504 159.367 184.992 154.942 181.549C147.173 175.543 141.136 156.472 154.849 154.833Z"/><path fill="#932A27" d="M154.512 159.756C160.625 161.526 166.677 162.42 173.063 161.672C175.408 161.397 179.748 159.268 181.886 160.248C185.445 161.88 183.192 168.862 181.908 171.334C177.95 179.521 169.11 183.212 160.789 179.054C158.877 178.118 157.219 176.735 155.955 175.022C152.233 170.324 150.053 164.665 154.512 159.756Z"/><path fill="#F67A83" d="M155.955 175.022C158.472 172.664 161.034 170.856 164.411 169.927C170.067 168.371 176.726 168.364 181.908 171.334C177.95 179.521 169.11 183.212 160.789 179.054C158.877 178.118 157.219 176.735 155.955 175.022Z"/><path fill="#34140B" d="M209.047 124.576C218.403 123.183 227.118 129.633 228.521 138.988C229.923 148.343 223.481 157.065 214.128 158.476C204.761 159.89 196.024 153.438 194.62 144.069C193.216 134.701 199.677 125.97 209.047 124.576Z"/><path fill="#FEFEFE" d="M204.124 130.13C207.099 129.123 210.328 130.712 211.345 133.684C212.362 136.655 210.783 139.889 207.815 140.916C204.833 141.947 201.581 140.36 200.559 137.375C199.538 134.389 201.136 131.142 204.124 130.13Z"/><path fill="#FEFEFE" d="M219.993 146.936C221.484 146.787 222.82 147.863 222.991 149.352C223.162 150.842 222.105 152.192 220.619 152.385C219.638 152.512 218.664 152.101 218.071 151.309C217.478 150.518 217.357 149.468 217.755 148.562C218.153 147.656 219.008 147.035 219.993 146.936Z"/><path fill="#34140B" d="M120.219 124.598C129.549 123.015 138.393 129.303 139.96 138.636C141.527 147.968 135.223 156.801 125.888 158.352C116.576 159.9 107.769 153.614 106.205 144.305C104.642 134.995 110.912 126.177 120.219 124.598Z"/><path fill="#FEFEFE" d="M116.253 129.875C119.337 129.127 122.44 131.033 123.169 134.121C123.898 137.209 121.975 140.301 118.882 141.012C115.815 141.717 112.754 139.813 112.031 136.751C111.308 133.688 113.194 130.616 116.253 129.875Z"/><path fill="#FEFEFE" d="M131.28 146.912C132.261 146.773 133.24 147.18 133.835 147.973C134.43 148.766 134.545 149.82 134.137 150.724C133.729 151.627 132.862 152.237 131.873 152.315C130.408 152.431 129.117 151.362 128.956 149.901C128.796 148.441 129.825 147.117 131.28 146.912Z"/><path fill="#34140B" d="M209.807 53.832C218.931 52.9271 226.846 58.7465 229.176 67.5322C236.22 67.5028 243.169 70.6531 246.642 77.0396C248.055 79.6375 248.89 83.2088 248.068 86.1153C247.67 87.5242 246.262 89.5549 244.548 88.7869C242.977 88.0549 242.469 86.6132 242.27 84.9918C242.065 83.3167 241.73 81.8634 241.134 80.2716C236.07 70.6876 227.896 75.6276 225.148 73.0319C222.186 70.2341 223.625 64.4283 217.318 61.4277C212.802 59.2789 208.681 59.8698 204.621 62.5276C203.479 63.2753 202.202 64.3157 200.881 64.7046C200.219 64.8996 199.753 64.9008 199.17 64.5081C198.533 64.0788 197.914 63.2627 197.784 62.4952C197.607 61.4523 198.114 60.2289 198.718 59.397C201.111 56.0991 205.944 54.4027 209.807 53.832Z"/><path fill="#F67A83" d="M225.632 159.571C230.131 159.322 233.146 159.327 237.226 161.661C242.798 164.848 241.379 170.158 236.17 172.719C234.183 173.696 232.783 173.967 230.633 174.472C214.838 176.438 208.382 162.587 225.632 159.571Z"/><path fill="#F67A83" d="M105.432 159.598C109.677 158.815 118.575 161.413 119.48 166.422C120.472 171.915 113.014 174.104 108.95 174.73C92.5043 175.331 87.6248 161.655 105.432 159.598Z"/><path fill="#C7F48E" d="M121.155 36.6178C122.426 29.0651 132.656 21.6914 139.989 25.0696C142.744 23.716 145.095 23.9949 146.571 26.9898C146.723 27.2951 146.86 27.6076 146.982 27.9263C146.417 32.3377 143.737 35.1106 139.216 32.9883C136.761 36.8495 128.994 42.904 123.941 40.544C122.226 39.7429 121.737 38.2846 121.155 36.6178Z"/><path fill="#467C2B" d="M139.989 25.0696C142.744 23.716 145.095 23.9949 146.571 26.9898C146.723 27.2951 146.86 27.6076 146.982 27.9263C146.417 32.3377 143.737 35.1106 139.216 32.9883C136.898 29.9198 137.814 27.8136 139.989 25.0696Z"/><path fill="#C7F48E" d="M41.7243 119.069C43.4524 118.927 44.3689 119.217 46.0065 119.712C52.3881 125.746 42.5429 135.97 36.1956 137.902C24.5895 139.47 30.3956 121.066 41.7243 119.069Z"/><path fill="#34140B" d="M103.624 57.5847C109.748 57.3598 114.685 58.7409 118.958 63.4954C119.772 64.4006 121.238 66.4946 120.287 67.7145C117.141 71.7514 114.47 67.0284 111.606 65.4929C108.454 63.7015 106.234 63.3834 102.686 64.1461C97.8148 65.8065 96.8221 68.412 94.1452 72.4089C92.2167 75.2884 88.9829 74.0668 89.0362 71.3393C89.1828 63.84 97.3688 58.214 103.624 57.5847Z"/><path fill="#467C2B" d="M57.1951 164.852C64.9352 164.259 65.9299 177.878 55.3159 179.375C46.5304 179.053 47.6207 168.198 54.2205 165.399C55.0813 165.034 56.2609 164.952 57.1951 164.852Z"/><path fill="#C7F48E" d="M80.568 62.5641C81.0494 62.6451 81.5293 62.7351 82.0074 62.8342C84.098 63.2762 84.6546 63.9437 85.7526 65.6221C84.3496 71.173 81.2967 74.4624 75.6851 76.0234C64.3478 76.4704 71.6832 65.3565 77.4468 63.4103C78.5486 63.0383 79.421 62.8146 80.568 62.5641Z"/><path fill="#467C2B" d="M181.071 37.7725C185.206 37.6464 186.437 39.1777 187.355 43.03C186.658 45.9091 186.578 46.6965 183.729 47.982C181.211 48.2636 178.994 47.5174 177.862 45.1071C177.278 43.8447 177.219 42.4022 177.698 41.0964C178.348 39.3506 179.46 38.5189 181.071 37.7725Z"/><path fill="#467C2B" d="M244.546 186.439C246.132 186.226 247.711 186.882 248.677 188.158C249.644 189.433 249.85 191.13 249.217 192.6C248.583 194.07 247.208 195.085 245.617 195.258C243.2 195.52 241.021 193.79 240.728 191.377C240.435 188.963 242.136 186.763 244.546 186.439Z"/><path fill="#467C2B" d="M72.2014 88.1171C73.6798 87.7446 75.2443 88.1974 76.2952 89.3021C77.3461 90.4067 77.7204 91.9918 77.2746 93.4498C76.8289 94.9078 75.6322 96.0126 74.1433 96.3408C71.8884 96.8377 69.6522 95.4327 69.1216 93.1855C68.5909 90.9383 69.9624 88.6813 72.2014 88.1171Z"/><path fill="#467C2B" d="M282.003 131.901C283.437 131.57 284.938 132.037 285.931 133.122C286.924 134.208 287.256 135.745 286.799 137.143C286.342 138.542 285.167 139.586 283.724 139.876C281.538 140.315 279.404 138.917 278.933 136.737C278.463 134.557 279.83 132.403 282.003 131.901Z"/><path fill="#467C2B" d="M136.359 41.656C138.526 41.3026 140.581 42.7362 140.997 44.8916C141.413 47.047 140.04 49.1427 137.898 49.6216C136.455 49.944 134.952 49.4568 133.973 48.3496C132.993 47.2424 132.694 45.6904 133.19 44.2983C133.686 42.9061 134.901 41.8939 136.359 41.656Z"/><path fill="#467C2B" d="M31.4552 151.758C37.3352 151.52 38.3903 156.943 33.3917 159.543C28.4645 160.324 26.1259 154.918 31.4552 151.758Z"/><path fill="#D92F48" d="M110.363 86.2811C111.659 86.1679 113.223 86.2119 114.059 87.3512C114.67 90.4573 109.304 91.6345 107.243 92.1134C103.488 92.4257 101.948 89.6275 105.305 87.7481C106.448 87.1085 109.006 86.6065 110.363 86.2811Z"/><path fill="#D92F48" d="M254.98 92.2014C255.901 92.2036 256.637 92.6712 257.312 93.2484C258.763 95.8395 254.398 99.6882 252.591 101.186C252.439 101.189 252.129 101.191 251.995 101.16C246.37 99.8662 252.741 93.6155 254.98 92.2014Z"/><path fill="#D92F48" d="M275.551 169.706C276.707 169.739 277.385 169.986 278.185 170.834C279.341 173.305 274.997 176.849 273.181 177.909C271.991 177.929 271.148 177.845 270.357 176.886C269.432 174.441 273.633 170.762 275.551 169.706Z"/><path fill="#D92F48" d="M189.063 72.4387C195.135 72.8637 190.03 79.4176 187.028 80.9912C180.872 80.669 186.687 74.0033 189.063 72.4387Z"/><path fill="#D92F48" d="M26.1296 136.704C28.2647 137.08 32.0976 140.472 31.7848 143.006C31.651 144.09 30.7431 144.632 29.9265 145.208C27.7526 144.932 23.8996 141.096 24.3273 138.657C24.4849 137.758 25.4398 137.199 26.1296 136.704Z"/><path fill="#D92F48" d="M71.3554 189.442C73.1235 189.498 76.0602 190.656 77.4336 191.839C79.2896 193.436 78.717 194.562 77.2891 196.064C74.1648 196.621 67.277 192.92 71.3554 189.442Z"/><path fill="#D92F48" d="M161.472 27.6795C164.345 28.0533 166.41 31.7978 166.073 34.4994C165.94 35.5661 165.306 35.9847 164.54 36.6038C161.4 37.426 160.325 32.8745 160.155 30.5976C160.051 29.202 160.611 28.6264 161.472 27.6795Z"/><path fill="#A1D15E" d="M152.711 221.958C161.027 224.844 175.35 224.6 183.967 222.867C183.608 225.538 183.823 228.734 183.961 231.425C184.058 233.02 184.174 234.613 184.31 236.204C185.383 241.649 186.793 245.317 192.815 245.802C199.539 244.257 204.875 234.666 208.824 228.935L212.784 222.463C220.448 227.298 227.494 229.012 236.558 228.997C228.551 238.7 221.886 248.842 218.074 260.952C214.666 271.777 213.601 282.957 212.93 294.221C212.772 296.856 212.836 303.202 212.502 305.275C212.267 306.789 211.644 308.216 210.694 309.418C206.449 314.882 192.782 316.435 186.264 317.046C172.59 318.326 137.911 319.048 127.417 310.381C127.097 310.115 126.791 309.832 126.5 309.533C125.469 308.16 124.216 305.728 124.176 304.008C123.837 289.424 123.789 275.696 119.771 261.413C117.201 252.404 113.186 243.872 107.883 236.149C107.102 235.001 103.716 231.04 103.855 230.086L104.73 230.027C112.148 229.826 118.641 228.273 124.875 224.036C126.204 226.62 127.797 228.531 128.976 230.712C132.503 235.791 137.407 244.308 143.647 245.794C147.845 245.69 148.568 245.075 150.942 241.555C151.596 239.562 152.353 235.141 152.525 233.08C152.421 230.125 152.704 225.2 152.711 221.958Z"/><path fill="#74BD46" d="M212.784 222.463C220.448 227.298 227.494 229.012 236.558 228.997C228.551 238.7 221.886 248.842 218.074 260.952C214.666 271.777 213.601 282.957 212.93 294.221C212.772 296.856 212.836 303.202 212.502 305.275C212.267 306.789 211.644 308.216 210.694 309.418C206.449 314.882 192.782 316.435 186.264 317.046C172.59 318.326 137.911 319.048 127.417 310.381C127.097 310.115 126.791 309.832 126.5 309.533C127.846 308.226 129.478 307.493 131.147 306.7C136.189 304.797 142.181 303.884 147.499 303.215C165.816 300.933 184.368 301.327 202.572 304.387C204.037 299.022 204.343 291.272 205.21 285.449C207.346 271.1 210.751 260.25 218.543 248.041C221.324 243.682 223.052 240.649 226.494 236.435C221.291 236.007 212.824 232.235 208.824 228.935L212.784 222.463Z"/><path fill="#C7F48E" d="M126.5 309.533C125.469 308.16 124.216 305.728 124.176 304.008C123.837 289.424 123.789 275.696 119.771 261.413C117.201 252.404 113.186 243.872 107.883 236.149C107.102 235.001 103.716 231.04 103.855 230.086L104.73 230.027C105.949 230.124 106.571 230.081 107.452 230.907C109.462 232.795 111.191 235.263 112.913 237.464L113.023 237.682C114.424 240.42 117.166 243.44 118.723 246.441C125.957 260.383 128.432 273.663 129.77 289.123C129.996 291.739 130.702 305.497 131.147 306.7C129.478 307.493 127.846 308.226 126.5 309.533Z"/><path fill="#74BD46" d="M152.711 221.958C161.027 224.844 175.35 224.6 183.967 222.867C183.608 225.538 183.823 228.734 183.961 231.425C182.886 231.346 180.033 232.307 178.696 232.561C171.345 233.959 164.457 233.228 157.054 232.254C155.805 231.943 153.973 231.179 152.974 231.409C152.593 231.83 152.598 232.485 152.525 233.08C152.421 230.125 152.704 225.2 152.711 221.958Z"/><path fill="#C7F48E" d="M152.525 233.08C152.598 232.485 152.593 231.83 152.974 231.409C153.973 231.179 155.805 231.943 157.054 232.254C156.58 236.645 156.9 241.18 156.338 245.504C155.561 251.477 155.083 258.455 152.31 263.849C152.272 263.166 152.197 260.827 152.023 260.317C151.762 260.146 150.727 259.458 150.6 259.216C148.649 255.479 147.333 251.384 145.237 247.7C144.533 246.463 144.963 246.376 143.647 245.794C147.845 245.69 148.568 245.075 150.942 241.555C151.596 239.562 152.353 235.141 152.525 233.08Z"/><path fill="#74BD46" d="M150.942 241.555C152.613 243.423 152.283 256.022 152.116 258.989C152.091 259.432 152.06 259.875 152.023 260.317C151.762 260.146 150.727 259.458 150.6 259.216C148.649 255.479 147.333 251.384 145.237 247.7C144.533 246.463 144.963 246.376 143.647 245.794C147.845 245.69 148.568 245.075 150.942 241.555Z"/><path fill="#74BD46" d="M184.31 236.204C185.383 241.649 186.793 245.317 192.815 245.802C191.164 247.04 185.139 270.234 183.836 273.92C183.747 271.237 183.411 268.507 183.278 265.791C182.794 255.915 182.721 245.993 184.31 236.204Z"/><path fill="#74BD46" d="M124.875 224.036C126.204 226.62 127.797 228.531 128.976 230.712C126.771 231.363 124.922 232.657 122.942 233.723C120.703 234.927 115.298 237.196 112.913 237.464C111.191 235.263 109.462 232.795 107.452 230.907C106.571 230.081 105.949 230.124 104.73 230.027C112.148 229.826 118.641 228.273 124.875 224.036Z"/><path fill="#E2D6B9" d="M135.389 214.899C138.789 217.185 142.513 218.95 146.435 220.135C146.545 223.476 147.407 237.733 144.462 239.488C143.507 239.426 143.558 239.245 142.705 238.599C138.057 233.786 133.329 226.39 129.809 220.564C131.683 218.856 133.852 216.89 135.389 214.899Z"/><path fill="#E2D6B9" d="M203.515 215.26C204.511 215.416 207.124 218.138 208.168 219.069C203.202 225.872 199.737 232.641 193.766 238.727C193.386 239.042 192.995 239.238 192.567 239.48C189.274 238.585 189.872 223.98 190.293 221.113C195.807 219.341 198.536 218.098 203.515 215.26Z"/></svg>