<?xml version="1.0" encoding="utf-8" ?><svg xmlns="http://www.w3.org/2000/svg" xmlns:xlink="http://www.w3.org/1999/xlink" width="255" height="295" viewBox="0 0 255 295"><path fill="#2F0100" d="M130.354 0L141.229 0C151.611 7.77873 139.976 13.7847 142.016 17.6749L142.413 17.828C149.602 14.6268 156.556 10.1443 164.719 12.8598C170.054 14.6343 170.19 20.4967 168.396 24.8966C165.476 32.0572 158.673 36.6984 151.838 39.7217C149.823 40.5946 147.84 41.3179 145.862 42.3169L144.27 45.0125C191.397 50.4847 233.165 83.2102 248.742 128.205C250.159 132.306 251.39 136.469 252.43 140.682C252.888 142.582 253.727 148.183 255 149.075L255 190.529C254.952 190.594 254.904 190.659 254.857 190.725C253.593 192.502 250.819 205.939 249.541 209.576C244.369 224.747 236.498 238.859 226.306 251.231C224.922 252.933 222.93 255.706 221.427 257.151C213.594 264.686 204.11 271.928 194.741 277.401C185.033 283.042 174.695 287.521 163.94 290.746C160.612 291.751 150.697 293.339 148.773 294.806C148.719 294.847 148.662 294.884 148.607 294.925C148.574 294.949 148.542 294.975 148.51 295L105.587 295C104.258 293.711 91.8588 291.237 88.7722 290.254C69.8478 284.224 53.2622 274.915 38.7899 261.248C34.8881 257.563 31.0928 253.708 27.7593 249.496C18.3911 237.657 10.9138 224.822 6.16432 210.444C4.71224 206.052 3.49173 201.587 2.50783 197.067C2.11588 195.26 1.20801 188.635 0 187.702L0 151.779C0.289161 151.486 0.765631 150.854 0.836343 150.443C11.3759 89.2439 59.5205 48.9618 120.397 43.9992C119.033 37.1457 117.809 27.4818 118.493 20.7411C119.233 14.9527 119.012 7.57112 124.268 3.78075C126.188 2.39625 128.673 1.53134 130.354 0Z"/><path fill="#A5BDCB" d="M137.985 43.5332C140.331 43.5603 145.164 42.0038 145.862 42.3169L144.27 45.0125C142.881 44.683 139.337 44.5801 137.748 44.4954L137.985 43.5332Z"/><path fill="#7B7F82" d="M137.748 44.4954C136.744 44.5396 135.432 44.6784 134.619 44.1532L134.723 43.8064C135.69 43.3228 136.882 43.489 137.985 43.5332L137.748 44.4954Z"/><path fill="#A73568" d="M185.457 88.7869C186.65 87.6404 188.419 85.4618 189.575 84.1576C194.07 79.0886 197.592 77.8179 203.802 76.0345C204.801 76.8859 205.804 77.79 206.791 78.6602C211.525 82.1146 227.576 98.6233 228.868 102.8C232.275 107.808 235.545 113.153 237.837 118.766C240.962 124.378 242.976 130.226 244.893 136.325C245.222 137.372 245.554 138.274 246.064 139.249C239.99 140.306 233.059 144.537 228.26 148.297C223.92 151.613 221.855 156.821 218.388 160.707C217.582 161.61 212.709 162.703 211.476 163.311C201.298 168.33 193.411 174.951 187.083 184.452C186.175 185.816 185.524 187.885 183.866 187.88C167.873 189.111 151.531 198.717 149.069 216.395C146.069 217.978 142.85 218.976 139.845 220.634C132.922 224.452 129.997 228.016 125.875 234.479C125.348 234.166 125.332 233.546 125.02 232.998C119.064 222.527 110.134 218.079 99.1678 214.725C96.4538 203.798 93.037 198.516 84.5339 191.946C84.0249 191.553 83.3493 185.974 83.2385 184.675C82.9788 183.434 83.3052 182.377 82.7321 181.3C83.9594 180.591 84.7031 179.662 85.6453 178.623C86.029 176.829 86.1449 175.153 85.417 173.403C84.8584 172.831 84.3066 172.253 83.7617 171.668C84.2134 170.942 84.598 169.03 84.822 168.118L87.7913 168.618C97.8204 169.874 105.664 163.941 106.449 153.525C106.573 151.874 106.138 150.164 105.791 148.544C105.344 147.127 104.944 146.351 104.293 145.031C105.879 143.963 107.816 142.407 109.372 141.227C109.684 138.309 110.229 134.713 111.318 131.977C115.315 121.934 124.325 115.834 133.59 111.121C135.777 110.008 141.098 108.266 142.649 107.059C144.704 105.459 146.747 101.528 149.126 99.2264C156.115 92.4653 164.959 89.1584 174.594 88.6265C177.968 88.4403 182.007 88.7106 185.457 88.7869Z"/><path fill="#8F2955" d="M237.837 118.766C240.962 124.378 242.976 130.226 244.893 136.325C245.222 137.372 245.554 138.274 246.064 139.249C239.99 140.306 233.059 144.537 228.26 148.297C223.92 151.613 221.855 156.821 218.388 160.707C217.582 161.61 212.709 162.703 211.476 163.311C201.298 168.33 193.411 174.951 187.083 184.452C186.175 185.816 185.524 187.885 183.866 187.88C167.873 189.111 151.531 198.717 149.069 216.395C146.069 217.978 142.85 218.976 139.845 220.634C132.922 224.452 129.997 228.016 125.875 234.479C125.348 234.166 125.332 233.546 125.02 232.998C119.064 222.527 110.134 218.079 99.1678 214.725C96.4538 203.798 93.037 198.516 84.5339 191.946C84.0249 191.553 83.3493 185.974 83.2385 184.675C84.9138 184.628 86.1279 185.718 87.4945 186.653C94.2886 191.299 99.6566 197.743 102.998 205.265C103.571 206.58 103.763 208.145 104.173 209.515C104.972 212.185 104.305 213.422 107.254 214.427C115.039 217.081 120.362 220.959 126.012 226.781C128.893 222.778 134.137 219.107 138.361 216.506C139.183 215.627 144.78 214.209 144.99 213.365C148.287 200.111 157.591 190.51 170.935 187.163C174.058 186.38 179.01 185.966 183.281 184.744C183.391 183.532 183.955 181.789 184.284 180.542C187.215 179.193 188.375 177.666 189.448 174.788L189.575 174.494C190.228 174.164 192.407 171.689 193.231 170.914C194.459 169.76 195.777 168.707 197.174 167.764C200.514 165.552 205.346 162.995 208.969 161.125C211.163 159.993 215.415 159.316 217.592 157.706C218.176 157.274 219.289 155.306 219.738 154.608L219.918 153.788C220.728 153.389 221.335 152.383 221.76 151.679C224.513 147.122 227.885 145.001 232.582 142.808C233.436 142.409 234.202 141.135 235.29 140.955C235.497 140.932 235.816 140.829 236.028 140.77C237.624 138.724 237.959 126.276 237.735 123.161C237.629 121.687 237.645 120.286 237.837 118.766Z"/><path fill="#A73568" d="M229.786 108.815C234.713 119.727 235.855 129.106 235.29 140.955C234.202 141.135 233.436 142.409 232.582 142.808C227.885 145.001 224.513 147.122 221.76 151.679C221.335 152.383 220.728 153.389 219.918 153.788C218.476 146.373 215.272 136.801 213.362 129.263C215.318 123.663 225.419 113.278 229.786 108.815Z"/><path fill="#C05885" d="M185.457 88.7869C186.65 87.6404 188.419 85.4618 189.575 84.1576C194.07 79.0886 197.592 77.8179 203.802 76.0345C204.801 76.8859 205.804 77.79 206.791 78.6602C206.396 79.1111 201.598 80.7691 200.766 81.0136C194.255 82.9267 192.369 88.2012 188.121 92.3148C174.997 91.2423 164.936 91.3529 154.285 100.233C150.052 103.762 148.758 107.103 145.27 110.734C143.599 112.474 135.941 114.214 133.644 115.807C125.072 120.291 117.95 127.283 114.598 136.483C113.662 139.052 113.108 142.788 112.128 144.98C109.856 146.028 107.953 147.428 105.791 148.544C105.344 147.127 104.944 146.351 104.293 145.031C105.879 143.963 107.816 142.407 109.372 141.227C109.684 138.309 110.229 134.713 111.318 131.977C115.315 121.934 124.325 115.834 133.59 111.121C135.777 110.008 141.098 108.266 142.649 107.059C144.704 105.459 146.747 101.528 149.126 99.2264C156.115 92.4653 164.959 89.1584 174.594 88.6265C177.968 88.4403 182.007 88.7106 185.457 88.7869Z"/><path fill="#DA80A5" d="M196.159 98.9778C201.037 100.018 205.987 101.511 210.944 102.588C216.289 103.749 221.396 104.286 226.664 105.3C227.422 104.487 228.157 103.654 228.868 102.8C232.275 107.808 235.545 113.153 237.837 118.766C237.645 120.286 237.629 121.687 237.735 123.161C237.959 126.276 237.624 138.724 236.028 140.77C235.816 140.829 235.497 140.932 235.29 140.955C235.855 129.106 234.713 119.727 229.786 108.815C225.419 113.278 215.318 123.663 213.362 129.263C215.272 136.801 218.476 146.373 219.918 153.788L219.738 154.608C218.444 153.35 211.56 136.406 210.361 133.449C204.706 142.188 190.967 156.497 181.139 159.922C185.079 157.097 188.947 154.455 192.531 151.171C202.598 141.948 207.802 130.662 215.281 119.498C206.705 119.972 187.679 115.687 179.271 112.702C182.834 112.94 187.301 114.068 190.95 114.471C199.883 115.456 209.405 116.09 218.329 115.016C220.036 113.534 221.902 110.831 223.296 108.955C220.736 108.388 214.037 105.703 211.171 104.618C206.655 102.909 200.403 100.936 196.159 98.9778Z"/><path fill="#F699A9" d="M184.284 180.542C180.042 182.44 175.725 183.007 171.548 180.505C168.924 179.103 167.982 176.234 169.682 173.595C172.686 168.934 181.3 166.985 186.094 169.831C187.957 170.937 188.969 172.755 189.448 174.788C188.375 177.666 187.215 179.193 184.284 180.542Z"/><path fill="#C05885" d="M84.822 168.118L87.7913 168.618C87.3181 169.651 86.0578 172.841 85.417 173.403C84.8584 172.831 84.3066 172.253 83.7617 171.668C84.2134 170.942 84.598 169.03 84.822 168.118Z"/><path fill="#2F0100" d="M161.317 138.049C169.786 136.232 178.124 141.625 179.94 150.094C181.757 158.563 176.363 166.901 167.894 168.717C159.426 170.533 151.088 165.14 149.272 156.671C147.456 148.203 152.849 139.865 161.317 138.049Z"/><path fill="#FEFDFC" d="M159.334 143.644C161.882 142.863 164.579 144.299 165.354 146.848C166.129 149.398 164.686 152.092 162.135 152.86C159.593 153.626 156.91 152.19 156.138 149.649C155.366 147.109 156.796 144.423 159.334 143.644Z"/><path fill="#2F0100" d="M113.365 165.279C120.217 165.01 127.309 165.389 134.185 165.225C136.909 165.159 139.87 165.157 142.544 165.622C144.624 165.983 145.684 167.643 146.72 169.301C147.264 177.207 145.624 181.343 139.158 186.054C128.453 193.366 109.955 187.808 108.698 173.597C108.351 169.669 109.231 166.449 113.365 165.279Z"/><path fill="#FAAAB8" d="M128.315 174.847C133.597 174.5 136.646 175.39 141.05 178.287C137.854 182.471 134.441 183.835 129.399 184.565C129.047 184.604 128.694 184.632 128.34 184.646C123.547 184.843 119.829 183.462 116.33 180.222C120.217 176.861 123.24 175.422 128.315 174.847Z"/><path fill="#A73568" d="M12.829 128.358C26.6057 135.634 32.6874 139.316 37.333 155.568C37.4763 156.069 37.729 156.849 37.9184 157.342C39.3911 158.696 42.2177 160.125 44.003 161.166C53.6196 166.772 58.905 175.905 63.0869 185.859C64.5897 189.436 67.4495 189.928 70.6826 191.339C72.4602 192.03 74.1741 192.837 75.9048 193.63C83.8442 197.271 90.4377 203.707 92.7594 212.293C94.0152 216.937 93.5153 218.695 98.4973 220.297C102.723 221.657 107.295 223.476 111.05 225.824C119.046 231.034 123.072 239.931 125.162 248.94C125.549 250.608 125.48 254.353 126.413 255.772C127.982 258.158 130.686 259.973 132.624 262.086C134.528 264.162 136.442 266.484 137.679 269.039C138.542 270.447 139.465 272.753 139.547 274.404C140.272 277.982 139.105 289.208 134.486 289.518C119.42 290.53 103.942 288.547 89.4553 284.335C88.1912 283.967 84.8425 282.856 83.9642 282.134C84.0366 279.89 80.1915 280.695 82.0822 276.669C83.0786 274.548 84.4082 272.361 85.5218 270.324C84.2252 270.088 83.1785 270.117 81.8318 269.728L81.5192 270.121C76.8029 268.984 73.5295 266.907 68.3672 266.756L68.4027 266.228C65.6869 266.07 57.5134 260.029 54.8289 260.572C56.2317 263.019 60.8876 269.154 61.2598 270.794C59.6478 270.36 56.9172 268.173 55.4912 267.149C48.384 262.042 42.8371 257 36.924 250.511C30.8757 243.821 20.9831 231.128 17.8134 222.803C15.8523 219.24 13.7667 213.76 12.4026 209.936C3.99067 186.356 3.24506 160.721 10.2722 136.692C11.083 133.9 12.0194 131.157 12.829 128.358Z"/><path fill="#C05885" d="M12.829 128.358C26.6057 135.634 32.6874 139.316 37.333 155.568C37.4763 156.069 37.729 156.849 37.9184 157.342C39.3911 158.696 42.2177 160.125 44.003 161.166C53.6196 166.772 58.905 175.905 63.0869 185.859C64.5897 189.436 67.4495 189.928 70.6826 191.339C72.4602 192.03 74.1741 192.837 75.9048 193.63C83.8442 197.271 90.4377 203.707 92.7594 212.293C94.0152 216.937 93.5153 218.695 98.4973 220.297C102.723 221.657 107.295 223.476 111.05 225.824C119.046 231.034 123.072 239.931 125.162 248.94C125.549 250.608 125.48 254.353 126.413 255.772C127.982 258.158 130.686 259.973 132.624 262.086C134.528 264.162 136.442 266.484 137.679 269.039C137.5 270.053 137.226 270.235 136.308 270.413C134.93 270.045 132.329 265.901 131.233 264.548C128.867 261.629 125.094 259.607 123.183 256.524C122.066 254.432 122.155 251.584 121.64 249.334C119.129 238.363 113.424 228.236 102.41 224.135C99.4486 223.032 95.7619 222.7 93.073 220.994C92.1437 220.404 92.5876 218.42 92.1656 217.486C90.0489 210.348 87.4677 204.967 81.2778 200.573C78.097 198.316 75.0425 197.123 71.5893 195.749C69.907 195.079 62.0974 193.076 61.504 192.312C59.9427 190.302 57.7018 184.236 56.3159 181.688C52.0768 173.452 46.8124 165.606 37.6287 162.489C31.168 160.297 32.3333 159.247 30.5846 153.454C28.9195 147.938 26.031 143.133 22.0369 138.906C18.0419 152.287 14.7069 166.104 14.5129 180.142C14.4929 181.594 15.4107 183.885 15.5908 185.495C15.1063 185.177 15.2689 185.333 14.9944 184.805C15.1074 185.273 14.9215 185.597 14.971 186.189L14.577 185.983C13.2005 187.926 15.4931 205.553 16.0402 208.744C16.4526 211.149 19.0265 222.177 18.4777 223.43L17.8134 222.803C15.8523 219.24 13.7667 213.76 12.4026 209.936C3.99067 186.356 3.24506 160.721 10.2722 136.692C11.083 133.9 12.0194 131.157 12.829 128.358Z"/><path fill="#8F2955" d="M85.7896 270.193C97.8221 272.71 110.157 273.46 122.406 272.42C126.658 272.048 131.294 271.114 135.346 270.83C135.795 271.983 136.936 274.979 138.021 275.545C137.908 274.494 135.806 272.942 136.171 271.421C137.298 270.398 137.002 271.521 137.651 270.35C138.718 271.074 139.073 274.52 139.422 275.975C139.485 275.416 139.527 274.966 139.547 274.404C140.272 277.982 139.105 289.208 134.486 289.518C119.42 290.53 103.942 288.547 89.4553 284.335C88.1912 283.967 84.8425 282.856 83.9642 282.134C84.0366 279.89 80.1915 280.695 82.0822 276.669C83.0786 274.548 84.4082 272.361 85.5218 270.324L85.7896 270.193Z"/><path fill="#A73568" d="M17.8134 222.803L18.4777 223.43C19.0265 222.177 16.4526 211.149 16.0402 208.744C15.4931 205.553 13.2005 187.926 14.577 185.983L14.971 186.189C18.509 203.191 23.5549 215.652 35.3415 228.747C38.4561 232.208 42.099 234.788 44.9195 238.107C45.7581 239.094 46.675 244.045 47.2442 245.678C48.8889 250.3 51.0122 254.738 53.5797 258.919L54.8289 260.572C56.2317 263.019 60.8876 269.154 61.2598 270.794C59.6478 270.36 56.9172 268.173 55.4912 267.149C48.384 262.042 42.8371 257 36.924 250.511C30.8757 243.821 20.9831 231.128 17.8134 222.803Z"/><path fill="#8F2955" d="M36.924 250.511C40.9469 249.444 49.7135 259.328 53.5797 258.919L54.8289 260.572C56.2317 263.019 60.8876 269.154 61.2598 270.794C59.6478 270.36 56.9172 268.173 55.4912 267.149C48.384 262.042 42.8371 257 36.924 250.511Z"/><path fill="#DA80A5" d="M14.971 186.189C14.9215 185.597 15.1074 185.273 14.9944 184.805C15.2689 185.333 15.1063 185.177 15.5908 185.495C21.9636 203.346 29.3512 216.965 43.4881 230.001C43.493 219.367 45.4672 211.564 50.7264 202.234C52.3432 199.365 53.5257 197.149 55.8293 194.712C54.4747 197.36 52.8757 200.349 51.7817 203.062C47.0714 214.744 46.4447 227.077 50.3154 239.104C52.6511 246.283 56.1164 253.043 60.581 259.131C61.8956 260.908 63.3371 262.443 64.6663 264.146C67.3548 254.386 69.7167 249.67 77.1848 242.212C78.0264 241.371 81.131 238.504 82.036 237.971C82.1943 237.878 82.3562 237.79 82.5212 237.71L82.7218 237.889C82.1708 238.813 78.7771 242.049 77.7149 243.399C72.1831 250.433 68.9004 257.348 68.4027 266.228C65.6869 266.07 57.5134 260.029 54.8289 260.572L53.5797 258.919C51.0122 254.738 48.8889 250.3 47.2442 245.678C46.675 244.045 45.7581 239.094 44.9195 238.107C42.099 234.788 38.4561 232.208 35.3415 228.747C23.5549 215.652 18.509 203.191 14.971 186.189Z"/><path fill="#DA80A5" d="M81.8318 269.728C84.4515 265.735 93.2449 258.272 97.6194 256.827L97.9298 256.937C97.7894 257.418 87.0207 266.176 85.7896 270.193L85.5218 270.324C84.2252 270.088 83.1785 270.117 81.8318 269.728Z"/><path fill="#A73568" d="M242.445 146.262C244.089 145.619 245.769 145.136 247.299 144.541C247.556 146.354 247.847 148.161 248.174 149.963C253.174 183.566 246.186 214.076 225.862 241.583C223.28 245.078 220.172 248.742 217.061 251.761C213.442 255.922 208.544 260.463 204.048 263.685C203.004 264.607 197.453 268.786 196.443 269.223C194.614 270.376 192.688 271.637 190.818 272.699C189.815 273.612 185.495 275.762 183.981 276.511C169.833 283.511 158.312 286.576 142.971 288.801C145.905 280.417 146.896 275.144 142.737 266.915C141.005 263.523 138.828 260.377 136.265 257.561C133.65 254.648 131.212 255.072 130.702 250.679C130.446 248.479 129.762 245.599 129.275 243.406C128.961 240.827 129.826 239.193 131.062 236.984C134.838 229.082 143.797 224.251 151.581 221.593C155.242 220.343 153.959 216.157 155.837 211.836C160.357 201.433 169.08 196.101 179.997 194.131C181.534 193.854 187.283 193.466 188.069 192.669C189.916 190.669 191.191 188.002 192.765 185.802C198.15 178.276 205.405 172.347 213.863 168.576C216.512 167.395 219.955 166.866 222.232 165.227C223.566 164.267 224.713 161.062 225.752 159.696C230.283 153.052 235.201 149.379 242.445 146.262Z"/><path fill="#8F2955" d="M242.445 146.262C244.089 145.619 245.769 145.136 247.299 144.541C247.556 146.354 247.847 148.161 248.174 149.963C253.174 183.566 246.186 214.076 225.862 241.583C223.28 245.078 220.172 248.742 217.061 251.761C213.442 255.922 208.544 260.463 204.048 263.685C203.004 264.607 197.453 268.786 196.443 269.223C196.018 268.237 195.339 263.709 194.903 262.108C193.462 256.819 191.622 252.947 189.065 248.207C198.456 241.805 204.98 234.682 212.837 226.695L212.684 226.448C213.408 225.97 214.951 224.446 215.046 223.553L215.243 223.628C216.141 222.586 218.479 219.072 219.128 218.613L219.448 218.764L219.612 219.915C219.932 218.164 219.709 211.505 219.788 209.136C220.035 211.625 220.027 214.38 220.073 216.9C221.105 214.183 223.665 211.289 224.145 209.635L224.498 211.065C224.916 206.672 229.138 200.43 231.005 196.097C235.924 184.681 242.077 164.034 242.257 151.692L242.531 151.199C242.512 149.546 243.039 147.716 242.445 146.262Z"/><path fill="#8F2955" d="M212.837 226.695C214.812 228.953 216.125 230.941 217.443 233.65L217.35 233.876C216.383 236.281 216.222 239.126 215.316 241.534C212.706 248.477 208.988 255.184 204.948 261.39C204.371 262.276 203.702 262.652 204.048 263.685C203.004 264.607 197.453 268.786 196.443 269.223C196.018 268.237 195.339 263.709 194.903 262.108C193.462 256.819 191.622 252.947 189.065 248.207C198.456 241.805 204.98 234.682 212.837 226.695Z"/><path fill="#C05885" d="M224.455 218.612C229.772 213.52 234.852 207.281 238.776 201.039C240.423 198.418 241.687 195.288 243.303 192.812C240.26 205.705 233.437 217.396 223.707 226.387C223.003 230.996 222.493 235.131 221.31 239.667C220.485 242.836 217.23 249.01 217.061 251.761C213.442 255.922 208.544 260.463 204.048 263.685C203.702 262.652 204.371 262.276 204.948 261.39C208.988 255.184 212.706 248.477 215.316 241.534C216.222 239.126 216.383 236.281 217.35 233.876L217.443 233.65C216.125 230.941 214.812 228.953 212.837 226.695L212.684 226.448C213.408 225.97 214.951 224.446 215.046 223.553L215.243 223.628C216.141 222.586 218.479 219.072 219.128 218.613L219.448 218.764L219.612 219.915C219.932 218.164 219.709 211.505 219.788 209.136C220.035 211.625 220.027 214.38 220.073 216.9C221.105 214.183 223.665 211.289 224.145 209.635L224.498 211.065C224.574 213.468 224.738 216.26 224.455 218.612Z"/><path fill="#8F2955" d="M215.243 223.628C216.141 222.586 218.479 219.072 219.128 218.613L219.448 218.764L219.612 219.915C219.406 222.559 219.21 225.436 218.773 228.038C218.068 227.09 215.471 224.178 215.243 223.628Z"/><path fill="#A73568" d="M242.445 146.262C244.089 145.619 245.769 145.136 247.299 144.541C247.556 146.354 247.847 148.161 248.174 149.963C245.18 149.873 244.811 151.01 242.531 151.199C242.512 149.546 243.039 147.716 242.445 146.262Z"/><path fill="#8F2955" d="M129.275 243.406C129.667 242.022 129.963 239.415 130.901 238.446L131.243 238.449C131.773 239.121 132.952 240.708 132.81 241.569C131.597 242.062 131.169 241.144 130.245 241.732L130.351 242.062C131.392 242.067 132.278 242.022 133.318 241.957C134.657 243.34 135.191 249.618 136.092 251.288C137.471 253.847 140.754 256.409 142.496 258.884C144.553 261.805 145.849 265.228 147.577 268.23C150.935 266.958 154.524 265.784 157.94 264.561C168.067 260.933 177.014 256.423 186.008 250.459L186.019 250.302C186.828 250.165 188.226 248.693 188.924 248.064L189.065 248.207C191.622 252.947 193.462 256.819 194.903 262.108C195.339 263.709 196.018 268.237 196.443 269.223C194.614 270.376 192.688 271.637 190.818 272.699C189.815 273.612 185.495 275.762 183.981 276.511C169.833 283.511 158.312 286.576 142.971 288.801C145.905 280.417 146.896 275.144 142.737 266.915C141.005 263.523 138.828 260.377 136.265 257.561C133.65 254.648 131.212 255.072 130.702 250.679C130.446 248.479 129.762 245.599 129.275 243.406Z"/><path fill="#C05885" d="M188.924 248.064L189.065 248.207C191.622 252.947 193.462 256.819 194.903 262.108C195.339 263.709 196.018 268.237 196.443 269.223C194.614 270.376 192.688 271.637 190.818 272.699C190.362 271.66 190.262 266.321 190.057 264.683C189.409 259.77 188.044 254.978 186.008 250.459L186.019 250.302C186.828 250.165 188.226 248.693 188.924 248.064Z"/><path fill="#C05885" d="M131.062 236.984C134.838 229.082 143.797 224.251 151.581 221.593C155.242 220.343 153.959 216.157 155.837 211.836C160.357 201.433 169.08 196.101 179.997 194.131C181.534 193.854 187.283 193.466 188.069 192.669C189.916 190.669 191.191 188.002 192.765 185.802C198.15 178.276 205.405 172.347 213.863 168.576C216.512 167.395 219.955 166.866 222.232 165.227C223.566 164.267 224.713 161.062 225.752 159.696C230.283 153.052 235.201 149.379 242.445 146.262C243.039 147.716 242.512 149.546 242.531 151.199L242.257 151.692C239.042 152.795 235.786 155.404 233.465 157.871C230.519 161.002 229.407 165.168 227.168 168.681C225.27 169.317 223.36 169.877 221.444 170.44C212.268 173.135 204.053 178.626 198.637 186.581C196.507 189.71 194.947 193.097 192.687 196.15C189.331 197.017 185.93 196.993 182.644 197.707C174.057 199.574 166.719 204.97 162.139 212.462C159.961 216.026 159.349 220.095 157.444 223.698C157.307 223.958 156.322 224.234 155.984 224.314C146.753 226.513 139.483 231.14 134.606 239.46C134.212 240.133 133.824 240.81 133.441 241.489C132.686 239.78 132.005 238.606 131.062 236.984Z"/><path fill="#DA80A5" d="M219.788 209.136C219.576 200.608 218.369 192.297 214.995 184.38C214.524 183.275 213.709 181.466 213.662 180.281L213.927 180.292C217.254 184.982 221.738 196.407 222.976 202.189C223.48 204.549 223.711 207.287 224.145 209.635C223.665 211.289 221.105 214.183 220.073 216.9C220.027 214.38 220.035 211.625 219.788 209.136Z"/><path fill="#DA80A5" d="M186.019 250.302C183.166 244.738 180.722 239.909 176.824 234.919C175.139 232.761 171.686 229.885 170.559 227.956C177.785 233.104 183.945 240.809 188.924 248.064C188.226 248.693 186.828 250.165 186.019 250.302Z"/><path fill="#DA80A5" d="M212.684 226.448C210.993 223.618 205.105 217.914 202.41 215.941C201.597 215.346 198.709 213.422 198.326 212.963L198.702 212.857C203.302 214.456 211.272 220.462 215.046 223.553C214.951 224.446 213.408 225.97 212.684 226.448Z"/><path fill="#A73568" d="M70.4072 63.798C77.7896 66.3181 82.2862 70.3483 84.5093 77.9177C85.8039 82.9657 88.0343 82.4603 92.5526 82.8125C98.0675 83.2425 103.453 84.4403 108.285 87.2672C112.352 89.6469 114.543 93.248 117.946 96.2955C126.37 96.7546 130.612 98.3402 136.481 104.203C135.299 104.647 134.041 105.174 132.861 105.645C118.093 112.331 106.459 121.517 104.143 138.456C102.642 139.427 101.967 140.153 100.685 141.074C96.5811 138.095 92.8517 136.833 87.7172 137.657C83.6658 138.327 80.0476 140.582 77.6609 143.924C72.4146 151.29 74.4121 159.675 80.7459 165.568C80.2126 166.516 79.3749 167.868 79.0972 168.876C79.2814 169.214 79.2386 169.224 79.5183 169.453C80.8111 169.882 82.6314 170.879 83.7617 171.668C84.3066 172.253 84.8584 172.831 85.417 173.403C86.1449 175.153 86.029 176.829 85.6453 178.623C84.7031 179.662 83.9594 180.591 82.7321 181.3C80.6063 182.142 79.8811 182.3 77.5033 182.303C77.1658 182.953 77.9012 187.609 78.0435 188.676C74.8372 186.521 71.8776 186.145 68.7621 184.313C67.0952 181.619 66.8996 179.561 65.7457 177.623C61.9645 171.272 57.0994 163.846 51.1266 159.373C48.5511 157.444 45.376 155.755 42.6316 154.042C39.9135 147.592 40.9706 146.537 36.4379 139.996C30.5771 131.766 24.0187 127.54 14.9824 123.462C15.8496 121.517 16.599 119.918 17.5981 118.041C18.9468 115.225 20.2404 112.857 21.7616 110.132C23.1096 107.299 26.6581 102.411 28.5013 99.8653C37.5243 87.4043 48.9288 76.6346 62.0817 68.6325C64.8197 66.9667 67.4867 65.2125 70.4072 63.798Z"/><path fill="#C05885" d="M70.4072 63.798C77.7896 66.3181 82.2862 70.3483 84.5093 77.9177C85.8039 82.9657 88.0343 82.4603 92.5526 82.8125C98.0675 83.2425 103.453 84.4403 108.285 87.2672C112.352 89.6469 114.543 93.248 117.946 96.2955C126.37 96.7546 130.612 98.3402 136.481 104.203C135.299 104.647 134.041 105.174 132.861 105.645C130.548 104.159 125.284 101.983 122.47 101.609C120.762 101.382 119.1 101.331 117.346 100.94L117.102 100.884C111.504 92.084 105.009 88.2309 94.543 86.6876C91.6326 86.2584 88.7761 86.2791 85.8496 85.7906C82.9337 79.833 83.7953 79.4463 79.2131 73.4165C75.7231 75.6436 71.9464 78.2859 68.5164 80.4706C64.6715 82.9195 56.366 91.0391 52.7025 92.3225L52.4898 93.0225C56.2697 95.2249 54.7111 98.3187 53.5523 101.676L53.6553 102.317C53.5269 102.372 53.301 102.487 53.1796 102.497C52.415 103.738 51.315 105.928 49.8147 106.135C48.7432 106.698 48.387 106.825 47.2187 107.165C45.7012 107.362 40.7437 108.911 39.4492 109.738C38.7725 111.573 37.0702 113.14 36.8779 114.242C36.0024 114.114 34.9724 114.868 34.2168 115.372L33.4277 114.915L33.2902 115.046C32.1432 116.12 30.604 115.871 30.7378 118.017C29.0875 117.099 27.6619 115.837 26.2931 114.554C23.9426 115.441 19.0842 118.479 17.5981 118.041C18.9468 115.225 20.2404 112.857 21.7616 110.132C23.1096 107.299 26.6581 102.411 28.5013 99.8653C37.5243 87.4043 48.9288 76.6346 62.0817 68.6325C64.8197 66.9667 67.4867 65.2125 70.4072 63.798Z"/><path fill="#DA80A5" d="M41.718 103.522C42.2142 102.781 42.8977 101.985 43.4697 101.283C43.6898 102.398 43.961 103.626 44.131 104.738C45.1102 105.754 45.9267 106.95 47.2187 107.165C45.7012 107.362 40.7437 108.911 39.4492 109.738C38.7725 111.573 37.0702 113.14 36.8779 114.242C36.0024 114.114 34.9724 114.868 34.2168 115.372L33.4277 114.915L33.2902 115.046C32.1432 116.12 30.604 115.871 30.7378 118.017C29.0875 117.099 27.6619 115.837 26.2931 114.554C23.9426 115.441 19.0842 118.479 17.5981 118.041C18.9468 115.225 20.2404 112.857 21.7616 110.132C22.9329 110.122 23.1512 109.908 24.1978 109.455C29.7921 107.03 36.1593 105.922 41.718 103.522Z"/><path fill="#C05885" d="M33.4277 114.915C32.4218 114.137 31.9605 114.051 32.282 112.792C33.7001 111.094 37.3121 110.01 39.4492 109.738C38.7725 111.573 37.0702 113.14 36.8779 114.242C36.0024 114.114 34.9724 114.868 34.2168 115.372L33.4277 114.915Z"/><path fill="#FAAAB8" d="M51.7453 92.8714L52.4898 93.0225C56.2697 95.2249 54.7111 98.3187 53.5523 101.676L53.6553 102.317C53.5269 102.372 53.301 102.487 53.1796 102.497C52.415 103.738 51.315 105.928 49.8147 106.135C48.7432 106.698 48.387 106.825 47.2187 107.165C45.9267 106.95 45.1102 105.754 44.131 104.738C43.961 103.626 43.6898 102.398 43.4697 101.283C44.7512 98.0845 45.7844 95.294 48.4549 92.9404C50.0742 94.109 49.9911 92.818 51.7453 92.8714Z"/><path fill="#DA80A5" d="M52.4898 93.0225C56.2697 95.2249 54.7111 98.3187 53.5523 101.676L53.6553 102.317C53.5269 102.372 53.301 102.487 53.1796 102.497L53.3363 101.636C52.9602 98.6736 49.5554 99.6959 47.721 99.883C48.9487 98.5303 52.1399 94.7097 52.4898 93.0225Z"/><path fill="#F699A9" d="M47.721 99.883C49.5554 99.6959 52.9602 98.6736 53.3363 101.636C53.0532 101.605 45.4907 103.007 44.4898 103.203C45.5784 101.989 46.5504 101.019 47.721 99.883Z"/><path fill="#F699A9" d="M48.4549 92.9404C52.8168 88.1045 58.1201 82.9136 63.4726 79.1549C61.3582 82.8589 52.7494 89.0002 51.7453 92.8714C49.9911 92.818 50.0742 94.109 48.4549 92.9404Z"/><path fill="#8F2955" d="M37.7884 135.19C38.8188 135.573 41.5181 139.016 42.1624 140.032C44.1939 143.234 45.2483 147.41 46.2659 151.035C53.9031 155.723 58.2499 158.43 63.8252 165.978C64.9629 167.518 66.6006 169.63 67.4398 171.281C71.0442 168.412 75.2372 168.167 79.5183 169.453C80.8111 169.882 82.6314 170.879 83.7617 171.668C84.3066 172.253 84.8584 172.831 85.417 173.403C86.1449 175.153 86.029 176.829 85.6453 178.623C84.7031 179.662 83.9594 180.591 82.7321 181.3C80.6063 182.142 79.8811 182.3 77.5033 182.303C77.1658 182.953 77.9012 187.609 78.0435 188.676C74.8372 186.521 71.8776 186.145 68.7621 184.313C67.0952 181.619 66.8996 179.561 65.7457 177.623C61.9645 171.272 57.0994 163.846 51.1266 159.373C48.5511 157.444 45.376 155.755 42.6316 154.042C39.9135 147.592 40.9706 146.537 36.4379 139.996C37.1906 138.831 37.5149 136.591 37.7884 135.19Z"/><path fill="#F699A9" d="M67.4398 171.281C71.0442 168.412 75.2372 168.167 79.5183 169.453C80.8111 169.882 82.6314 170.879 83.7617 171.668C84.3066 172.253 84.8584 172.831 85.417 173.403C86.1449 175.153 86.029 176.829 85.6453 178.623C84.7031 179.662 83.9594 180.591 82.7321 181.3C80.6063 182.142 79.8811 182.3 77.5033 182.303C73.7391 182.735 69.0854 179.902 66.4498 177.386C65.9359 174.65 65.6578 173.579 67.4398 171.281Z"/><path fill="#DA80A5" d="M34.2168 115.372C34.9724 114.868 36.0024 114.114 36.8779 114.242C40.8899 115.057 41.674 116.671 41.4228 120.579L41.7959 121.221C41.165 122.289 41.0523 122.902 40.5466 123.885L40.4472 124.292C39.9913 126.385 38.4789 133.295 37.71 135.042L37.7884 135.19C37.5149 136.591 37.1906 138.831 36.4379 139.996C30.5771 131.766 24.0187 127.54 14.9824 123.462C15.8496 121.517 16.599 119.918 17.5981 118.041C19.0842 118.479 23.9426 115.441 26.2931 114.554C27.6619 115.837 29.0875 117.099 30.7378 118.017C30.604 115.871 32.1432 116.12 33.2902 115.046L33.4277 114.915L34.2168 115.372Z"/><path fill="#C05885" d="M17.5981 118.041C19.0842 118.479 23.9426 115.441 26.2931 114.554C27.6619 115.837 29.0875 117.099 30.7378 118.017C29.4766 119.566 25.925 123.986 25.5226 125.758C25.7056 126.393 25.5627 126.252 26.008 126.567C30.8323 128.689 33.8889 131.461 37.71 135.042L37.7884 135.19C37.5149 136.591 37.1906 138.831 36.4379 139.996C30.5771 131.766 24.0187 127.54 14.9824 123.462C15.8496 121.517 16.599 119.918 17.5981 118.041Z"/><path fill="#FAAAB8" d="M34.2168 115.372C34.9724 114.868 36.0024 114.114 36.8779 114.242C40.8899 115.057 41.674 116.671 41.4228 120.579L41.7959 121.221C41.165 122.289 41.0523 122.902 40.5466 123.885L40.4472 124.292C39.4791 124.239 33.6162 119.146 32.0168 119.273C30.5229 119.391 27.1449 125.191 26.008 126.567C25.5627 126.252 25.7056 126.393 25.5226 125.758C25.925 123.986 29.4766 119.566 30.7378 118.017C30.604 115.871 32.1432 116.12 33.2902 115.046L33.4277 114.915L34.2168 115.372Z"/><path fill="#DA80A5" d="M34.2168 115.372C34.9724 114.868 36.0024 114.114 36.8779 114.242C40.8899 115.057 41.674 116.671 41.4228 120.579C39.8307 120.001 35.14 116.721 34.2168 115.372Z"/><path fill="#DA80A5" d="M53.5523 101.676C57.5416 101.678 83.5565 99.5105 86.002 100.878C84.9774 101.407 75.3082 101.831 73.1869 102.132C67.6333 102.923 60.3252 103.536 55.0444 105.401C60.4513 108.788 66.4034 111.214 72.6373 112.571C73.5693 112.779 78.9661 113.73 79.4382 113.92L79.4364 114.2C78.6282 114.428 77.6931 114.302 76.874 114.223C68.5682 113.425 59.6221 112.304 52.4601 107.715C51.6217 107.178 50.7157 106.576 49.8147 106.135C51.315 105.928 52.415 103.738 53.1796 102.497C53.301 102.487 53.5269 102.372 53.6553 102.317L53.5523 101.676Z"/><path fill="#DA80A5" d="M41.7959 121.221C45.525 123.268 48.6472 125.398 52.837 126.64C53.7143 126.899 56.5099 127.745 57.099 128.176L56.8855 128.379C52.2419 127.918 45.9328 125.177 41.3444 123.835C41.0962 123.762 40.7865 123.772 40.5466 123.885C41.0523 122.902 41.165 122.289 41.7959 121.221Z"/><path fill="#A73568" d="M81.4947 58.8604C102.395 49.9491 132.048 47.2215 154.179 52.6679C162.858 54.6553 166.066 56.0064 174.147 58.7079C178.888 60.5355 190.609 66.7724 194.716 69.643C195.904 70.3498 197.216 71.1696 198.412 71.8336C191.421 74.9337 187.686 77.0584 183.093 83.3557C181.719 83.2217 180.343 83.1025 178.966 82.9981C171.875 82.6355 161.094 84.4102 154.949 87.908C154.542 88.2778 153.287 89.0549 152.794 89.3551C147.417 92.6234 144.182 96.0283 140.471 101.084C137.156 95.9158 131.868 93.3084 125.896 91.7675C124.923 91.5357 120.749 91.4599 120.242 90.8527C114.953 84.5185 108.965 80.5431 100.883 78.4559C99.2454 78.0328 90.5658 77.3591 89.8539 76.7889C89.7507 74.7202 87.7828 71.3936 86.797 69.4127C84.431 65.6206 81.2131 62.4819 76.9518 60.9213C78.5157 60.1621 79.8896 59.5263 81.4947 58.8604Z"/><path fill="#C05885" d="M81.4947 58.8604C102.395 49.9491 132.048 47.2215 154.179 52.6679C153.321 52.8537 136.368 55.384 136.813 55.462C133.786 53.7938 115.014 57.9782 110.979 59.1467C106.531 60.4509 102.158 61.9942 97.8766 63.77C96.4532 64.3576 91.658 66.6748 90.5483 66.8962C88.7616 65.1789 87.8095 63.794 85.7445 62.2488C85.053 61.7313 81.7161 59.196 81.4947 58.8604Z"/><path fill="#DA80A5" d="M154.179 52.6679C162.858 54.6553 166.066 56.0064 174.147 58.7079C174.038 58.9954 173.804 59.5675 173.904 59.8671C175.646 65.0691 177.808 70.5802 178.858 75.9632C174.755 68.7115 173.579 65.2338 167.581 58.3627C163.829 59.5125 159.808 61.096 156.1 62.4794C158.251 64.2335 163.436 70.1616 164.789 72.6506C163 71.3634 161.309 69.8241 159.438 68.5802C157.078 67.0107 154.605 65.6452 152.157 64.2133C145.823 66.9015 137.445 71.8986 131.862 75.9221C129.039 77.9562 126.194 80.8046 123.268 82.9953C125.141 80.275 127.216 78.5779 129.497 76.2619C136.794 68.8523 146.247 61.8497 155.809 57.6668C138.546 55.9617 127.681 60.0092 112.333 67.2471C117.142 62.1121 130.098 57.2427 136.813 55.462C136.368 55.384 153.321 52.8537 154.179 52.6679Z"/><path fill="#8F2955" d="M90.7739 67.3333C92.422 69.6815 93.064 71.8645 94.4488 74.2617C94.8126 74.8914 99.0253 74.5529 99.9293 74.7236C109.14 76.4625 116.412 80.4796 122.233 87.922C126.837 88.4863 130.894 87.9063 135.272 90.2473C137.095 91.2224 140.218 93.9678 142.164 94.9191C142.197 94.935 142.768 94.6585 142.899 94.5457C146.04 91.8368 149.621 88.2432 153.867 87.4558C154.247 87.6016 154.583 87.7228 154.949 87.908C154.542 88.2778 153.287 89.0549 152.794 89.3551C147.417 92.6234 144.182 96.0283 140.471 101.084C137.156 95.9158 131.868 93.3084 125.896 91.7675C124.923 91.5357 120.749 91.4599 120.242 90.8527C114.953 84.5185 108.965 80.5431 100.883 78.4559C99.2454 78.0328 90.5658 77.3591 89.8539 76.7889C89.7507 74.7202 87.7828 71.3936 86.797 69.4127C88.0997 68.2517 89.2688 68.0747 90.7739 67.3333Z"/><path fill="#8F2955" d="M194.716 69.643C195.904 70.3498 197.216 71.1696 198.412 71.8336C191.421 74.9337 187.686 77.0584 183.093 83.3557C181.719 83.2217 180.343 83.1025 178.966 82.9981C179.217 81.6193 180.3 80.9232 181.057 79.8533C184.63 74.8043 189.435 72.5037 194.716 69.643Z"/><path fill="#537D39" d="M159.878 17.6025C163.466 17.4524 164.426 19.4162 163.096 22.5166C159.229 31.5297 147.818 36.3987 138.859 38.1952C137.909 38.4733 136.136 38.4621 135.086 38.4971C135.827 35.0206 136.534 32.369 138.969 29.6336C145.065 22.7853 150.779 18.5373 159.878 17.6025Z"/><path fill="#C05885" d="M54.8289 260.572C57.5134 260.029 65.6869 266.07 68.4027 266.228L68.3672 266.756C73.5295 266.907 76.8029 268.984 81.5192 270.121L81.8318 269.728C83.1785 270.117 84.2252 270.088 85.5218 270.324C84.4082 272.361 83.0786 274.548 82.0822 276.669C80.1915 280.695 84.0366 279.89 83.9642 282.134C81.9432 281.264 79.4644 280.559 77.38 279.638C71.9449 277.237 66.0111 274.323 61.2598 270.794C60.8876 269.154 56.2317 263.019 54.8289 260.572Z"/><path fill="#8F2955" d="M68.3672 266.756C73.5295 266.907 76.8029 268.984 81.5192 270.121C80.0409 271.96 78.8869 274.282 77.9404 276.435C75.4565 274.708 68.4958 270.047 68.3672 266.756Z"/><path fill="#537D39" d="M137.497 11.7649C137.395 11.157 129.104 35.6238 129.281 38.0608C129.31 38.4535 128.218 43.9177 127.944 44.196C126.617 44.0165 126.359 43.4174 125.917 42.3557C123.352 35.1966 124.363 21.262 124.8 13.5365C130.113 13.5904 132.591 13.8433 137.497 11.7649Z"/><path fill="#8DB15B" d="M127.569 15.9123C128.331 17.1339 127.973 18.5961 126.643 19.2544C126.26 18.7855 126.239 18.6984 126.076 18.1126C126.178 17.2286 126.941 16.5832 127.569 15.9123Z"/><path fill="#FEFDFC" d="M85.6067 143.108C88.173 142.703 90.5964 144.411 91.0767 146.964C91.557 149.518 89.92 151.99 87.3819 152.545C85.6726 152.919 83.8953 152.333 82.7426 151.017C81.5898 149.701 81.2439 147.862 81.8396 146.217C82.4353 144.572 83.8785 143.381 85.6067 143.108Z"/><path fill="#537D39" d="M135.264 5.34516C136.547 5.1084 138.67 5.16359 139.658 6.14465C140.101 8.64433 132.054 10.9693 130.295 11.4631C128.87 11.5469 126.812 11.4891 125.338 11.4918C127.299 7.4455 131.07 5.8616 135.264 5.34516Z"/></svg>