<?xml version="1.0" encoding="utf-8" ?><svg xmlns="http://www.w3.org/2000/svg" xmlns:xlink="http://www.w3.org/1999/xlink" width="247" height="307" viewBox="0 0 247 307"><path fill="#2F0300" d="M116.809 0L129.422 0C131.154 1.24361 133.087 2.21131 134.754 3.57773C138.576 6.71046 140.552 11.9267 141.759 16.4936C142.979 21.1086 142.302 26.7612 143.228 30.9509C145.141 31.4853 149.091 28.6112 151.073 28.009C162.604 24.5043 170.57 31.725 167.068 43.8264C165.103 50.616 159.215 58.1316 153.616 62.691C152.995 63.1966 152.489 63.0047 152.08 63.8314C152.474 64.3811 153.32 64.7103 153.96 64.9216C162.522 67.7489 172.357 70.5293 180.353 74.7882C197.205 83.7633 211.903 95.148 223.199 110.661C232.064 122.835 238.909 136.095 243.024 150.656C244.238 154.828 245.158 159.811 246.277 164.013C246.322 164.182 246.851 164.673 247 164.801L247 204.474C245.792 205.373 244.676 211.76 244.255 213.482C243.097 218.2 241.719 222.86 240.123 227.447C235.582 240.272 226.553 255.546 217.588 265.744C202.101 283.362 181.138 296 158.71 302.606C155.493 303.553 144.812 305.52 142.789 307L104.807 307C103.649 305.817 98.9444 305.162 97.0551 304.749C93.8011 304.014 90.5702 303.18 87.3667 302.249C70.6453 297.214 55.1698 288.719 41.9454 277.314C22.0324 260.464 8.20239 236.149 2.74619 210.646C2.21702 208.173 1.5487 200.734 0 199.309L0 168.665L0.163704 168.65C1.04036 167.824 2.7465 157.247 3.40895 154.64C4.9715 148.593 6.9778 142.669 9.41155 136.917C21.9045 107.591 43.1532 85.8732 72.1555 72.5935C79.1804 69.3769 85.9969 67.6517 92.8813 64.8754C87.5917 60.8097 81.3027 52.508 79.0973 46.3864C75.2234 35.6335 82.6447 26.4919 94.0342 29.4419C98.4767 30.5926 100.239 32.5553 104.07 34.4845C104.137 32.017 103.895 29.2961 103.921 26.7466C104.005 18.5995 105.412 11.3674 110.783 4.97477C112.515 2.91323 115.517 1.62082 116.689 0.153013L116.809 0Z"/><path fill="#F67F36" d="M116.467 67.2205C181.31 63.1816 237.138 112.501 241.125 177.348C245.112 242.194 195.747 297.982 130.898 301.917C66.1218 305.848 10.4108 256.551 6.42811 191.778C2.44544 127.005 51.6975 71.2549 116.467 67.2205Z"/><path fill="#FDC363" d="M121.509 109.256C163.216 107.962 198.088 140.696 199.433 182.401C200.778 224.107 168.086 259.019 126.383 260.414C84.6071 261.812 49.6217 229.052 48.2746 187.275C46.9276 145.498 79.73 110.552 121.509 109.256Z"/><path fill="#FB8E3D" d="M85.118 160.732C85.1454 160.64 85.1727 160.547 85.2001 160.455L85.2502 160.311C86.532 156.514 94.986 148.986 98.4583 146.681C114.369 136.092 136.722 136.552 151.871 148.361C156.197 151.732 158.958 155.108 162.295 159.381C162.248 159.321 163.942 159.604 164.045 159.624C170.586 160.069 176.141 164.577 177.924 170.885C179.707 177.194 177.334 183.942 171.994 187.745C172.47 189.463 171.553 191.346 170.922 193.017C169.244 195.351 168.096 197.039 168.594 200.045L168.628 200.245C162.407 213.858 154.84 223.362 140.245 228.774C128.556 233.165 115.601 232.728 104.234 227.562C96.3453 223.953 89.6194 218.216 84.8116 210.996C83.381 208.818 81.9775 205.924 80.6395 203.982C79.5257 203.975 78.2534 204.217 76.8869 204.266C71.4716 204.458 61.2061 198.795 67.5057 192.831C69.9958 190.473 73.8664 190.611 77.2456 190.85C77.5131 189.104 76.4358 184.922 77.3615 182.472C75.2769 178.598 74.9308 174.022 76.4092 169.878C77.8875 165.735 81.0519 162.411 85.118 160.732Z"/><path fill="#2F0300" d="M85.118 160.732C92.8654 157.531 101.755 161.048 105.217 168.682C108.679 176.316 105.466 185.321 97.9538 189.039C90.4415 192.758 81.3335 189.854 77.3615 182.472C75.2769 178.598 74.9308 174.022 76.4092 169.878C77.8875 165.735 81.0519 162.411 85.118 160.732Z"/><path fill="#FEFDFD" d="M85.3253 165.133C87.8634 164.45 90.4773 165.942 91.1801 168.475C91.883 171.008 90.4118 173.633 87.8847 174.356C85.3292 175.087 82.6675 173.596 81.9568 171.035C81.246 168.473 82.7585 165.824 85.3253 165.133Z"/><path fill="#2F0300" d="M164.045 159.624C170.586 160.069 176.141 164.577 177.924 170.885C179.707 177.194 177.334 183.942 171.994 187.745C166.427 191.711 158.922 191.567 153.511 187.391C148.1 183.215 146.058 175.991 148.483 169.601C150.907 163.211 157.227 159.16 164.045 159.624Z"/><path fill="#FEFDFD" d="M157.409 165.083C159.956 164.477 162.521 166.011 163.192 168.542C163.863 171.072 162.394 173.676 159.882 174.411C158.199 174.903 156.381 174.443 155.134 173.211C153.887 171.978 153.406 170.166 153.879 168.477C154.352 166.789 155.703 165.489 157.409 165.083Z"/><path fill="#FC97A3" d="M80.6395 203.982C79.5257 203.975 78.2534 204.217 76.8869 204.266C71.4716 204.458 61.2061 198.795 67.5057 192.831C69.9958 190.473 73.8664 190.611 77.2456 190.85C85.0515 193.184 90.0134 199.258 80.6395 203.982Z"/><path fill="#2F0300" d="M112.048 187.472L112.23 187.51C116.709 188.474 113.743 193.45 118.348 194.314C124.199 195.411 121.898 187.477 126.815 188.364C127.769 188.536 128.09 188.924 128.478 189.772C129.581 192.178 132.354 196.228 135.403 194.123C136.15 193.606 137.62 191.904 137.648 190.992C137.739 187.993 140.396 186.186 142.65 188.749C143.523 189.739 143.341 190.447 143.226 191.748C140.7 200.302 132.963 202.416 126.157 196.796C116.526 206.309 104.075 191.177 112.048 187.472Z"/><path fill="#FC97A3" d="M170.922 193.017L171.144 192.974C172.579 192.678 174.019 192.001 175.406 191.512C178.676 190.316 182.833 190.432 185.829 192.238C188.189 193.66 189.026 197.076 187.22 199.21C182.154 205.192 174.129 205.767 168.628 200.245L168.594 200.045C168.096 197.039 169.244 195.351 170.922 193.017Z"/><path fill="#FEE3BD" d="M38.1775 123.828C38.3936 123.797 38.61 123.77 38.8268 123.745C42.8938 123.288 44.9961 126.188 44.014 130.041C42.7262 135.093 41.5927 140.192 40.361 145.258C39.1531 150.226 38.1915 153.875 32.3604 154.161C19.213 150.586 29.1377 127.913 38.1775 123.828Z"/><path fill="#FB8E3D" d="M206.661 235.902C207.145 235.976 207.135 236.022 207.474 236.359C207.513 237.51 203.625 244.254 202.556 245.529C199.035 249.73 195.042 253.955 190.788 257.441C189.309 258.654 186.953 259.876 185.296 260.98C177.54 266.149 169.674 270.179 160.674 272.74C155.995 274.071 152.218 274.582 147.445 275.151L146.868 274.868C147.01 273.587 153.939 271.653 155.313 271.161C159.659 269.625 163.935 267.898 168.13 265.987C184.808 258.369 194.382 248.974 206.661 235.902Z"/><path fill="#FB8E3D" d="M27.2869 189.147C27.3366 189.173 27.3889 189.194 27.4361 189.224C28.6401 189.994 29.8772 198.276 30.4095 200.413C34.4538 216.645 41.6039 232.374 52.7186 245.022C54.5002 247.049 62.3713 254.616 62.8052 256.556C59.6346 256.196 54.8869 251.737 52.6541 249.583C44.1543 241.381 37.8351 231.752 33.2172 220.9C29.7415 212.858 27.6448 204.288 27.0151 195.55C26.88 193.841 26.6551 190.718 27.2869 189.147Z"/><path fill="#FB8E3D" d="M55.3458 112.969C55.9614 113.083 56.2072 113.227 56.738 112.725C68.0711 102.004 88.4615 89.6056 104.652 90.6029C101.638 92.7279 93.305 95.2561 89.4455 96.7792C80.4624 100.345 72.0246 105.155 64.3792 111.068C61.3156 113.454 58.3864 116.007 55.605 118.716C54.3639 119.931 49.8804 124.871 48.4906 125.179C47.4636 123.206 53.1598 117.909 52.3137 116.156C52.5219 115.818 54.8261 113.601 55.3458 112.969Z"/><path fill="#FB8E3D" d="M166.466 96.7272C167.482 96.7817 168.692 97.1867 169.67 97.5235C187.392 103.626 203.105 117.074 212.234 133.42C213.445 135.588 214.945 138.69 215.222 141.125C213.469 140.733 203.809 126.93 201.401 124.294C194.502 116.739 187.825 110.858 179.09 105.411C176.771 103.965 166.904 98.5038 166.466 96.7272Z"/><path fill="#FEE3BD" d="M52.3137 116.156C41.7641 120.131 46.6308 101.39 53.8461 103.771C57.8446 105.09 56.678 109.882 55.3458 112.969C54.8261 113.601 52.5219 115.818 52.3137 116.156Z"/><path fill="#8ECE4E" d="M118.919 61.7619C112.114 49.4203 107.594 30.6594 110.969 16.8851C114.071 4.2283 128.224 0.160668 134.266 13.0333C140.495 26.3042 134.07 49.1016 127.513 61.6709C126.25 61.6242 124.821 61.5373 123.571 61.549L121.506 61.5571L118.919 61.7619Z"/><path fill="#68A83B" d="M121.506 61.5571C121.461 57.7343 120.929 34.1659 122.326 32.454C122.654 33.3985 122.548 40.7539 122.484 42.2167C122.187 49.0755 123.044 54.8662 123.571 61.549L121.506 61.5571Z"/><path fill="#F1FAB1" d="M116.54 17.7072C121.607 19.0836 118.641 26.8609 115.972 29.3846C111.605 28.94 113.273 21.2891 114.985 19.0532C115.387 18.5292 116.006 18.0872 116.54 17.7072Z"/><path fill="#8ECE4E" d="M136.092 56.7506C138.998 49.3051 138.566 43.075 145.401 38.0862C149.321 35.2252 153.48 31.7198 158.912 33.0813C163.222 34.5282 162.001 41.2651 160.553 44.3128C156.946 51.9082 149.808 58.5488 142.9 63.0015C140.911 62.6175 139.341 62.4706 137.316 62.2862C136.287 62.271 134.822 62.0743 133.766 61.9646C134.59 60.2198 135.164 58.5228 136.092 56.7506Z"/><path fill="#68A83B" d="M136.092 56.7506C136.719 56.8443 136.957 56.994 137.527 56.4966C139.955 54.3768 142.498 52.0671 144.645 49.6869C145.974 48.2132 147.086 46.6022 148.551 45.3804C146.153 49.5033 142.499 53.5225 140.134 57.8076C139.327 59.2709 137.993 60.7185 137.316 62.2862C136.287 62.271 134.822 62.0743 133.766 61.9646C134.59 60.2198 135.164 58.5228 136.092 56.7506Z"/><path fill="#8ECE4E" d="M101.648 63.5843C95.5972 59.2821 88.5824 53.2458 85.5492 46.2725C84.4821 43.819 83.52 40.291 84.5892 37.7336C85.0869 36.5304 86.0518 35.5811 87.2629 35.1031C93.5224 32.5741 104.705 41.8033 107.175 47.2578C108.39 49.9391 109.104 54.1866 110.355 57.3295C111.007 58.8429 111.751 60.7083 112.459 62.1644C111.48 62.2278 110.099 62.2749 109.16 62.4132C106.625 62.5665 104.11 62.9586 101.648 63.5843Z"/><path fill="#68A83B" d="M95.8836 45.468C98.5905 47.1046 109.419 58.0404 109.667 58.1113L110.355 57.3295C111.007 58.8429 111.751 60.7083 112.459 62.1644C111.48 62.2278 110.099 62.2749 109.16 62.4132C109.18 60.5872 97.6834 47.53 95.8836 45.468Z"/><path fill="#F1FAB1" d="M88.5462 41.6341C90.6563 41.9513 92.3299 45.2715 92.003 47.242C91.8398 48.2257 91.4406 48.3425 90.7448 48.8956C87.6119 48.5512 86.2793 44.2545 88.5462 41.6341Z"/></svg>