<?xml version="1.0" encoding="utf-8" ?><svg xmlns="http://www.w3.org/2000/svg" xmlns:xlink="http://www.w3.org/1999/xlink" width="265" height="291" viewBox="0 0 265 291"><path fill="#2F0702" d="M131.605 0L141.203 0C148.702 5.11147 162.441 11.6311 151.819 22.611C149.982 24.51 149.027 25.8319 147.659 28.0724C149.736 28.238 155.043 29.7033 157.647 30.2115C187.63 35.8495 214.811 51.4996 234.74 74.5998C250.285 92.8118 260.222 115.574 264.001 139.063C264.105 139.711 264.517 140.159 265 140.561L265 177.039C263.396 179.332 261.738 190.868 260.532 194.957C255.582 211.728 248.538 226.211 238.063 240.223C236.655 242.107 232.203 247.854 230.445 249.092C229.704 251.216 226.006 254.988 224.062 255.927C223.831 256.039 223.593 256.139 223.351 256.225C220.309 259.48 216.912 261.997 213.345 264.624C200.261 274.367 185.584 281.763 169.969 286.482C166.773 287.465 154.996 289.444 153.366 290.832C153.299 290.889 153.231 290.944 153.163 291L111.99 291C111.618 290.688 110.962 290.211 110.486 290.126C87.3548 286.017 65.5171 276.491 47.2798 261.586C45.4833 260.118 43.6188 258.731 41.8918 257.147C26.5902 243 14.7909 225.486 7.42775 205.99C5.28075 200.436 3.86043 194.456 2.35106 188.702C1.80126 186.606 1.34071 181.522 0 180.162L0 138.008C1.14446 136.674 2.11272 130.86 2.58605 128.81C15.1531 74.3859 62.0559 33.7015 118.328 28.7255C118.467 26.9968 119.252 24.1573 119.723 22.4806C122.051 14.2002 125.65 6.31948 131.605 0Z"/><path fill="#8999AC" d="M223.351 256.225C224.458 254.623 228.847 250.354 230.445 249.092C229.704 251.216 226.006 254.988 224.062 255.927C223.831 256.039 223.593 256.139 223.351 256.225Z"/><path fill="#C82C46" d="M151.089 37.7047C155.255 37.9505 159.21 38.9816 163.243 40.0148C180.634 44.3349 196.849 52.4637 210.716 63.8142C232.165 79.7249 247.212 104.712 253.47 130.501C270.516 200.744 222.667 271.43 150.993 281.914C130.597 284.952 109.767 282.961 90.3153 276.113C86.4178 274.763 79.6832 272.111 76.1993 269.965C59.6113 262.458 41.1129 246.242 30.7115 231.481C29.0694 229.15 26.4489 225.696 25.179 223.22C20.4157 216.036 15.1689 202.578 12.6522 194.364C3.53461 163.596 6.79526 130.483 21.7391 102.085C37.0749 73.0903 63.4127 51.4699 94.8394 42.0774C96.6342 44.4906 100.041 47.2514 102.378 49.293L100.902 51.7122C99.6667 55.8556 98.2385 58.8058 97.673 63.1658C98.1427 64.4407 98.7308 66.2145 100.096 66.7368C105.465 68.791 116.138 62.6713 121.302 63.2198C125.977 63.7164 134.359 70.7535 138.905 71.7985C144.74 70.5649 146.322 66.5868 147.968 61.3048C153.66 57.4565 157.64 57.7565 162.687 55.2328C163.932 53.491 164.629 51.9848 164.182 49.7647C162.837 43.0825 156.633 40.2543 151.089 37.7047Z"/><path fill="#A71D3C" d="M210.716 63.8142C232.165 79.7249 247.212 104.712 253.47 130.501C270.516 200.744 222.667 271.43 150.993 281.914C130.597 284.952 109.767 282.961 90.3153 276.113C86.4178 274.763 79.6832 272.111 76.1993 269.965C76.6346 269.793 77.4666 269.502 77.921 269.594C129.505 280.142 186.967 256.412 216.784 213.06C231.133 192.199 241.963 165.357 241.516 139.706C241.436 136.31 241.625 132.9 241.154 129.515C238.466 110.177 230.715 91.9391 219.589 75.9719C217.092 72.3877 213.704 69.0965 211.068 65.5895C210.478 64.8047 210.65 64.719 210.716 63.8142Z"/><path fill="#EB5667" d="M25.179 223.22C20.4157 216.036 15.1689 202.578 12.6522 194.364C3.53461 163.596 6.79526 130.483 21.7391 102.085C37.0749 73.0903 63.4127 51.4699 94.8394 42.0774C96.6342 44.4906 100.041 47.2514 102.378 49.293L100.902 51.7122C88.5287 57.4117 77.4382 64.0777 67.4358 73.3787C66.829 73.9429 63.3644 77.052 63.0318 77.5312C51.3791 74.2911 38.4108 97.1617 35.7914 106.396C34.7731 109.986 34.6197 113.046 37.6837 115.456C37.211 117.336 34.2558 121.706 33.4175 123.762C33.3943 123.819 33.6161 124.227 33.7614 124.342C26.4698 124.918 24.4843 135.437 28.3093 139.804C26.9088 144.262 26.08 148.739 25.1125 153.3C20.6781 174.203 19.7845 196.023 24.4502 216.97C24.7305 218.228 25.8295 222.37 25.179 223.22Z"/><path fill="#FEC6C9" d="M37.6837 115.456C34.6197 113.046 34.7731 109.986 35.7914 106.396C38.4108 97.1617 51.3791 74.2911 63.0318 77.5312C66.9705 79.9793 67.2575 83.7369 64.7209 87.3711C62.1463 91.0598 59.1756 94.3503 56.5768 98.0162C52.86 103.169 49.8041 108.784 45.6443 113.585C43.5321 116.023 40.6844 116.758 37.6837 115.456Z"/><path fill="#FEC6C9" d="M28.3093 139.804C24.4843 135.437 26.4698 124.918 33.7614 124.342C42.9931 125.753 38.0342 143.761 28.3093 139.804Z"/><path fill="#2F0702" d="M173.578 135.707C182.575 135.128 190.334 141.961 190.897 150.958C191.461 159.956 184.615 167.704 175.617 168.252C166.64 168.799 158.915 161.973 158.353 152.997C157.791 144.021 164.603 136.285 173.578 135.707Z"/><path fill="#2F0702" d="M89.3393 135.678C98.3061 135.057 106.081 141.818 106.71 150.784C107.339 159.75 100.584 167.53 91.6184 168.167C82.6422 168.804 74.8508 162.04 74.2211 153.063C73.5914 144.086 80.3621 136.3 89.3393 135.678Z"/><path fill="#2F0702" d="M131.845 165.432C134.38 165.522 138.983 171.394 142.386 172.056C145.186 172.601 146.76 173.402 149.686 171.931C151.638 170.949 153.608 168.539 155.682 169.393C159.624 173.525 151.022 176.833 147.737 177.258C146.957 185.766 142.348 191.595 133.563 192.395C130.467 192.804 126.589 191.7 124.096 189.862C119.417 186.412 118.276 182.611 117.394 177.306C115.066 176.618 107.231 174.392 109.455 170.13C109.663 169.731 111.06 168.865 111.526 168.567C113.703 170.515 116.082 172.507 119.157 172.599C125.23 172.781 128.102 168.776 131.845 165.432Z"/><path fill="#FEC6C9" d="M132.336 171.638C133.323 171.751 135.358 174.152 136.696 174.791C138.978 175.881 140.786 176.451 143.217 177.037C142.419 183.437 139.679 187.412 132.806 187.595C131.527 188.071 128.477 187.309 127.325 186.574C123.717 184.271 122.684 181.137 121.74 177.223C126.542 176.151 128.658 174.969 132.336 171.638Z"/><path fill="#FC9099" d="M198.195 165.341C210.659 163.539 212.269 178.642 198.9 181.489C196.077 181.606 194.017 181.695 191.558 180.016C188.194 177.718 187.324 173.094 189.854 169.832C192.042 167.012 194.756 165.837 198.195 165.341Z"/><path fill="#FC9099" d="M66.2717 166.787C81.1457 166.166 84.2179 181.21 72.5656 182.873C72.493 182.902 72.1522 183.037 72.0725 183.042C66.0838 183.419 60.9423 179.889 59.4014 174.114C60.3999 169.638 61.7436 167.861 66.2717 166.787Z"/><path fill="#356935" d="M122.345 46.1348C122.346 40.4085 123.468 31.4853 125.377 26.1697C127.39 20.5672 131.023 9.21194 136.482 6.4579C138.826 6.24139 147.379 12.3037 148.275 14.4778C148.233 15.2965 147.581 16.0387 147.094 16.7303C146.236 17.8458 143.407 21.722 142.596 22.5686C139.883 27.3425 136.394 33.9596 134.762 39.1656C134.125 41.1965 134.003 43.5509 133.369 45.7354C131.845 46.7171 124.554 46.2344 122.345 46.1348Z"/><path fill="#3D4F34" d="M142.596 22.5686C141.953 21.0054 141.713 21.2623 140.161 20.8184L140.06 20.3935L140.381 19.9997C141.528 20.0692 141.108 20.7978 142.39 21.1441L142.794 20.8791C142.816 20.1399 141.792 19.7231 140.993 18.4398L141.152 18.2336L142.788 18.5988C144.169 17.6571 142.286 15.9437 144.376 15.0108C145.17 15.0868 146.385 16.1863 147.094 16.7303C146.236 17.8458 143.407 21.722 142.596 22.5686Z"/><path fill="#90C14E" d="M109.863 36.7228C111.832 36.3096 115.421 36.4365 117.516 36.4741C117.512 38.9368 117.522 41.3994 117.546 43.8619C116.154 43.0304 114.472 41.9549 112.816 41.9568L112.364 42.3279C112.972 47.4538 122.001 49.9831 126.359 50.4447C129.004 50.436 131.851 50.4816 134.477 50.2307C136.841 50.0049 142.175 48.3258 144.242 48.5467C144.494 52.4795 144.31 51.1864 146.542 53.6349L146.949 53.6885C144.163 55.2225 143.261 55.3066 141.704 58.0361L141.427 58.966C140.986 60.4317 140.269 63.5877 138.986 64.2775C136.178 64.3816 127.399 55.9298 121.514 56.4297C115.371 56.9515 110.78 57.869 105.048 60.3271C105.87 56.1511 108.953 51.8534 108.532 47.9453C108.2 44.8693 103.469 41.1163 101.019 39.3096C103.842 38.0679 106.815 37.1983 109.863 36.7228Z"/><path fill="#71A33D" d="M110.639 42.1987C110.903 42.8767 110.967 43.1733 111.546 43.6452C112.203 43.2806 112.06 43.1918 112.364 42.3279C112.972 47.4538 122.001 49.9831 126.359 50.4447C129.004 50.436 131.851 50.4816 134.477 50.2307C136.841 50.0049 142.175 48.3258 144.242 48.5467C144.494 52.4795 144.31 51.1864 146.542 53.6349L146.949 53.6885C144.163 55.2225 143.261 55.3066 141.704 58.0361C140.038 55.9663 134.131 51.6748 131.501 51.7805C131.679 52.4492 131.747 52.2777 131.494 52.7303C130.458 52.8175 128.377 52.9866 127.374 52.5993C127.071 52.4826 127.089 52.1842 126.974 51.7733C126.317 51.5732 126.53 51.5347 125.976 51.7298L125.796 52.2522C119.098 55.3181 118.435 54.4168 113.047 49.4946C111.563 48.1379 109.76 46.707 109.316 44.6398C109.424 43.8797 110.185 42.8879 110.639 42.1987Z"/><path fill="#71A33D" d="M109.863 36.7228C111.832 36.3096 115.421 36.4365 117.516 36.4741C117.512 38.9368 117.522 41.3994 117.546 43.8619C116.154 43.0304 114.472 41.9549 112.816 41.9568L113.161 41.5969C112.877 41.3044 112.849 41.2877 112.643 40.9385L113.314 40.8019L113.463 40.3896C114.477 39.2391 116.307 38.5785 116.862 37.0565C116.261 36.6886 111.014 36.7651 109.863 36.7228Z"/><path fill="#84B443" d="M110.639 42.1987C111.226 41.2454 112.314 40.2191 113.463 40.3896L113.314 40.8019L112.643 40.9385C112.849 41.2877 112.877 41.3044 113.161 41.5969L112.816 41.9568L112.364 42.3279C112.06 43.1918 112.203 43.2806 111.546 43.6452C110.967 43.1733 110.903 42.8767 110.639 42.1987Z"/><path fill="#90C14E" d="M147.499 43.5677C151.935 45.6334 154.333 46.3821 157.678 50.0708C154.777 50.5459 149.563 52.299 146.949 53.6885L146.542 53.6349C144.31 51.1864 144.494 52.4795 144.242 48.5467C146.312 48.0655 148.138 47.0584 146.657 44.7367C147.044 44.525 147.272 43.976 147.499 43.5677Z"/><path fill="#71A33D" d="M146.657 44.7367C143.432 43.5855 139.88 45.2925 138.832 44.6222C138.636 43.2613 139.04 41.0451 140.533 40.7156C142.425 40.2981 145.917 42.619 147.499 43.5677C147.272 43.976 147.044 44.525 146.657 44.7367Z"/></svg>