<?xml version="1.0" encoding="utf-8" ?><svg xmlns="http://www.w3.org/2000/svg" xmlns:xlink="http://www.w3.org/1999/xlink" width="301" height="324" viewBox="0 0 301 324"><path fill="#36150D" d="M157.536 0L199.488 0C200.334 0.855151 200.894 0.882348 202.031 1.12949C221.146 5.28393 240.083 13.8756 254.815 27.0595C256.812 28.0224 260.151 31.4183 261.636 33.1983C265.298 36.2385 268.321 40.082 271.223 43.8215C282.43 58.041 290.585 74.4185 295.179 91.9314C297.516 100.992 299.128 109.813 300.18 119.081C300.255 119.739 300.558 119.947 301 120.349L301 165.289C299.601 167.37 299.555 173.154 299.268 175.886C298.789 180.133 298.172 184.363 297.417 188.569C292.235 217.677 282.712 250.71 263.149 273.519C261.471 275.476 257.388 280.703 255.438 282.025C253.59 283.926 250.781 287.104 248.549 288.219C237.209 299.197 218.043 309.435 203.18 314.871C194.112 318.133 184.777 320.598 175.281 322.237C173.329 322.581 169.632 322.722 168.676 324L126.6 324C125.502 322.798 118.035 322.253 115.664 321.622C110.454 320.237 105.17 319.243 99.9786 317.619C78.4029 311.05 58.4938 299.915 41.6041 284.969C23.4341 268.452 10.3643 247.085 3.93496 223.387C2.82994 219.187 1.58714 213.913 1.2654 209.622C1.14424 208.007 1.18598 206.5 0 205.45L0 176.549C0.38349 176.301 0.80932 176.021 0.90019 175.56C1.42533 172.893 1.59707 170.077 2.14249 167.415C3.63482 160.039 5.69563 152.789 8.30646 145.731C18.8846 117.014 38.1992 85.6375 57.7865 62.2003C76.8022 39.4469 101.795 19.8116 129.373 8.55415C135.677 6.05001 142.147 3.98647 148.737 2.37841C151.366 1.74882 154.079 1.41736 156.688 0.757907C156.947 0.692486 157.305 0.237414 157.536 0Z"/><path fill="#512F20" d="M254.815 27.0595C256.812 28.0224 260.151 31.4183 261.636 33.1983C260.332 33.1577 255.658 28.2598 254.815 27.0595Z"/><path fill="#512F20" d="M248.549 288.219C249.368 286.902 254.011 282.321 255.438 282.025C253.59 283.926 250.781 287.104 248.549 288.219Z"/><path fill="#D9A754" d="M21.6585 245.721C18.0731 239.453 14.406 229.475 12.4511 222.51C0.628979 181.778 14.7251 145.168 34.9209 110.001C64.4695 58.5477 111.652 9.94093 174.575 7.30044C196.259 6.39052 214.8 11.5342 233.57 22.1422C236.539 23.5254 240.015 26.2204 242.71 28.1362C259.442 40.0285 274.651 59.6065 281.905 78.9893C300.693 124.243 293.743 192.01 275.413 236.319C262.469 267.407 237.642 292.037 206.452 304.735C168.666 320.408 126.196 320.399 88.4166 304.711C74.3673 298.907 61.3662 290.836 49.9319 280.82C48.655 279.688 45.4098 276.82 44.45 275.674C37.3517 269.377 25.8099 254.226 21.6585 245.721Z"/><path fill="#C48338" d="M281.905 78.9893C300.693 124.243 293.743 192.01 275.413 236.319C262.469 267.407 237.642 292.037 206.452 304.735C168.666 320.408 126.196 320.399 88.4166 304.711C74.3673 298.907 61.3662 290.836 49.9319 280.82C48.655 279.688 45.4098 276.82 44.45 275.674C44.6698 275.597 44.9349 275.505 45.2455 275.396C49.47 276.735 54.9413 279.408 59.0073 280.832C75.8517 286.73 92.6186 291.427 110.447 292.999C111.385 293.082 115.637 293.657 116.172 293.326C119.137 297.213 123.517 294.663 127.05 292.899C128.936 294.155 138.333 292.852 140.984 292.543C166.103 289.548 189.891 279.61 209.675 263.845C218.784 256.692 227.127 248.614 234.57 239.74C235.282 238.895 237.845 235.893 237.958 234.904L237.556 234.581C240.568 232.654 243.344 230.577 245.788 227.953C248.121 225.447 253.856 218.879 251.622 215.331C252.466 214.243 254.812 209.181 255.503 207.745C259.948 198.334 263.616 188.576 266.472 178.568C267.776 174.08 269.164 167.487 270.746 163.32C266.521 161.741 261.161 159.395 257.709 156.509C256.28 155.315 252.855 151.679 252.705 149.878C254.001 147.675 258.405 149.192 260.286 148.313C260.705 146.857 261.482 146.431 262.722 145.622C267.334 142.612 271.866 143.441 274.882 147.941C275.189 144.301 276.663 137.16 277.316 133.249C278.798 124.562 279.934 115.819 280.72 107.042C281.115 101.951 281.376 96.8509 281.503 91.7467C281.569 89.29 281.32 80.6543 281.905 78.9893Z"/><path fill="#B1702F" d="M189.884 290.84C192.813 290.549 194.097 290.819 196.687 292.093C201.351 300.33 191.812 305.598 185.05 307.204C184.451 307.272 183.387 307.495 182.758 307.608C169.402 302.429 181.361 291.77 189.884 290.84Z"/><path fill="#B1702F" d="M222.874 266.76C225.715 266.618 227.555 267.768 229.203 269.99L229.249 273.353C227.881 274.838 226.827 275.988 225.089 277.038C222.88 277.001 219.882 275.284 219.054 273.118C218.622 272.01 218.658 270.774 219.154 269.693C219.945 267.991 221.211 267.348 222.874 266.76Z"/><path fill="#36150D" d="M260.531 148.562C261.382 148.748 266.354 153.456 269.15 154.774C274.38 157.239 278.001 157.154 283.098 158.8L283.286 159.225L282.852 159.804C274.296 162.404 262.131 158.358 260.531 148.562Z"/><path fill="#FEE1A9" d="M21.6585 245.721C18.0731 239.453 14.406 229.475 12.4511 222.51C0.628979 181.778 14.7251 145.168 34.9209 110.001C64.4695 58.5477 111.652 9.94093 174.575 7.30044C196.259 6.39052 214.8 11.5342 233.57 22.1422C231.871 22.8691 228.869 21.1801 226.957 20.7161C220.169 19.0692 213.551 17.2417 206.586 16.4434C186.303 14.0987 165.753 16.2464 146.394 22.7344C142.998 23.8869 138.664 25.2677 135.673 27.1386C134.209 24.8598 130.021 18.2244 126.761 20.5813C123.766 22.7468 122.1 29.3343 121.429 32.8456C121.339 33.3092 121.254 33.774 121.176 34.2397C116.513 36.0525 113.437 38.6313 109.44 41.3111C95.818 50.444 83.6982 61.7678 73.1265 74.2775C71.3124 76.4242 68.0503 80.3627 66.7128 82.6463C63.9007 83.701 62.7378 84.8794 62.4273 87.9832C62.3076 89.1912 55.3951 98.4758 54.0075 100.663C50.8767 105.669 47.8675 110.75 44.9825 115.902C43.2079 119.124 42.5117 120.156 40.6313 123.08C39.5664 122.681 37.6518 122.394 36.5131 122.388C35.1367 122.912 32.3259 123.166 30.7519 123.484C33.7327 126.026 34.8074 126.802 38.2819 128.567C35.0966 133.916 32.016 141.8 29.5439 147.594C17.6673 175.435 12.3476 206.172 19.4469 235.991C19.9525 238.115 22.3877 244.242 21.6585 245.721Z"/><path fill="#36150D" d="M237.556 234.581C233.096 237.015 228.215 238.82 223.073 238.815C213.46 238.806 208.848 235.433 215.436 226.269C221.783 217.44 231.331 213.238 242.107 213.426C245.094 213.479 249.159 213.537 251.622 215.331C253.856 218.879 248.121 225.447 245.788 227.953C243.344 230.577 240.568 232.654 237.556 234.581Z"/><path fill="#6FBB45" d="M220.725 226.434C222.442 224.562 224.08 223.256 226.239 221.895C232.599 217.848 240.307 216.498 247.663 218.144L246.103 220.52C240.551 229.619 227.383 237.831 216.627 233.637C217.523 231.522 219.002 227.915 220.725 226.434Z"/><path fill="#9BDC67" d="M220.725 226.434C222.442 224.562 224.08 223.256 226.239 221.895C232.599 217.848 240.307 216.498 247.663 218.144L246.103 220.52C244.033 220.915 242.679 221.749 240.803 222.116C237.789 222.707 234.438 223.144 231.43 223.684C229.351 224.057 221.93 226.591 220.725 226.434Z"/><path fill="#36150D" d="M121.176 34.2397C121.254 33.774 121.339 33.3092 121.429 32.8456C122.1 29.3343 123.766 22.7468 126.761 20.5813C130.021 18.2244 134.209 24.8598 135.673 27.1386C136.409 28.5698 138.205 32.176 138.58 33.6972C140.541 40.4817 140.209 46.3479 137.085 52.7638C133.79 56.6395 131.892 59.6871 127.093 54.3211C121.765 48.362 120.81 41.978 121.176 34.2397Z"/><path fill="#6FBB45" d="M128.467 24.2529C129.687 25.5211 130.198 26.2994 131.176 27.7299C134.361 31.3487 136.196 38.5107 135.748 43.313C135.388 47.1728 134 50.014 131.85 53.0878C130.229 51.614 128.079 49.617 127.343 47.5121C127.05 47.0038 126.591 46.0366 126.427 45.482C123.957 37.1181 125.07 31.7079 128.467 24.2529Z"/><path fill="#9BDC67" d="M128.467 24.2529C129.687 25.5211 130.198 26.2994 131.176 27.7299C130.15 30.6819 128.805 31.8171 128.281 35.5199C127.961 37.7798 128.051 46.2837 127.343 47.5121C127.05 47.0038 126.591 46.0366 126.427 45.482C123.957 37.1181 125.07 31.7079 128.467 24.2529Z"/><path fill="#FEE1A9" d="M138.58 33.6972C139.253 33.0124 140.442 32.53 141.321 32.0972C146.014 29.7859 150.671 28.5286 155.888 28.3867C167.366 28.0744 168.286 36.2267 160.753 43.3045C154.739 48.9552 146.003 52.8267 137.657 52.9183C137.418 52.9177 137.285 52.8618 137.085 52.7638C140.209 46.3479 140.541 40.4817 138.58 33.6972Z"/><path fill="#36150D" d="M116.172 293.326C112.41 280.715 123.53 265.994 136.285 264.659C137.404 264.541 138.282 266.201 138.414 267.184C139.706 276.838 135.468 287.673 127.05 292.899C123.517 294.663 119.137 297.213 116.172 293.326Z"/><path fill="#6FBB45" d="M120.322 282.766C120.491 282.371 120.662 281.978 120.836 281.586C123.65 275.271 128.348 271.145 134.773 268.685C134.64 269.987 134.582 271.412 134.503 272.728C133.462 281.878 128.945 289.113 119.657 291.699C119.319 288.989 119.1 285.27 120.322 282.766Z"/><path fill="#9BDC67" d="M120.322 282.766C120.491 282.371 120.662 281.978 120.836 281.586C123.65 275.271 128.348 271.145 134.773 268.685C134.64 269.987 134.582 271.412 134.503 272.728C133.672 273.391 132.07 273.169 131.198 273.955C128.623 276.275 125.999 278.554 123.47 280.924C122.498 281.835 121.727 283.089 120.322 282.766Z"/><path fill="#C48338" d="M44.9825 115.902C47.1127 115.978 48.2318 114.219 49.5763 114.001C56.4889 112.88 59.1852 115.149 60.7357 121.348C60.7735 121.499 66.7267 124.536 68.5166 126.167C61.1864 130.798 52.314 132.321 43.8591 130.399C41.8277 129.942 40.2214 129.319 38.2819 128.567C34.8074 126.802 33.7327 126.026 30.7519 123.484C32.3259 123.166 35.1367 122.912 36.5131 122.388C37.6518 122.394 39.5664 122.681 40.6313 123.08C42.5117 120.156 43.2079 119.124 44.9825 115.902Z"/><path fill="#36150D" d="M40.6313 123.08C44.1728 124.158 49.5279 124.152 53.1992 123.475C54.686 123.201 59.1725 121.251 59.9795 122.503C59.6714 123.555 58.655 124.343 57.7996 124.975C51.9877 129.265 40.8097 128.478 36.5131 122.388C37.6518 122.394 39.5664 122.681 40.6313 123.08Z"/><path fill="#36150D" d="M66.7128 82.6463C69.4658 82.7777 70.5334 83.0099 72.6791 85.0882C76.1662 88.4658 75.5214 96.577 69.4837 96.1867C65.4911 95.9286 62.6682 91.9782 62.4273 87.9832C62.7378 84.8794 63.9007 83.701 66.7128 82.6463Z"/><path fill="#E34632" d="M67.2429 85.9319C67.8021 86.0779 69.177 86.7519 69.7751 87.0262C70.5914 88.4207 71.8027 90.0418 71.4981 91.6235C70.8876 92.4867 71.2138 92.2005 70.1935 92.6664C68.4661 92.5997 67.0494 91.661 66.1542 90.2343C64.781 88.0462 65.516 87.0306 67.2429 85.9319Z"/><path fill="#36150D" d="M123.14 143.257C126.727 142.869 128.446 147.876 132.747 149.011C138.69 150.579 141.049 149.386 146.231 146.916C147.681 148.762 149.102 150.659 150.967 152.114C158.777 158.205 166.556 152.194 169.182 153.853C169.566 154.096 169.853 154.424 169.914 154.894C170.095 156.3 168.567 156.968 168.113 158.113C167.661 159.254 167.46 160.644 167.146 161.846C166.301 165.079 165.216 167.868 163.431 170.695C163.014 171.25 162.57 171.784 162.103 172.297C157.58 177.218 153.245 179.471 146.581 179.824C133.213 180.531 121.412 171.299 120.983 157.524C120.837 152.825 122.368 148.959 122.36 144.294C122.36 144.104 123 143.407 123.14 143.257Z"/><path fill="#912926" d="M125.881 150.357C131.966 153.51 138.111 156.19 144.81 152.447C150.827 158.194 154.35 160.141 163.023 159.144C164.162 161.183 160.191 167.733 158.676 169.192C150.528 178.681 135.428 176.944 128.592 167.103C125.993 163.124 124.972 159.266 125.352 154.486C125.466 153.056 125.828 151.827 125.881 150.357Z"/><path fill="#F3727B" d="M128.592 167.103C138.008 161.215 150.314 161.642 158.676 169.192C150.528 178.681 135.428 176.944 128.592 167.103Z"/><path fill="#36150D" d="M100.086 108.335C109.037 107.124 117.286 113.369 118.549 122.313C119.811 131.257 113.613 139.542 104.676 140.856C95.6669 142.18 87.3004 135.92 86.0277 126.904C84.7549 117.887 91.062 109.556 100.086 108.335Z"/><path fill="#FEFEFD" d="M97.4299 112.142C100.333 111.232 103.423 112.857 104.318 115.765C105.213 118.673 103.572 121.754 100.66 122.635C97.768 123.509 94.7136 121.882 93.825 118.995C92.9363 116.108 94.5474 113.045 97.4299 112.142Z"/><path fill="#FEFEFD" d="M107.065 132.152C107.908 131.796 108.876 131.92 109.602 132.476C110.327 133.033 110.698 133.936 110.573 134.842C110.447 135.748 109.845 136.516 108.995 136.855C107.701 137.37 106.232 136.747 105.703 135.458C105.174 134.169 105.782 132.694 107.065 132.152Z"/><path fill="#36150D" d="M193.915 131.793C202.809 130.152 211.339 136.061 212.929 144.963C214.52 153.866 208.562 162.362 199.651 163.902C190.811 165.429 182.397 159.53 180.82 150.699C179.242 141.868 185.093 133.421 193.915 131.793Z"/><path fill="#FEFEFD" d="M191.653 135.69C192.862 135.211 194.204 135.194 195.424 135.641C197.47 136.392 198.845 138.32 198.889 140.498C198.933 142.677 197.636 144.659 195.623 145.491C192.91 146.612 189.804 145.309 188.703 142.589C187.601 139.869 188.926 136.773 191.653 135.69Z"/><path fill="#FEFEFD" d="M201.707 155.121C202.582 154.785 203.57 154.953 204.285 155.56C205 156.166 205.327 157.113 205.139 158.031C204.951 158.949 204.277 159.691 203.382 159.968C202.06 160.376 200.652 159.662 200.201 158.354C199.749 157.046 200.415 155.616 201.707 155.121Z"/><path fill="#36150D" d="M45.4936 180.431C48.6738 180.3 52.5865 183.762 54.8044 185.875C61.1579 191.93 65.5833 200.624 64.2998 209.578C63.8755 212.537 62.8954 215.231 60.7971 217.406C56.5041 218.881 51.2081 213.772 48.6001 210.753C42.8153 204.059 40.9407 194.902 42.5845 186.318C43.0468 183.903 43.5881 182.03 45.4936 180.431Z"/><path fill="#6FBB45" d="M51.8754 208.04C51.5335 207.655 51.2073 207.257 50.8977 206.847C46 200.364 45.641 194.556 46.554 186.626C46.6339 185.931 46.7437 185.626 47.2284 185.278C48.1129 185.575 49.5209 186.78 50.3178 187.4C58.2729 192.909 62.7739 204.57 59.0061 213.793C56.4468 212.243 53.6628 210.515 51.8754 208.04Z"/><path fill="#9BDC67" d="M51.8754 208.04C51.5335 207.655 51.2073 207.257 50.8977 206.847C46 200.364 45.641 194.556 46.554 186.626C46.6339 185.931 46.7437 185.626 47.2284 185.278C48.1129 185.575 49.5209 186.78 50.3178 187.4C49.4553 190.455 51.0482 198.946 51.29 202.518C51.3976 204.107 52.2755 206.378 51.8754 208.04Z"/><path fill="#36150D" d="M223.059 54.2604C226.128 53.9096 227.113 56.1238 227.951 58.7253C231.501 69.7532 227.872 85.2001 215.584 88.9143C208.584 88.9289 209.067 75.0356 210.429 70.2698C212.342 63.4656 216.887 57.7042 223.059 54.2604Z"/><path fill="#6FBB45" d="M223.51 58.4673L224.441 61.3013C226.611 70.0967 223.976 80.4632 215.528 84.9946C213.517 81.3709 213.059 78.3775 213.683 74.2181C215.502 66.0543 217.178 63.9229 223.51 58.4673Z"/><path fill="#9BDC67" d="M223.51 58.4673L224.441 61.3013C220.188 64.8707 218.406 70.1409 215.221 74.626C214.662 75.4134 214.696 76.6593 213.891 77.1836C213.639 76.2123 213.689 75.2248 213.683 74.2181C215.502 66.0543 217.178 63.9229 223.51 58.4673Z"/><path fill="#FEE1A9" d="M112.99 50.5797C119.337 50.3379 123.07 53.4689 119.721 59.8445C116.693 65.6086 109.392 71.5909 103.186 73.6338C87.0745 76.9607 97.9909 54.0092 112.99 50.5797Z"/><path fill="#C48338" d="M45.5487 159.235C46.4883 159.567 47.8187 160.591 48.7594 161.114C55.7274 164.941 63.8487 170.132 70.0865 174.977C75.4475 179.141 91.2261 194.928 93.0309 200.99C90.5736 200.402 85.5158 196.815 83.4414 195.324C70.8895 186.406 59.5011 175.955 49.541 164.213C48.5468 163.04 46.1319 160.39 45.5487 159.235Z"/><path fill="#C48338" d="M205.767 245.359C208.853 245.017 214.635 245.309 217.713 245.549C213.885 246.959 210.641 248.534 206.497 249.908C194.079 254.027 181.357 256.33 168.384 257.852C164.402 258.302 160.497 258.445 156.418 258.929C165.74 254.271 177.436 249.217 187.622 247.157C192.816 246.107 200.446 245.637 205.767 245.359Z"/><path fill="#F3727B" d="M201.071 168.049C208.957 167.355 214.708 169.601 218.205 176.964C218.001 177.416 217.789 177.864 217.57 178.309C216.041 181.395 214.459 181.881 211.414 182.902C207.524 183.346 204.046 182.53 200.526 180.923C196.509 179.089 191.293 173.645 196.444 169.887C197.92 168.81 199.341 168.528 201.071 168.049Z"/><path fill="#F3727B" d="M74.2043 137.816C80.544 137.293 87.3878 137.966 91.4559 143.634C92.2488 144.738 92.5571 146.235 92.903 147.547C91.399 150.476 91.1554 150.596 88.1952 152.058C81.4896 153.149 73.7581 151.735 70.0147 145.337C68.1181 142.096 71.4554 139.065 74.2043 137.816Z"/><path fill="#36150D" d="M199.647 106.102C204.821 106.279 209.942 107.865 212.787 112.67C213.637 114.145 214.242 117.226 212.163 117.947C210.098 118.663 207.324 116.489 205.385 115.492C201.208 113.767 198.336 114.037 194.056 114.764C192.504 115.01 189.148 115.343 189.091 112.964C188.965 107.747 195.866 106.353 199.647 106.102Z"/><path fill="#36150D" d="M108.266 84.5494C112.015 84.1793 115.578 84.7632 118.842 86.7443C121.351 88.2879 123.687 90.4403 124.472 93.3849C124.897 94.9753 124.579 97.7073 122.493 97.9523C121.28 98.0948 120.454 97.516 119.537 96.7968C110.548 89.3349 107.08 94.1261 102.512 91.587C101.765 91.1718 101.331 90.7026 101.103 89.8655C101.245 86.7751 105.752 85.0991 108.266 84.5494Z"/><path fill="#36150D" d="M160.04 216.063C170.182 214.902 170.534 228.195 162.429 232.431C152.72 234.054 152.119 219.06 160.04 216.063Z"/><path fill="#E34632" d="M160.64 219.205C161.837 219.559 163.236 219.892 163.927 221.007C165.564 223.65 163.775 227.283 161.457 228.758C159.208 229.582 157.884 227.374 158.009 225.362C158.176 222.682 158.741 221.084 160.64 219.205Z"/><path fill="#36150D" d="M263.169 87.3318C271.623 87.616 269.853 100.096 261.436 101.105C259.91 101.028 258.451 100.454 257.282 99.4701C256.178 98.5306 255.5 97.1851 255.402 95.7387C255.067 91.4003 258.919 87.6545 263.169 87.3318Z"/><path fill="#E34632" d="M262.178 90.4061C263.921 90.5187 264.966 92.0814 265.794 93.3934C264.991 94.526 263.333 96.9764 262.247 97.6916C260.192 97.5609 259.869 97.0114 258.175 95.7013C259.492 93.3407 260.015 92.0857 262.178 90.4061Z"/><path fill="#36150D" d="M80.2929 245.775C81.8935 245.726 82.6483 245.695 84.1144 246.349C86.1424 247.266 87.7225 248.953 88.5066 251.036C89.7956 254.554 88.529 257.585 84.9946 258.87C78.1549 259.905 71.8337 249.77 80.2929 245.775Z"/><path fill="#E34632" d="M79.8277 249.499C80.5567 249.459 82.0656 249.376 82.683 249.65C85.3152 250.821 86.8204 252.9 84.5222 255.297C83.6782 255.557 83.1266 255.756 82.3385 255.267C80.4405 254.09 78.686 251.75 79.8277 249.499Z"/><path fill="#36150D" d="M151.987 66.3173C160.406 65.5345 160.527 76.7376 151.963 78.8932C150.373 79.0324 149.503 78.7949 148.006 78.317C143.409 73.8443 146.594 67.6811 151.987 66.3173Z"/><path fill="#E34632" d="M152.908 69.1297C153.722 69.476 154.673 70.6084 155.318 71.2902C153.978 73.7262 153.597 74.5655 151.129 75.7597C150.245 75.4662 149.968 75.4071 149.207 74.8139C148.078 72.4268 151.225 70.5123 152.908 69.1297Z"/><path fill="#C48338" d="M230.537 192.679C232.213 192.206 234.014 192.682 235.237 193.922C236.46 195.162 236.912 196.969 236.416 198.638C235.92 200.308 234.554 201.575 232.853 201.946C230.33 202.495 227.827 200.941 227.201 198.436C226.574 195.931 228.052 193.381 230.537 192.679Z"/><path fill="#C48338" d="M228.987 110.524C235.678 110.22 237.23 117.587 231.608 119.783C226.294 120.817 223.318 114.096 228.987 110.524Z"/><path fill="#C48338" d="M183.461 263.421C185.862 262.65 188.438 263.953 189.238 266.345C190.039 268.737 188.766 271.328 186.384 272.158C184.817 272.703 183.078 272.364 181.831 271.27C180.584 270.175 180.022 268.495 180.359 266.871C180.696 265.246 181.881 263.929 183.461 263.421Z"/><path fill="#C48338" d="M197.166 26.3903C198.387 26.0722 199.685 26.2694 200.756 26.9357C201.828 27.602 202.579 28.679 202.834 29.9148C203.058 30.9976 202.884 32.1247 202.345 33.0899C201.716 34.2153 200.644 35.0255 199.39 35.3236C196.936 35.907 194.469 34.4057 193.859 31.9574C193.249 29.5091 194.724 27.0262 197.166 26.3903Z"/><path fill="#C48338" d="M50.6096 250.174C53.0783 249.62 55.5311 251.163 56.1 253.629C56.6689 256.094 55.1403 258.556 52.6784 259.14C50.1957 259.728 47.7083 258.184 47.1346 255.697C46.5609 253.211 48.12 250.733 50.6096 250.174Z"/><path fill="#C48338" d="M31.1278 214.16C33.5843 213.573 36.0541 215.077 36.6606 217.529C37.2671 219.981 35.7834 222.463 33.3368 223.089C30.8616 223.723 28.3442 222.218 27.7306 219.738C27.117 217.258 28.6425 214.753 31.1278 214.16Z"/><path fill="#C48338" d="M251.583 63.7405C257.224 63.8853 258.926 71.1786 252.566 72.9874C247.191 73.3243 244.895 66.7199 251.583 63.7405Z"/><path fill="#C48338" d="M26.9334 174.939C28.517 174.443 30.2451 174.85 31.4413 176C32.6376 177.15 33.1119 178.861 32.6786 180.463C32.2453 182.065 30.9733 183.303 29.3604 183.693C26.9777 184.27 24.5671 182.853 23.9121 180.49C23.2572 178.128 24.5939 175.672 26.9334 174.939Z"/></svg>