<?xml version="1.0" encoding="utf-8" ?><svg xmlns="http://www.w3.org/2000/svg" xmlns:xlink="http://www.w3.org/1999/xlink" width="298" height="330" viewBox="0 0 298 330"><path fill="#351007" d="M217.595 0L221.789 0C222.152 0.386017 222.65 0.743141 222.592 1.22491C222.37 3.08627 221.124 5.36714 220.416 7.16123C217.61 14.278 216.401 22.1597 218.316 29.6596C218.877 31.8605 220.41 35.223 221.336 37.4026C219.195 39.4749 217.421 40.0158 214.912 41.5428C213.254 43.246 210.917 45.7977 209.09 47.1784L208.985 47.8465C209.696 48.4835 222.982 53.8637 225.222 54.8708C228.206 56.2382 231.141 57.7101 234.021 59.2835C241.035 63.1869 250.291 69.382 255.797 75.2858C258.744 78.4454 261.854 83.0076 265 86.4393C268.125 89.8481 270.996 91.789 273.84 94.6372C279.007 99.8125 284.379 108.079 284.869 115.569C284.99 117.431 283.841 118.114 284.077 118.746C285.443 122.402 287.505 126.039 288.918 129.716C291.462 136.335 293.406 142.947 295.104 149.804C295.704 152.228 296.826 160.422 298 161.578L298 204.272C297.75 204.602 297.249 205.3 297.188 205.697C296.199 212.114 294.966 218.354 293.153 224.606C287.698 243.088 278.646 260.312 266.516 275.286C265.478 276.589 261.392 281.76 259.961 282.57C258.487 285.387 254.996 289.144 252.092 290.439C249.932 293.051 246.692 295.539 244.055 297.677C228.5 310.127 210.661 319.417 191.541 325.024C185.567 326.723 179.631 328.099 173.523 329.184C173.057 329.267 172.741 329.678 172.43 330L125.775 330C124.637 328.89 116.852 327.618 114.743 327.134C56.5127 313.752 8.85281 264.108 1.07624 204.35C0.952916 203.402 0.65928 203.201 0 202.604L0 164.578C0.260555 164.39 0.753839 164.002 0.813252 163.643C1.434 159.89 1.71762 155.987 2.53948 152.266C3.20462 149.255 4.14348 146.298 4.92638 143.336C5.68953 140.449 7.92915 135.84 6.5714 133.01C5.88878 130.824 6.07171 125.942 6.77572 123.697C7.72344 118.248 11.8276 111.738 15.5674 107.706C16.9989 105.099 22.9591 99.5723 25.4261 97.0484C26.6301 95.643 28.0828 93.3803 29.0764 91.8166C39.1825 75.9117 54.8877 65.056 71.0738 56.0324C74.5363 54.1021 78.6268 52.7286 82.1297 50.8326C80.3434 48.6506 77.5986 45.637 75.2041 44.2074C72.5215 42.6057 70.4546 42.0025 68.0711 39.8646C68.269 39.5322 68.4234 39.2553 68.5799 38.9005C72.95 28.9938 72.8591 21.9472 69.0777 11.8456C68.0655 9.14181 66.7486 6.65761 65.74 3.98201C66.3907 3.06598 67.8393 0.736435 69.1147 1.43694C73.6751 3.94172 77.5859 5.86686 82.7049 7.14882C90.3967 9.02917 98.5194 7.81079 105.321 3.75646C107.13 5.54544 107.496 6.67056 108.668 9.01691C111.071 13.8276 113.371 16.9243 118.522 19.0548C122.527 20.7118 125.388 19.36 129.16 20.6081C129.531 20.7309 129.895 21.1941 129.934 21.6071C130.272 25.1331 129.712 27.8539 131.053 31.3585C132.305 34.6298 133.304 36.3827 136.463 37.9221C137.776 37.8682 139.231 36.6652 140.05 36.4862C144.443 35.5254 148.926 35.6508 152.939 37.2916C156.571 35.1168 159.229 30.5915 159.182 26.3896C159.125 25.2502 158.688 18.9017 160.524 18.6538C168.18 17.6197 173.841 18.156 178.484 10.2939C179.628 8.35691 181.264 4.55551 182.798 2.75966C184.717 1.0556 188.68 4.18966 190.765 4.84409C197.951 7.09965 211.557 5.05514 217.595 0Z"/><path fill="#A76B47" d="M25.4261 97.0484C25.391 98.6602 16.7834 107.372 15.5674 107.706C16.9989 105.099 22.9591 99.5723 25.4261 97.0484Z"/><path fill="#A76B47" d="M252.092 290.439C253.125 289.121 258.654 283.669 259.961 282.57C258.487 285.387 254.996 289.144 252.092 290.439Z"/><path fill="#A76B47" d="M209.09 47.1784C210.03 45.3426 212.725 41.804 214.912 41.5428C213.254 43.246 210.917 45.7977 209.09 47.1784Z"/><path fill="#452110" d="M6.77572 123.697C6.82439 125.875 7.00634 130.814 6.92956 132.73L6.5714 133.01C5.88878 130.824 6.07171 125.942 6.77572 123.697Z"/><path fill="#844527" d="M17.008 142.638C36.9102 144.672 40.3317 126.143 53.9533 117.204C55.8882 115.935 59.4665 115.736 61.7912 115.831C64.7077 117.608 66.3255 120.766 66.8521 123.947C69.4324 139.538 75.111 150.197 93.489 145.585C106.697 142.269 114.224 121.744 129.619 129.36C132.617 131.198 135.641 134.864 137.662 137.612C145.236 147.911 152.567 157.006 166.82 153.751C183.869 149.858 181.925 126.823 200.242 127.158C209.381 127.325 219.086 132.58 221.064 142.108C223.896 155.751 218.338 174.043 232.598 182.795C241.103 188.065 250.249 184.768 255.228 176.5C260.088 168.429 259.047 157.887 256.996 149.114C255.691 143.416 246.712 122.346 257.391 120.542C266.236 119.047 270.346 129.699 280.779 123.339C282.558 127.045 283.903 130.781 285.313 134.637C296.595 165.358 296.875 199.041 286.108 229.947C273.086 266.868 245.562 295.868 210.412 312.61C176.806 328.616 135.713 330.431 100.708 317.806C82.4627 311.225 65.3711 300.749 50.9344 287.855C49.8206 286.853 45.0907 282.754 44.439 281.67C35.6478 272.719 27.2275 260.786 21.2466 249.821C7.24825 223.647 1.79075 193.749 5.63909 164.318C6.78353 155.713 8.66998 148.088 11.1 139.798C13.365 141.405 14.3552 141.886 17.008 142.638Z"/><path fill="#C58A5B" d="M11.1 139.798C13.365 141.405 14.3552 141.886 17.008 142.638C15.9813 145.049 14.7092 150.768 13.9907 153.631C7.29468 180.312 9.15887 211.994 19.0573 237.649C24.378 250.84 31.0957 263.605 39.839 274.864C41.4348 276.919 43.1256 278.809 44.6639 280.876C44.5889 281.14 44.5139 281.405 44.439 281.67C35.6478 272.719 27.2275 260.786 21.2466 249.821C7.24825 223.647 1.79075 193.749 5.63909 164.318C6.78353 155.713 8.66998 148.088 11.1 139.798Z"/><path fill="#351007" d="M202.664 171.1C214.821 170.994 224.768 180.752 224.895 192.909C225.022 205.066 215.282 215.03 203.125 215.178C190.938 215.327 180.944 205.557 180.817 193.37C180.689 181.183 190.477 171.206 202.664 171.1Z"/><path fill="#FEFEF8" d="M194.096 178.671C197.881 177.895 201.577 180.339 202.345 184.126C203.114 187.912 200.663 191.604 196.875 192.365C193.097 193.125 189.418 190.682 188.651 186.905C187.885 183.129 190.321 179.444 194.096 178.671Z"/><path fill="#FEFEF8" d="M212.266 199.66C214.07 199.146 215.949 200.193 216.462 201.998C216.974 203.803 215.925 205.681 214.119 206.191C212.316 206.701 210.441 205.654 209.93 203.851C209.418 202.049 210.464 200.173 212.266 199.66Z"/><path fill="#351007" d="M91.8398 171.385C103.869 169.493 115.15 177.722 117.022 189.754C118.893 201.787 110.645 213.054 98.6093 214.905C86.6031 216.751 75.3693 208.527 73.5022 196.524C71.6352 184.521 79.8401 173.273 91.8398 171.385Z"/><path fill="#FEFEF8" d="M86.1775 178.709C88.6237 178.057 91.2317 178.771 93.004 180.579C94.7764 182.387 95.4388 185.009 94.738 187.442C94.0372 189.874 92.0816 191.742 89.6191 192.33C85.8804 193.223 82.1186 190.945 81.1769 187.218C80.2353 183.491 82.4635 179.7 86.1775 178.709Z"/><path fill="#FEFEF8" d="M104.329 199.66C105.47 199.233 106.753 199.453 107.687 200.235C108.622 201.017 109.064 202.242 108.844 203.44C108.625 204.639 107.778 205.628 106.627 206.028C104.876 206.639 102.959 205.725 102.329 203.981C101.699 202.236 102.591 200.309 104.329 199.66Z"/><path fill="#351007" d="M132.359 211.793C137.328 211.761 142.76 214.002 148.75 214.128C157.304 214.307 171.85 205.951 171.332 220.711C171.069 228.18 168.118 233.133 162.748 238.083C149.99 247.638 132.73 242.457 127.699 227.243C125.798 221.492 125.266 214.037 132.359 211.793Z"/><path fill="#F0918F" d="M150.478 223.812C155.784 223.312 160.843 224.133 165.393 226.993C164.999 227.765 164.579 228.524 164.133 229.267C160.871 234.648 157.306 236.564 151.409 238.014C145.419 238.63 139.949 236.483 135.926 232.024C140.58 226.316 143.385 225.13 150.478 223.812Z"/><path fill="#FEFEF8" d="M140.881 229.123C142.079 229.169 142.728 229.147 143.512 230.139C143.393 231.113 143.382 230.857 142.525 231.695L141.348 231.95C140.561 231.716 140.814 231.904 140.367 231.27C140.248 230.36 140.514 229.947 140.881 229.123Z"/><path fill="#FEFEF8" d="M145.353 227.254C146.099 227.136 146.804 227.634 146.94 228.377C147.077 229.119 146.597 229.836 145.857 229.991C145.363 230.094 144.851 229.922 144.52 229.54C144.189 229.158 144.091 228.627 144.264 228.152C144.437 227.677 144.854 227.333 145.353 227.254Z"/><path fill="#F8C2C2" d="M220.218 216.084C238.204 214.391 246.31 229.775 225.388 233.24C219.983 233.497 213.285 233.096 209.139 228.883C207.421 227.138 207.416 225.406 207.517 223.126C210.486 218.152 214.758 216.86 220.218 216.084Z"/><path fill="#F8C2C2" d="M73.8604 216.103C79.4246 216.281 89.9847 217.188 90.8502 224.719C91.5226 230.569 82.0725 233.134 77.3282 233.35C57.5885 233.594 54.0699 217.988 73.8604 216.103Z"/><path fill="#A76B47" d="M42.5223 147.853C42.2947 148.948 43.2969 149.053 43.1659 149.588C42.5361 152.16 39.7976 158.503 37.3773 159.506C35.4487 160.306 32.4676 158.445 32.5547 155.904C32.8024 148.672 38.5938 141.524 42.7469 135.927C44.6151 133.478 49.5078 128.533 52.6925 128.029C54.2949 127.995 55.4361 129.311 56.5148 130.356L56.5232 133.751C55.6516 135.319 52.0566 139.184 51.9604 139.419C54.2629 141.697 52.6313 144.767 49.6802 144.916L47.9596 143.694L46.8489 144.075C46.7786 145.983 46.2016 148.345 43.8995 148.522C43.2829 148.278 43.0884 148.194 42.5223 147.853Z"/><path fill="#C58A5B" d="M41.8977 146.556L41.9536 146.405C43.1427 143.297 43.6283 143.214 46.8489 144.075C46.7786 145.983 46.2016 148.345 43.8995 148.522C43.2829 148.278 43.0884 148.194 42.5223 147.853L41.8977 146.556Z"/><path fill="#CD985D" d="M51.6796 139.436L51.9604 139.419C54.2629 141.697 52.6313 144.767 49.6802 144.916C49.719 143.118 49.4138 143.245 49.1336 141.622C49.5154 140.967 50.928 139.658 51.6796 139.436Z"/><path fill="#945633" d="M41.8977 146.556C41.5353 146.149 41.5544 146.142 41.3647 145.66C41.756 144.5 43.3138 140.773 44.3328 140.213C44.8304 144.381 45.5575 142.462 47.9537 143.45L47.9596 143.694L46.8489 144.075C43.6283 143.214 43.1427 143.297 41.9536 146.405L41.8977 146.556Z"/><path fill="#C58A5B" d="M47.9537 143.45C47.9556 140.498 48.2442 138.642 51.6796 139.436C50.928 139.658 49.5154 140.967 49.1336 141.622C49.4138 143.245 49.719 143.118 49.6802 144.916L47.9596 143.694L47.9537 143.45Z"/><path fill="#351007" d="M86.4126 261.307C88.7094 261.224 91.9139 264.916 93.2742 266.65C95.1721 269.069 96.5536 271.089 96.1277 274.3C95.8163 276.516 94.6311 278.517 92.8362 279.854C90.9664 281.245 89.3495 281.579 87.1053 281.263C83.6672 280.358 77.6938 275.072 76.5142 271.651C77.5264 265.747 80.323 262.45 86.4126 261.307Z"/><path fill="#6E301A" d="M85.6284 263.917C89.1215 264.652 94.6331 270.78 93.5356 274.521C90.7876 283.889 83.4097 276.355 80.1464 272.969C79.8591 272.493 79.5197 271.782 79.2551 271.27C79.2161 270.714 79.5227 268.764 79.6138 268.099L80.9731 266.594C82.302 265.405 84.0062 264.721 85.6284 263.917Z"/><path fill="#6F311A" d="M80.9731 266.594C81.6175 266.396 82.1549 266.123 82.7457 266.343C82.8808 266.92 82.7491 267.162 82.5834 267.755L82.8612 268.008C82.0206 268.429 81.6972 268.526 81.1901 269.35C81.114 269.819 81.0317 270.125 81.1035 270.6C80.3425 270.741 79.778 270.741 79.2551 271.27C79.2161 270.714 79.5227 268.764 79.6138 268.099L80.9731 266.594Z"/><path fill="#C58A5B" d="M82.8612 268.008C83.4434 269.089 83.4135 268.707 83.3875 269.866C82.9733 270.547 82.95 270.652 82.3245 271.11L81.1035 270.6C81.0317 270.125 81.114 269.819 81.1901 269.35C81.6972 268.526 82.0206 268.429 82.8612 268.008Z"/><path fill="#945633" d="M79.2551 271.27C79.778 270.741 80.3425 270.741 81.1035 270.6L82.3245 271.11C81.6216 271.812 81.0203 272.497 80.1464 272.969C79.8591 272.493 79.5197 271.782 79.2551 271.27Z"/><path fill="#C58A5B" d="M87.1816 271.151C87.7162 271.103 88.2348 271.348 88.5366 271.792C88.8385 272.236 88.8762 272.809 88.6352 273.288C88.3942 273.768 87.9123 274.079 87.3761 274.102C86.5734 274.136 85.8903 273.523 85.8375 272.721C85.7846 271.92 86.3814 271.222 87.1816 271.151Z"/><path fill="#C58A5B" d="M89.8013 274.594C90.4188 274.544 90.9676 274.985 91.0514 275.599C91.1351 276.213 90.7246 276.785 90.1164 276.903C89.692 276.985 89.2571 276.825 88.9861 276.488C88.7152 276.152 88.6525 275.693 88.8233 275.296C88.9942 274.899 89.3705 274.629 89.8013 274.594Z"/><path fill="#351007" d="M252.088 228.565C254.304 228.262 254.69 228.453 256.449 229.697C267.115 237.236 266.926 239.691 257.012 247.081C252.846 249.167 247.205 247.465 245.116 243.177C245.149 237.616 246.524 230.992 252.088 228.565Z"/><path fill="#6E301A" d="M252.314 230.765C255.11 230.738 257.714 233.671 259.954 235.414C261.418 236.553 261.416 237.693 261.448 239.388C260.007 241.094 258.228 243.325 256.589 244.759C255.15 245.329 253.606 245.586 252.059 245.513C246.089 245.249 247.438 239.273 248.818 235.501C249.697 233.101 250.444 232.405 252.314 230.765Z"/><path fill="#C58A5B" d="M251.223 238.491C251.824 238.209 252.542 238.453 252.846 239.044C253.15 239.635 252.931 240.36 252.352 240.686C251.958 240.907 251.474 240.895 251.091 240.655C250.709 240.415 250.487 239.985 250.515 239.534C250.542 239.083 250.814 238.683 251.223 238.491Z"/><path fill="#C58A5B" d="M255.152 240.334C256.205 240.622 256.106 240.427 256.738 241.135C256.688 242.156 256.627 241.954 256.032 242.917C255.687 243.048 255.463 242.964 255.097 242.895L254.752 242.383C254.654 241.456 254.819 241.175 255.152 240.334Z"/><path fill="#351007" d="M93.9472 146.331C99.4425 145.399 109.284 149.121 109.249 155.637C109.232 158.897 104.437 158.034 102.626 157.163C101.252 156.502 98.7932 156.016 97.3091 155.807C92.1288 155.417 90.8495 156.319 86.0542 157.64C79.8326 159.353 81.7219 151.802 84.8845 149.541C87.6146 147.589 90.7234 146.739 93.9472 146.331Z"/><path fill="#351007" d="M200.337 146.334C206.58 146.345 215.94 147.914 216.379 155.7C216.638 160.297 207.417 156.149 205.433 155.755C200.294 155.554 198.836 155.347 193.864 157.376C192.703 157.849 191.172 157.994 190.073 157.319C189.457 156.971 188.921 156.208 188.851 155.473C188.3 149.636 196.066 146.941 200.337 146.334Z"/><path fill="#351007" d="M271.359 182.572C274.397 182.406 279.873 183.473 280.553 187.194C280.882 188.991 279.242 190.977 278.734 192.618C278.13 194.571 278.13 196.941 276.744 198.578C275.983 199.474 274.843 199.467 273.716 199.565C261.017 197.105 262.071 184.582 271.359 182.572Z"/><path fill="#6F311A" d="M270.516 184.792C273.672 184.634 276.993 184.684 278.425 187.925C278.319 189.358 276.705 191.825 276.288 193.276C276.031 194.172 276.562 194.913 276.077 196.044C275.547 196.582 275.455 196.606 274.71 196.749C270.077 195.956 268.013 195.969 266.38 190.926C267.64 187.75 267.967 186.954 270.516 184.792Z"/><path fill="#C58A5B" d="M272.852 191.14C273.524 190.816 274.333 191.089 274.67 191.754C275.007 192.42 274.75 193.233 274.091 193.583C273.653 193.816 273.124 193.793 272.707 193.525C272.291 193.257 272.051 192.785 272.081 192.29C272.111 191.796 272.406 191.356 272.852 191.14Z"/><path fill="#A76B47" d="M274.473 186.655C275.099 186.561 275.685 186.984 275.794 187.608C275.902 188.231 275.493 188.828 274.872 188.95C274.457 189.032 274.031 188.883 273.757 188.561C273.484 188.238 273.407 187.793 273.555 187.398C273.704 187.002 274.055 186.718 274.473 186.655Z"/><path fill="#351007" d="M25.3818 167.221C31.5747 167.572 33.8017 175.278 32.3883 180.563C30.2559 182.538 28.7096 183.887 25.7409 184.344C25.1084 184.32 24.1138 184.258 23.5249 184.032C13.7474 180.282 18.3961 170.673 25.3818 167.221Z"/><path fill="#6E301A" d="M24.8583 170.749C25.5962 170.376 26.0855 170.019 26.897 170.2C27.7414 170.627 28.1804 171.494 28.7138 172.302C29.6423 173.799 30.8718 176.668 30.4494 178.433C29.3076 180.87 28.4133 181.007 26.134 182.205C24.2701 181.473 20.1253 179.474 20.2898 177.065C21.7522 174.901 21.6444 171.694 24.8583 170.749Z"/><path fill="#C58A5B" d="M24.8583 170.749C25.5962 170.376 26.0855 170.019 26.897 170.2C27.7414 170.627 28.1804 171.494 28.7138 172.302C28.3 172.383 27.3228 172.694 27.0139 172.71L25.8744 173.931C25.0397 174.18 25.3644 174.197 24.616 173.948L24.3101 173.323C24.2584 172.269 24.533 171.961 25.0684 171.05L24.8583 170.749Z"/><path fill="#6F311A" d="M24.8583 170.749C25.5962 170.376 26.0855 170.019 26.897 170.2C27.7414 170.627 28.1804 171.494 28.7138 172.302C28.3 172.383 27.3228 172.694 27.0139 172.71C26.4108 171.749 26.2028 171.152 25.0684 171.05L24.8583 170.749Z"/><path fill="#CD985D" d="M26.0426 177.39C26.377 177.401 26.6871 177.567 26.8819 177.839C27.1738 178.246 27.1465 178.801 26.8159 179.178C26.4854 179.554 25.9389 179.653 25.4971 179.417C25.0553 179.18 24.8348 178.671 24.9651 178.187C25.0953 177.703 25.5418 177.372 26.0426 177.39Z"/><path fill="#351007" d="M200.69 131.327C201.547 131.261 202.844 131.291 203.737 131.285C205.03 131.94 205.955 132.352 206.695 133.654C208.256 136.4 208.176 140.915 207.36 143.869C205.308 145.421 204.058 145.717 201.448 145.785C191.197 144.253 191.151 134.249 200.69 131.327Z"/><path fill="#6E301A" d="M197.723 142.339C197.273 141.931 196.301 141.087 196.126 140.553C195.219 137.786 197.127 134.835 199.71 133.838C201.222 133.255 202.616 133.468 204.025 134.064C204.894 134.237 204.579 134.129 205.356 134.892C205.679 135.743 205.708 139.507 205.551 140.363C206.673 144.661 199.621 142.884 197.723 142.339Z"/><path fill="#6F311A" d="M202.304 136.561C201.08 136.872 200.411 137.757 199.334 136.713L199.366 136.04C199.973 135.023 200.538 134.682 201.649 134.25L202.551 134.823C202.248 135.609 202.18 135.736 202.304 136.561Z"/><path fill="#452110" d="M204.025 134.064C204.894 134.237 204.579 134.129 205.356 134.892C205.679 135.743 205.708 139.507 205.551 140.363C203.689 138.51 205.818 138.329 204.374 136.466L204.16 135.622C204.259 134.877 204.354 134.691 204.025 134.064Z"/><path fill="#945633" d="M202.551 134.823C203.671 135.094 203.484 134.877 204.16 135.622L204.374 136.466L203.99 136.911C203.222 136.885 203.038 136.807 202.304 136.561C202.18 135.736 202.248 135.609 202.551 134.823Z"/><path fill="#A76B47" d="M200.86 139.583C201.364 140.289 201.356 139.584 201.766 140.786C201.483 141.65 201.7 141.418 201.026 141.784C200.173 141.634 200.445 141.807 199.939 141.207C199.878 140.108 199.781 140.547 200.348 139.554L200.86 139.583Z"/><path fill="#6F311A" d="M200.348 139.554L199.674 138.719L199.749 138.103C200.373 137.696 200.07 137.764 200.864 137.898C201.294 138.521 201.303 138.92 200.86 139.583L200.348 139.554Z"/><path fill="#351007" d="M195.159 281.518C195.549 281.501 197.01 281.444 197.308 281.533C200.027 282.345 202.155 285.963 203.485 288.156L203.481 291.741C202.942 292.471 202.306 293.233 201.734 293.946C199.31 294.004 198.214 294.187 196.133 295.507C195.373 295.943 193.028 295.758 192.172 295.447C190.76 294.936 189.667 293.615 189.078 292.272C188.364 290.665 188.33 288.838 188.986 287.206C190.086 284.394 192.486 282.669 195.159 281.518Z"/><path fill="#6F311A" d="M195.018 284.678C195.807 284.549 196.184 284.39 196.861 284.775C198.845 285.251 199.815 287.113 201.136 288.839C200.591 291.738 199.942 292.316 196.709 291.957C192.218 296.424 187.08 290.181 195.018 284.678Z"/><path fill="#6E301A" d="M196.709 291.957C192.218 296.424 187.08 290.181 195.018 284.678C195.265 285.75 195.53 286.453 195.197 287.495L194.947 286.959C194.131 287.165 194.409 286.972 193.92 287.703C194.358 289.484 195.537 288.725 194.82 290.291L194.68 290.827L195.51 290.083C195.507 290.484 195.513 290.673 195.669 291.056C195.934 290.594 196.015 290.439 196.36 290.038L196.88 290.03C197.221 290.681 197.237 291.384 196.709 291.957Z"/><path fill="#A76B47" d="M194.68 290.827C194.389 290.942 194.057 291.001 193.747 291.072C193.03 290.685 193.254 290.932 192.943 290.1C193.04 289.369 193.016 289.305 193.506 288.804L194.018 288.84C194.549 289.384 194.577 289.562 194.82 290.291L194.68 290.827Z"/><path fill="#A76B47" d="M195.018 284.678C195.807 284.549 196.184 284.39 196.861 284.775C196.925 285.903 197.106 287.175 196.518 288.13C195.835 288.22 195.66 288.077 195.197 287.495C195.53 286.453 195.265 285.75 195.018 284.678Z"/><path fill="#351007" d="M33.0217 230.276C43.2495 229.805 46.1966 240.389 39.24 244.619C31.4212 246.139 30.8185 240.187 29.4036 234.361C29.4724 234.19 29.5421 234.02 29.6129 233.85C30.5257 231.664 30.8652 231.163 33.0217 230.276Z"/><path fill="#6F311A" d="M32.9457 236.637C32.3961 235.821 32.0256 235.135 32.0985 234.152C33.3699 232.212 36.1476 233.657 37.7617 234.119L38.0405 234.196C38.5338 234.651 39.0777 235.11 39.4815 235.639C41.9345 240.118 37.6996 244.623 35.1165 241.495C34.1233 240.485 33.9837 240.209 33.3278 238.937C32.9682 237.967 32.9896 237.661 32.9457 236.637Z"/><path fill="#6F311A" d="M32.9457 236.637C32.3961 235.821 32.0256 235.135 32.0985 234.152C33.3699 232.212 36.1476 233.657 37.7617 234.119L38.0405 234.196C37.3074 234.494 37.2091 234.565 36.603 235.077L37.1361 236.372C36.9435 237.157 36.8967 237.711 36.3622 238.299L35.9778 238.428C34.6903 238.415 34.478 238.379 33.3278 238.937C32.9682 237.967 32.9896 237.661 32.9457 236.637Z"/><path fill="#844527" d="M32.9457 236.637C32.3961 235.821 32.0256 235.135 32.0985 234.152C33.3699 232.212 36.1476 233.657 37.7617 234.119L38.0405 234.196C37.3074 234.494 37.2091 234.565 36.603 235.077L36.2456 234.638C34.6176 234.723 35.4243 236.025 32.9457 236.637Z"/><path fill="#A76B47" d="M33.3278 238.937C34.478 238.379 34.6903 238.415 35.9778 238.428C35.8739 239.636 35.9362 240.604 35.1165 241.495C34.1233 240.485 33.9837 240.209 33.3278 238.937Z"/><path fill="#C58A5B" d="M36.603 235.077C37.2091 234.565 37.3074 234.494 38.0405 234.196C38.5338 234.651 39.0777 235.11 39.4815 235.639C38.7312 236.288 38.1287 236.262 37.1361 236.372L36.603 235.077Z"/><path fill="#C58A5B" d="M203.908 258.248C208.838 258.113 209.122 262.647 205.064 265.01C200.537 264.82 200.682 260.824 203.908 258.248Z"/><path fill="#6F311A" d="M272.5 145.204C276.62 145.507 277.146 150.247 273.688 152.811C270.095 151.256 268.593 147.526 272.5 145.204Z"/><path fill="#C58A5B" d="M270.309 136.157C271.868 135.803 273.424 136.762 273.808 138.314C274.192 139.866 273.262 141.44 271.718 141.853C270.692 142.127 269.598 141.826 268.858 141.066C268.117 140.305 267.844 139.204 268.146 138.186C268.447 137.168 269.274 136.392 270.309 136.157Z"/><path fill="#C58A5B" d="M42.83 210.085C44.3595 209.791 45.8476 210.759 46.1983 212.277C46.5491 213.794 45.6369 215.317 44.1336 215.725C43.1099 216.002 42.0165 215.698 41.2834 214.931C40.5502 214.165 40.2946 213.059 40.6171 212.048C40.9395 211.038 41.7884 210.285 42.83 210.085Z"/><path fill="#C58A5B" d="M116.144 145.667C119.918 146.172 121.08 149.852 117.884 151.553C113.578 151.65 113.119 148.282 116.144 145.667Z"/><path fill="#6F311A" d="M160.124 165.193C161.418 164.898 162.712 165.685 163.047 166.97C163.382 168.254 162.636 169.572 161.363 169.947C160.503 170.201 159.573 169.965 158.937 169.334C158.301 168.702 158.059 167.774 158.306 166.912C158.553 166.05 159.25 165.391 160.124 165.193Z"/><path fill="#6F311A" d="M60.3729 180.698C64.0951 180.81 64.1597 184.091 60.9229 186.012C59.7597 185.997 58.1718 184.329 58.5063 183.052C58.8752 181.644 59.3126 181.521 60.3729 180.698Z"/><path fill="#6F311A" d="M181.336 247.891C182.606 247.462 183.983 248.144 184.411 249.414C184.84 250.684 184.157 252.06 182.887 252.488C181.618 252.916 180.242 252.234 179.814 250.965C179.386 249.696 180.067 248.32 181.336 247.891Z"/><path fill="#6F311A" d="M72.749 240.728C76.3878 240.648 76.8707 243.345 74.437 245.805C73.5885 245.794 72.5661 245.336 71.9681 244.757C71.49 244.303 71.2343 243.662 71.268 243.003C71.3259 241.906 71.9873 241.389 72.749 240.728Z"/><path fill="#6F311A" d="M187.49 238.932C191.086 239.277 191.921 241.965 188.894 244.081C185.732 243.62 185.032 241.236 187.49 238.932Z"/><path fill="#C58A5B" d="M99.9949 291.473C103.362 291.339 103.978 294.335 101.388 296.406C97.7682 296.02 97.1912 293.745 99.9949 291.473Z"/><path fill="#C58A5B" d="M129.757 304.933C133.667 305.3 133.586 307.943 130.747 310.049C127.799 309.969 127.173 306.921 129.757 304.933Z"/><path fill="#6F311A" d="M50.835 267.451C54.4523 267.384 54.6584 269.99 52.5351 272.364C49.4558 272.197 47.7526 269.261 50.835 267.451Z"/><path fill="#6E301A" d="M151.472 292.364C154.813 292.678 155.479 295.382 152.612 297.609L152.004 297.685C149.281 296.69 149.638 294.128 151.472 292.364Z"/><path fill="#6F311A" d="M182.155 156.738C182.427 156.728 182.699 156.723 182.97 156.724C186.29 156.746 185.818 159.586 183.713 161.365C180.57 161.407 179.825 158.984 182.155 156.738Z"/><path fill="#C58A5B" d="M253.475 210.397C256.837 210.194 256.62 213.286 254.564 215.372C251.523 215.38 250.911 212.551 253.475 210.397Z"/><path fill="#C58A5B" d="M137.118 185.217C140.668 184.893 140.94 187.468 138.909 189.843C135.971 189.689 134.875 187.598 137.118 185.217Z"/><path fill="#C58A5B" d="M109.103 243.223C110.216 242.894 111.393 243.492 111.784 244.585C112.175 245.678 111.644 246.887 110.575 247.338C109.827 247.654 108.966 247.531 108.338 247.017C107.709 246.504 107.417 245.685 107.577 244.89C107.737 244.094 108.325 243.453 109.103 243.223Z"/><path fill="#C58A5B" d="M65.2124 161.695C66.3674 161.38 67.5583 162.063 67.8699 163.219C68.1815 164.375 67.4953 165.564 66.3387 165.873C65.1862 166.18 64.0022 165.497 63.6918 164.346C63.3813 163.194 64.0615 162.008 65.2124 161.695Z"/><path fill="#A76B47" d="M251.81 267.999C252.565 267.796 253.371 268.016 253.917 268.576C254.463 269.136 254.664 269.947 254.442 270.696C254.22 271.446 253.61 272.017 252.847 272.189C251.702 272.448 250.559 271.743 250.277 270.602C249.995 269.462 250.676 268.305 251.81 267.999Z"/><path fill="#C58A5B" d="M129.823 260.696C130.568 260.477 131.374 260.683 131.923 261.231C132.473 261.78 132.679 262.585 132.461 263.331C132.243 264.076 131.635 264.643 130.877 264.809C129.759 265.054 128.648 264.37 128.364 263.261C128.08 262.153 128.725 261.019 129.823 260.696Z"/><path fill="#945633" d="M210.369 307.04C211.254 307.069 211.901 307.352 212.151 308.195C211.703 309.574 210.048 310.583 208.871 311.413C207.863 310.604 207.069 310.319 207 309.029C207.543 307.918 209.232 307.44 210.369 307.04Z"/><path fill="#C58A5B" d="M18.1971 194.433C19.3429 194.18 20.4759 194.907 20.7243 196.053C20.9726 197.2 20.2417 198.33 19.094 198.574C17.9526 198.817 16.8299 198.091 16.5829 196.95C16.3359 195.81 17.0576 194.684 18.1971 194.433Z"/><path fill="#C58A5B" d="M226.814 271.455C227.891 271.008 229.126 271.523 229.566 272.603C230.005 273.683 229.482 274.915 228.399 275.348C227.326 275.777 226.108 275.259 225.672 274.189C225.236 273.119 225.746 271.897 226.814 271.455Z"/><path fill="#C58A5B" d="M156.275 275.246C156.951 274.887 157.77 274.926 158.408 275.349C159.046 275.772 159.402 276.511 159.335 277.273C159.268 278.036 158.789 278.701 158.087 279.006C157.058 279.453 155.859 279.008 155.372 277.997C154.885 276.986 155.284 275.771 156.275 275.246Z"/><path fill="#A76B47" d="M224.211 291.157C225.297 291.017 226.295 291.77 226.459 292.853C226.623 293.935 225.892 294.95 224.813 295.137C224.094 295.262 223.364 294.988 222.905 294.421C222.445 293.854 222.329 293.083 222.6 292.406C222.871 291.728 223.488 291.251 224.211 291.157Z"/><path fill="#C58A5B" d="M235.937 195.874C236.61 195.583 237.389 195.683 237.967 196.134C238.546 196.586 238.832 197.316 238.715 198.04C238.597 198.765 238.094 199.367 237.403 199.612C236.382 199.974 235.257 199.461 234.862 198.452C234.466 197.443 234.942 196.303 235.937 195.874Z"/><path fill="#A76B47" d="M172.678 312.209C173.69 311.82 174.827 312.324 175.218 313.336C175.61 314.348 175.108 315.485 174.098 315.879C173.084 316.274 171.942 315.771 171.549 314.756C171.156 313.741 171.662 312.6 172.678 312.209Z"/><path fill="#C58A5B" d="M135.701 168.143C136.356 167.897 137.093 168.031 137.619 168.492C138.146 168.952 138.377 169.664 138.221 170.346C138.065 171.028 137.548 171.57 136.873 171.755C135.893 172.026 134.874 171.477 134.56 170.51C134.246 169.543 134.749 168.5 135.701 168.143Z"/><path fill="#FCFBEB" d="M206.583 52.6968C210.18 53.8777 213.768 55.353 217.26 56.8059C229.843 62.4163 241.632 68.3037 251.479 78.3158C255.114 82.0116 257.933 86.2477 261.365 89.7828C266.708 95.2872 271.999 98.9579 276.219 105.665C278.571 109.24 281.982 117.033 277.303 119.999C276.246 120.668 274.494 121.001 273.31 120.584C264.993 117.655 257.745 111.247 249.944 120.054C246.784 124.886 247.201 129.698 247.973 135.208C251.375 147.534 257.987 161.617 251.346 173.999C248.104 180.044 240.505 183.041 234.712 178.624C221.963 168.968 229.425 151.448 225.022 138.71C223.921 135.522 222.245 133.144 220.05 130.626C210.398 121.794 193.842 118.385 184.101 129.227C177.617 136.444 174.359 149.146 162.719 149.795C143.288 150.781 142.198 122.276 122.719 123.01C107.301 123.591 101.448 142.371 85.8674 142.239C83.9403 142.242 82.2946 141.755 80.5511 141.015C67.7348 135.57 76.5357 110.368 58.7503 111.133C42.1234 111.847 37.6956 137.403 20.8881 138.387C16.5535 138.64 13.3527 136.779 11.614 132.818C8.69532 119.37 19.6782 110.995 27.6847 102.345C31.6818 97.6693 34.5641 92.1949 38.4793 87.4462C43.8261 80.961 50.2919 75.5073 57.1504 70.6529C63.3582 66.2592 70.4979 61.5749 77.5253 58.5471C79.4732 57.5765 81.6648 56.6722 83.6751 55.7994C83.8246 58.0019 83.1278 61.9832 83.9661 63.9236C84.5235 65.2137 94.8736 64.8894 98.5772 68.474C102.217 71.997 102.483 77.5729 104.254 79.2283C104.371 79.3379 104.731 79.6143 104.899 79.6332C106.264 79.7862 110.632 77.4731 112.327 76.9703C113.555 76.6058 114.79 76.4799 116.063 76.3958C117.181 79.4547 118.159 81.943 120.508 84.358C123.74 87.6723 128.169 89.5476 132.799 89.5621C138.427 89.5954 142.419 87.3752 146.291 83.5681C149.046 87.0786 152.508 89.2848 156.914 90.1987C161.378 91.0982 166.017 90.1899 169.812 87.6732C174.64 84.4379 176.396 80.5156 177.429 75.078C178.811 75.4392 186.141 78.5703 186.725 77.795C189.226 74.4717 188.233 71.7099 191.167 67.8947C195.406 62.3823 202.572 64.2136 206.232 61.9426C206.716 60.6218 206.236 55.418 206.583 52.6968Z"/><path fill="#EADDC1" d="M11.614 132.818C12.6051 132.739 15.6132 133.474 17.2025 133.557C29.2484 133.727 34.9242 119.874 43.2855 112.986C50.9642 106.661 60.3915 102.886 69.1863 110.038C75.5423 115.206 74.7992 126.691 79.1728 131.447C87.8336 140.865 101.937 125.912 109.295 121.815C114.292 119.034 118.868 117.595 124.599 117.779C142.078 118.34 144.485 141.9 161.379 143.233C172.251 144.091 177.707 129.425 185.002 123.095C194.668 114.708 208.972 115.828 217.325 125.494C218.659 127.039 220.2 128.486 220.05 130.626C210.398 121.794 193.842 118.385 184.101 129.227C177.617 136.444 174.359 149.146 162.719 149.795C143.288 150.781 142.198 122.276 122.719 123.01C107.301 123.591 101.448 142.371 85.8674 142.239C83.9403 142.242 82.2946 141.755 80.5511 141.015C67.7348 135.57 76.5357 110.368 58.7503 111.133C42.1234 111.847 37.6956 137.403 20.8881 138.387C16.5535 138.64 13.3527 136.779 11.614 132.818Z"/><path fill="#EADDC1" d="M206.583 52.6968C210.18 53.8777 213.768 55.353 217.26 56.8059C216.549 58.3053 213.56 59.2195 211.961 60.6098C208.857 63.3089 211.121 65.908 206.687 67.4341C202.642 68.8263 197.258 69.4787 195.154 73.7431C193.782 76.5256 194.024 81.2695 190.524 82.7675C188.311 83.7149 183.953 82.3366 181.379 81.9227C178.337 88.0203 175.684 92.0501 168.859 94.3869C161.079 97.0502 154.596 94.5767 148.157 90.2448C145.308 91.5045 142.913 92.7869 139.942 93.667C131.547 96.1533 122.915 93.152 117.573 86.3259C116.68 85.1857 115.745 83.5818 114.485 82.8345C111.651 81.3612 106.253 84.5564 103.55 83.2151C99.2986 80.87 99.7868 75.3473 94.9419 73.1124C92.6146 72.0389 91.1147 71.5006 88.6242 70.8295C86.2512 70.19 81.8955 70.1071 80.9558 67.5924C80.1398 65.4089 80.5196 59.4527 77.5253 58.5471C79.4732 57.5765 81.6648 56.6722 83.6751 55.7994C83.8246 58.0019 83.1278 61.9832 83.9661 63.9236C84.5235 65.2137 94.8736 64.8894 98.5772 68.474C102.217 71.997 102.483 77.5729 104.254 79.2283C104.371 79.3379 104.731 79.6143 104.899 79.6332C106.264 79.7862 110.632 77.4731 112.327 76.9703C113.555 76.6058 114.79 76.4799 116.063 76.3958C117.181 79.4547 118.159 81.943 120.508 84.358C123.74 87.6723 128.169 89.5476 132.799 89.5621C138.427 89.5954 142.419 87.3752 146.291 83.5681C149.046 87.0786 152.508 89.2848 156.914 90.1987C161.378 91.0982 166.017 90.1899 169.812 87.6732C174.64 84.4379 176.396 80.5156 177.429 75.078C178.811 75.4392 186.141 78.5703 186.725 77.795C189.226 74.4717 188.233 71.7099 191.167 67.8947C195.406 62.3823 202.572 64.2136 206.232 61.9426C206.716 60.6218 206.236 55.418 206.583 52.6968Z"/><path fill="#EADDC1" d="M276.219 105.665C278.571 109.24 281.982 117.033 277.303 119.999C276.246 120.668 274.494 121.001 273.31 120.584C264.993 117.655 257.745 111.247 249.944 120.054C249.734 119.674 249.582 119.36 249.399 118.967C249.424 117.805 250.486 116.532 251.101 115.535C253.889 110.839 260.485 110.231 265.422 110.884C271.93 111.744 273.366 111.736 276.219 105.665Z"/><path fill="#EADDC1" d="M247.973 135.208C251.375 147.534 257.987 161.617 251.346 173.999C248.104 180.044 240.505 183.041 234.712 178.624C236.639 176.867 240.632 178.451 244.967 173.461C252.575 164.702 249.241 152.606 247.769 142.294C247.402 139.72 248.08 137.641 247.973 135.208Z"/><path fill="#EADDC1" d="M67.9687 71.2784C70.3144 71.6616 70.6143 73.6166 69.0628 74.5485C62.7034 78.3684 58.7856 82.338 53.6024 87.4993C51.3651 86.7375 51.0868 84.8477 52.3365 83.0739C55.6969 78.3044 62.1885 72.7132 67.9687 71.2784Z"/><path fill="#EADDC1" d="M223.923 65.9747C228.7 66.1002 236.108 72.2826 239.248 75.6479C240.803 77.3143 241.378 78.9874 239.446 80.5627C237.116 79.8366 232.855 75.6143 230.545 74.0218C227.99 72.2603 225.174 70.3316 222.685 68.5054L222.586 67.8038C222.806 66.9438 223.293 66.5864 223.923 65.9747Z"/><path fill="#EADDC1" d="M231.059 156.164C234.558 156.937 233.053 163.601 234.552 166.317C235.343 167.751 237.307 170.053 237.361 171.531C237.169 172.395 236.701 172.708 236.057 173.302C233.884 173.217 233.454 172.649 232.114 171.003C229.87 168.248 227.647 158.575 231.059 156.164Z"/><path fill="#EADDC1" d="M259.224 103.2C262.326 103.409 264.632 105.938 261.224 108.042C260.958 108.116 260.684 108.158 260.407 108.166C257.761 108.264 256.602 105.293 259.224 103.2Z"/><path fill="#FEFEF8" d="M22.4 113.974C25.5008 113.949 26.2627 117.419 22.8372 119.152C18.7952 118.101 19.5145 115.902 22.4 113.974Z"/><path fill="#EADDC1" d="M194.331 105.037C195.567 104.819 196.756 105.612 197.029 106.837C197.303 108.062 196.564 109.285 195.352 109.614C194.519 109.839 193.629 109.589 193.035 108.962C192.441 108.335 192.24 107.432 192.51 106.612C192.781 105.792 193.48 105.187 194.331 105.037Z"/><path fill="#EADDC1" d="M165.834 136.434C169.604 136.649 168.996 139.535 166.447 141.388C165.584 140.92 164.497 140.123 163.662 139.545C164.262 137.893 164.372 137.353 165.834 136.434Z"/><path fill="#EADDC1" d="M232.157 110.204C235.227 111.608 234.7 113.687 232.487 115.516C229.512 114.851 229.412 111.83 232.157 110.204Z"/><path fill="#EADDC1" d="M75.3632 103.137C76.5455 102.952 77.6586 103.747 77.8664 104.926C78.0742 106.104 77.3002 107.232 76.1258 107.462C75.3461 107.615 74.5446 107.335 74.03 106.73C73.5154 106.124 73.368 105.288 73.6444 104.543C73.9209 103.798 74.5782 103.261 75.3632 103.137Z"/><path fill="#EADDC1" d="M266.587 104.919C267.951 105.418 269.367 106.68 269.51 108.19C269.145 108.937 268.981 108.813 268.069 109.221C267.429 109.448 266.458 109.189 265.886 108.845C264.783 107.285 265.463 106.208 266.587 104.919Z"/><path fill="#EADDC1" d="M227.548 75.1945C230.659 75.6056 230.983 77.2061 228.839 79.3573C226.541 79.1748 225.552 77.1532 227.548 75.1945Z"/><path fill="#EADDC1" d="M170.814 132.945C171.371 132.639 172.052 132.665 172.584 133.013C173.116 133.36 173.413 133.973 173.357 134.606C173.3 135.239 172.9 135.789 172.314 136.037C171.471 136.395 170.495 136.029 170.095 135.204C169.695 134.38 170.011 133.387 170.814 132.945Z"/><path fill="#EADDC1" d="M201.379 106.674C201.796 106.706 202.082 106.776 202.489 106.856C203.517 108.029 203.051 108.902 202.19 110.055C201.114 109.661 200.596 109.516 200.212 108.394C200.335 107.521 200.742 107.265 201.379 106.674Z"/><path fill="#EADDC1" d="M48.7565 101.448C49.9859 101.565 50.7715 101.501 51.3058 102.723C50.96 103.637 51.0418 103.377 50.097 104.012C49.9025 104.336 49.5317 104.495 49.192 104.695L48.7689 104.457C48.4788 103.579 48.6717 102.4 48.7565 101.448Z"/><path fill="#EADDC1" d="M60.1284 82.6183C61.246 82.6784 61.5796 82.7994 62.1613 83.6964C62.0612 84.7355 62.1995 84.3303 61.4333 85.2577C60.392 85.4527 60.0426 85.6694 59.4806 84.679C59.4912 83.7032 59.6816 83.4518 60.1284 82.6183Z"/><path fill="#EADDC1" d="M115.936 101.613C116.733 101.907 116.837 102.284 116.935 103.009C116.42 104.063 116.659 103.721 115.682 104.411C114.85 103.987 114.643 103.919 114.371 103.07C114.637 102.288 115.233 102.042 115.936 101.613Z"/><path fill="#76AD40" d="M72.2723 8.0634C80.0267 12.317 88.3884 13.3971 97.0358 11.9129C99.2501 11.0706 101.538 10.5577 103.721 9.62187C108.906 19.2333 114.122 24.5998 125.724 24.4742C125.481 29.941 126.922 35.6623 131.002 39.5673C131.747 40.1359 132.512 40.7377 133.266 41.2885C128.231 47.69 129.206 48.4436 128.545 55.5077C127.432 55.89 126.514 56.2088 125.372 56.4847C124.132 55.2235 123.478 54.5811 122.459 53.1115C121.744 50.1005 120.873 38.0572 120.303 36.9454L119.883 36.7957C117.973 38.1443 118.72 47.1518 119.034 49.466C112.448 42.6838 92.0564 22.5186 83.9485 19.7449C87.0374 23.4282 92.8669 28.534 96.4607 32.0018C103.97 39.2476 112.779 47.5833 119.473 55.5707L122.17 58.4596C119.479 61.0201 117.139 63.6203 116.162 67.3143C115.949 68.118 115.731 72.3095 115.09 72.4343C111.772 73.0803 109.988 72.7854 107.019 74.7266C106.43 73.1904 104.669 69.6094 104.39 68.7506C99.8357 62.7472 95.3789 61.0208 87.9938 60.7158L88.0051 56.8116C86.8322 47.3114 82.4214 41.9423 73.8833 38.1524C78.2031 28.3305 76.5425 17.5658 72.2723 8.0634Z"/><path fill="#A9D171" d="M72.2723 8.0634C80.0267 12.317 88.3884 13.3971 97.0358 11.9129C92.6531 14.7647 82.424 11.1786 79.9692 13.4393L79.921 13.8829C84.3958 14.516 87.9783 14.452 92.4835 13.9667C93.6268 13.8435 95.7202 12.9222 96.5471 13.3738C91.5223 14.4355 83.5238 15.5656 78.5611 13.9963C79.8514 23.2584 80.6723 28.0769 76.7329 37.0976C80.59 39.3679 83.715 41.5416 85.9828 45.5903C87.7213 48.694 89.8048 53.3695 88.0051 56.8116C86.8322 47.3114 82.4214 41.9423 73.8833 38.1524C78.2031 28.3305 76.5425 17.5658 72.2723 8.0634Z"/><path fill="#5F8B32" d="M119.473 55.5707L122.17 58.4596C119.479 61.0201 117.139 63.6203 116.162 67.3143C115.949 68.118 115.731 72.3095 115.09 72.4343C111.772 73.0803 109.988 72.7854 107.019 74.7266C106.43 73.1904 104.669 69.6094 104.39 68.7506C106.232 67.5821 111.105 65.4155 112.189 64.3194C115.047 61.431 115.907 58.3808 119.473 55.5707Z"/><path fill="#5F8B32" d="M131.002 39.5673C131.747 40.1359 132.512 40.7377 133.266 41.2885C128.231 47.69 129.206 48.4436 128.545 55.5077C127.432 55.89 126.514 56.2088 125.372 56.4847C124.132 55.2235 123.478 54.5811 122.459 53.1115C124.008 51.9372 126.474 46.5785 127.633 44.5839C128.637 42.8344 129.762 41.158 131.002 39.5673Z"/><path fill="#76AD40" d="M188.066 8.67177C194.826 10.9862 201.858 11.2052 208.73 8.99864C210.392 8.46491 214.075 6.76966 215.504 6.50535L215.658 6.73012L215.165 8.08569C212.582 18.0827 210.74 25.8067 215.851 35.7359C205.921 41.3395 202.085 46.8716 201.976 58.4895C195.127 59.9762 191.208 60.84 186.45 67.1199C185.638 68.1912 184.629 72.1448 183.967 72.5947C182.37 71.9372 177.68 71.1438 177.582 70.6835C176.393 65.1085 174.099 60.0802 167.844 57.5393C168.713 56.605 169.506 55.7542 170.314 54.7599C176.767 46.4638 185.218 38.1238 192.388 30.4781C195.757 26.8859 203.046 20.922 205.394 16.9683C195.896 21.6757 178.564 39.5671 171.261 47.8804C171.318 47.2225 171.362 46.5635 171.392 45.9037C171.464 44.2729 171.948 35.5524 169.975 35.5133C168.483 37.425 169.35 48.5899 167.481 52.4768L167.362 52.7205C166.013 53.862 165.196 56.4726 163.079 56.1131C162.483 55.2389 162.936 48.754 161.446 46.4017C160.856 45.4706 157.101 39.9901 157.082 39.8862L157.538 39.4319C160.826 36.1743 161.773 34.226 163.359 30.0477C163.905 27.3385 164.076 25.4704 164.034 22.7376C175.699 22.7272 180.476 17.0773 185.23 7.55539C186.14 7.94962 187.135 8.31343 188.066 8.67177Z"/><path fill="#5F8B32" d="M212.794 10.1218C213.722 9.15688 214.044 8.78779 215.165 8.08569C212.582 18.0827 210.74 25.8067 215.851 35.7359C205.921 41.3395 202.085 46.8716 201.976 58.4895C195.127 59.9762 191.208 60.84 186.45 67.1199C185.638 68.1912 184.629 72.1448 183.967 72.5947C182.37 71.9372 177.68 71.1438 177.582 70.6835C176.393 65.1085 174.099 60.0802 167.844 57.5393C168.713 56.605 169.506 55.7542 170.314 54.7599C173.356 55.4591 180.986 65.2738 183.179 63.4639C188.298 59.2387 192.824 56.6853 198.737 53.9256C198.821 53.8695 199.944 51.5244 200.015 51.2906C201.107 47.702 202.631 44.3792 204.815 41.2825C206.621 38.7239 210.325 36.5994 213.035 34.8333C212.883 34.5779 212.746 34.314 212.624 34.043C210.798 29.9686 209.683 21.6104 210.534 17.1423C210.952 14.9441 211.99 12.253 212.794 10.1218Z"/><path fill="#A9D171" d="M188.066 8.67177C194.826 10.9862 201.858 11.2052 208.73 8.99864C210.392 8.46491 214.075 6.76966 215.504 6.50535L215.658 6.73012L215.165 8.08569C214.044 8.78779 213.722 9.15688 212.794 10.1218C210.935 11.8269 202.179 12.7938 199.522 12.6085C196.041 12.3656 191.559 10.9764 187.96 10.3009C183.804 16.6634 179.832 21.6051 171.847 24.1083C170.119 24.6499 166.621 24.1593 165.751 25.7593C165.092 26.971 164.923 28.8779 164.096 29.8954L163.359 30.0477C163.905 27.3385 164.076 25.4704 164.034 22.7376C175.699 22.7272 180.476 17.0773 185.23 7.55539C186.14 7.94962 187.135 8.31343 188.066 8.67177Z"/><path fill="#5F8B32" d="M157.538 39.4319C165.01 42.8895 163.805 47.1453 167.362 52.7205C166.013 53.862 165.196 56.4726 163.079 56.1131C162.483 55.2389 162.936 48.754 161.446 46.4017C160.856 45.4706 157.101 39.9901 157.082 39.8862L157.538 39.4319Z"/><path fill="#E1503C" d="M121.348 78.1295C118.325 72.2587 120.178 65.0544 125.66 61.372C131.141 57.6896 138.512 58.6969 142.804 63.715C146.061 67.5224 146.842 72.8614 144.813 77.4424C142.784 82.0233 138.305 85.0323 133.297 85.179C128.289 85.3256 123.641 82.5838 121.348 78.1295Z"/><path fill="#CD3C2C" d="M142.804 63.715C146.061 67.5224 146.842 72.8614 144.813 77.4424C142.784 82.0233 138.305 85.0323 133.297 85.179C128.289 85.3256 123.641 82.5838 121.348 78.1295C124.148 78.5121 126.13 81.4221 128.196 81.9083C131.533 80.2139 134.665 81.1556 138.073 78.6741C141.442 76.2211 142.84 72.9776 143.585 69.0571C142.767 67.4066 142.136 65.4415 142.804 63.715Z"/><path fill="#EADDC1" d="M128.24 62.0759C130.322 62.3805 130.869 63.9576 131.714 65.6309C130.737 67.9129 130.298 69.0162 127.778 69.7232C122.86 69.1786 122.804 62.9106 128.24 62.0759Z"/><path fill="#E1503C" d="M149.118 66.0986C149.997 65.0605 150.965 63.9915 152.033 63.1484C157.592 58.759 166.128 59.1336 170.523 64.9784C172.761 68.1517 173.781 70.6983 173.159 74.7247C171.967 82.4404 165.456 87.1885 157.745 85.8901C153.704 85.2098 151.111 82.2405 148.524 79.3231C148.676 78.9015 149.112 77.6017 149.278 77.2595C150.779 73.4454 150.14 69.9023 149.118 66.0986Z"/><path fill="#CD3C2C" d="M170.523 64.9784C172.761 68.1517 173.781 70.6983 173.159 74.7247C171.967 82.4404 165.456 87.1885 157.745 85.8901C153.704 85.2098 151.111 82.2405 148.524 79.3231C148.676 78.9015 149.112 77.6017 149.278 77.2595C149.598 78.6411 151.469 80.5086 152.823 81.042C155.103 82.0183 157.42 81.3186 159.698 81.0446C165.856 80.3041 169.573 76.0809 170.006 69.9389C170.109 68.4822 169.907 66.327 170.523 64.9784Z"/><path fill="#EADDC1" d="M155.201 62.4852C160.229 62.0569 161.817 66.0717 157.57 69.2887C152.829 70.6974 151.534 65.8714 155.201 62.4852Z"/><path fill="#E1503C" d="M145.868 60.4399C140.744 55.7128 139.376 56.3278 133.625 54.446C133.217 54.0718 132.931 53.4128 132.897 52.8667C132.53 47.1135 138.121 41.1674 143.692 40.5328C148.535 39.9811 150.889 41.1573 154.448 43.8898C156.958 46.286 158.537 49.4772 158.719 52.9692C158.927 56.9327 154.653 56.2279 151.634 57.9073L150.588 58.4359L150.419 58.5573C148.987 59.5996 148.118 61.1513 146.648 61.3272C146.342 61.0206 146.103 60.8092 145.868 60.4399Z"/><path fill="#CD3C2C" d="M154.448 43.8898C156.958 46.286 158.537 49.4772 158.719 52.9692C158.927 56.9327 154.653 56.2279 151.634 57.9073C151.667 55.7879 154.567 51.3715 154.94 48.6471C155.33 45.7978 153.738 45.8424 154.448 43.8898Z"/><path fill="#CD3C2C" d="M145.868 60.4399L146.652 59.4044C147.885 57.7693 148.767 57.8845 150.588 58.4359L150.419 58.5573C148.987 59.5996 148.118 61.1513 146.648 61.3272C146.342 61.0206 146.103 60.8092 145.868 60.4399Z"/><path fill="#EADDC1" d="M140.754 42.6603C142.741 42.4587 144.512 43.915 144.698 45.9037C144.884 47.8924 143.414 49.6518 141.424 49.8222C139.456 49.9907 137.72 48.5403 137.536 46.5735C137.352 44.6067 138.789 42.8596 140.754 42.6603Z"/></svg>