<?xml version="1.0" encoding="utf-8" ?><svg xmlns="http://www.w3.org/2000/svg" xmlns:xlink="http://www.w3.org/1999/xlink" width="257" height="249" viewBox="0 0 257 249"><path fill="#2F0802" d="M110.662 0L149.982 0C151.094 1.36523 155.734 1.85902 157.616 2.25921C176.599 6.29586 194.609 14.8801 210.129 26.471C211.947 27.8289 215.629 30.6115 216.977 32.4242C219.969 34.041 223.563 37.759 225.23 40.6731C231.937 46.4022 243.481 65.7412 246.926 74.4797C248.473 78.4053 250.117 83.0029 251.478 87.0694C252.285 89.4772 253.38 91.8345 254.086 94.2793C254.859 96.9572 255.357 99.7605 256.018 102.466C256.132 102.931 256.594 103.305 257 103.544L257 144.864C256.693 145.206 256.136 145.866 256.054 146.317C252.138 168.029 242.266 188.841 228.413 205.982C225.033 210.165 219.586 214.574 215.826 218.594C214.074 220.466 210.987 222.17 208.996 223.875C192.568 236.35 173.569 244.261 153.346 248.051C153.013 248.113 152.477 248.726 152.249 249L105.28 249C103.848 247.608 95.4338 246.126 93.0047 245.472C82.4106 242.623 72.5557 238.602 62.9054 233.342C59.1618 231.301 55.5918 228.829 52.1037 226.385C30.6693 211.491 14.5927 190.1 6.248 165.369C3.83776 158.354 2.4036 151.623 1.03907 144.366C0.911464 143.688 0.53463 143.596 0 143.305L0 106.989C0.320667 106.61 0.846555 105.852 0.932982 105.366C4.58001 84.865 11.5509 68.2859 23.6227 51.1983C39.4311 28.8215 63.7045 12.8563 89.9803 5.2861C96.2615 3.47648 102.625 2.01825 109.11 1.12834C110.151 0.98507 110.105 0.786642 110.662 0Z"/><path fill="#7C8687" d="M216.977 32.4242C219.969 34.041 223.563 37.759 225.23 40.6731C223.842 39.7166 218.158 33.8296 216.977 32.4242Z"/><path fill="#76C043" d="M82.8395 70.8882C85.0236 70.1775 87.5693 69.6296 89.8635 68.909C94.7546 67.361 99.4628 65.2857 103.905 62.7197C106.9 61.0247 109.474 58.4485 112.487 56.9569C113.827 56.2937 116.316 56.539 117.995 56.2356C124.646 55.033 130.57 52.1907 135.87 48.0181C142.559 61.3459 148.741 72.8642 163.831 78.5458C160.328 79.4776 158.754 80.0828 155.598 81.8674C153.086 83.8935 151.52 86.793 155.58 88.2664C158.98 87.6746 160.124 85.0585 165.737 84.6085C169.093 84.4603 171.271 85.113 174.016 87.1995C175.724 88.8214 176.915 90.5043 179.149 90.4844C180.611 89.7866 180.896 89.3807 181.752 88.0125C181.802 87.0781 181.73 86.417 182.361 85.7438C184.644 89.0696 187.754 93.4392 190.44 96.3724C198.227 104.836 208.531 110.569 219.828 112.724C220.097 112.773 220.367 112.815 220.637 112.851C218.645 114.609 214.733 118.241 212.658 119.438C209.011 121.542 205.487 122.752 202.019 125.495C199.701 127.329 197.662 128.93 195.474 130.991C194.429 131.975 191.802 134.861 190.923 135.431L188.368 138.486C187.486 139.629 186.831 140.422 185.849 141.485C184.38 143.437 182.869 145.356 181.316 147.242C162.773 148.132 148.626 152.328 135.28 166.42C132.531 169.322 131.298 171.33 129.487 174.864C128.232 173.582 126.953 172.241 125.673 170.991C115.252 161.386 101.829 155.353 88.251 151.958C83.7718 150.838 79.5582 149.589 74.9136 149.116C72.997 147.315 70.8678 143.969 69.0071 141.999C63.531 136.2 56.5182 129.755 48.5863 128.025C46.5647 127.539 44.2709 127.356 42.1943 127.439C46.061 118.428 43.3263 111.427 39.987 102.867C58.339 100.807 73.3669 85.6626 82.8395 70.8882Z"/><path fill="#589832" d="M82.8395 70.8882C85.0236 70.1775 87.5693 69.6296 89.8635 68.909C94.7546 67.361 99.4628 65.2857 103.905 62.7197C106.9 61.0247 109.474 58.4485 112.487 56.9569C113.827 56.2937 116.316 56.539 117.995 56.2356C124.646 55.033 130.57 52.1907 135.87 48.0181C142.559 61.3459 148.741 72.8642 163.831 78.5458C160.328 79.4776 158.754 80.0828 155.598 81.8674C155.01 80.9742 151.143 78.9034 149.99 78.0556C143.171 73.0422 137.369 65.9581 134.291 58.0876C131.169 59.7744 123.586 62.7166 120.186 62.8991C112.509 63.3109 111.507 64.9623 105.294 68.7234C100.06 71.8928 91.975 75.1536 85.9021 76.4767L85.4911 76.8797C83.9765 78.377 82.6183 79.5698 82.6081 81.6869C80.388 83.4485 79.3302 84.4023 77.7045 86.7265C77.3546 86.6665 77.213 86.5651 77.0148 86.7426C74.9749 88.5688 73.176 90.5524 71.0761 92.3926C66.0899 96.7621 53.9285 104.834 47.7547 105.918C50.1061 112.051 52.5341 122.034 48.5863 128.025C46.5647 127.539 44.2709 127.356 42.1943 127.439C46.061 118.428 43.3263 111.427 39.987 102.867C58.339 100.807 73.3669 85.6626 82.8395 70.8882Z"/><path fill="#589832" d="M182.361 85.7438C184.644 89.0696 187.754 93.4392 190.44 96.3724C198.227 104.836 208.531 110.569 219.828 112.724C220.097 112.773 220.367 112.815 220.637 112.851C218.645 114.609 214.733 118.241 212.658 119.438C209.011 121.542 205.487 122.752 202.019 125.495C199.701 127.329 197.662 128.93 195.474 130.991C194.429 131.975 191.802 134.861 190.923 135.431C191.232 132.805 191.504 132.457 190.349 130.125C191.75 128.934 193.109 127.251 194.488 125.979C198.823 121.981 202.458 118.474 207.816 115.922C206.942 115.576 206.071 115.219 205.206 114.851C199.203 112.278 192.429 106.526 187.699 101.947C185.615 99.9293 180.248 93.2456 179.149 90.4844C180.611 89.7866 180.896 89.3807 181.752 88.0125C181.802 87.0781 181.73 86.417 182.361 85.7438Z"/><path fill="#589832" d="M125.673 170.991C125.725 170.886 125.779 170.781 125.834 170.678C133.983 155.329 152.302 146.465 168.943 144.253C171.202 143.953 173.446 143.412 175.728 143.12C179.139 142.685 182.555 142.515 185.849 141.485C184.38 143.437 182.869 145.356 181.316 147.242C162.773 148.132 148.626 152.328 135.28 166.42C132.531 169.322 131.298 171.33 129.487 174.864C128.232 173.582 126.953 172.241 125.673 170.991Z"/><path fill="#FD9BA6" d="M188.368 138.486C186.665 138.477 183.167 140.499 180.787 140.589C178.102 140.689 174.736 140.153 172.656 138.4C171.566 137.494 170.902 136.175 170.823 134.761C170.521 129.595 177.309 126.969 181.612 126.838C185.283 126.727 187.715 127.699 190.349 130.125C191.504 132.457 191.232 132.805 190.923 135.431L188.368 138.486Z"/><path fill="#2F0802" d="M82.6081 81.6869C89.1942 77.9334 95.8057 77.3526 102.449 81.4356C105.247 83.1551 107.899 85.611 104.092 88.2032C102.436 89.308 98.7998 86.0244 97.354 85.4172C94.9031 84.1968 91.1931 84.292 88.6153 85.0921C86.0715 85.8816 84.0653 88.612 81.9034 89.9064C79.54 91.3215 77.8339 88.7966 77.7045 86.7265C79.3302 84.4023 80.388 83.4485 82.6081 81.6869Z"/><path fill="#74B645" d="M165.737 84.6085C169.093 84.4603 171.271 85.113 174.016 87.1995C171.765 87.8175 168.904 87.0641 166.783 86.1694C165.988 85.834 166.011 85.4029 165.737 84.6085Z"/><path fill="#2F0802" d="M89.8267 95.0402C98.5287 93.6894 106.687 99.6237 108.081 108.319C109.476 117.014 103.583 125.202 94.8945 126.64C86.1446 128.088 77.8857 122.144 76.4813 113.387C75.0769 104.63 81.0627 96.4007 89.8267 95.0402Z"/><path fill="#FDFBF9" d="M86.8982 100.657C88.6421 100.288 90.4487 100.897 91.6124 102.248C92.776 103.598 93.112 105.475 92.489 107.145C91.866 108.815 90.383 110.014 88.6193 110.272C86.7176 110.551 84.8292 109.689 83.7939 108.07C82.7585 106.451 82.7686 104.375 83.8195 102.766C84.5264 101.683 85.6335 100.925 86.8982 100.657Z"/><path fill="#2F0802" d="M163.806 95.2666C172.461 93.5873 180.838 99.2407 182.519 107.895C184.2 116.549 178.548 124.927 169.894 126.61C161.238 128.293 152.857 122.639 151.176 113.983C149.495 105.326 155.15 96.9463 163.806 95.2666Z"/><path fill="#FDFBF9" d="M162.108 100.658C164.78 100.231 167.29 102.056 167.709 104.73C168.128 107.403 166.296 109.909 163.622 110.32C160.958 110.73 158.464 108.907 158.047 106.244C157.63 103.581 159.446 101.083 162.108 100.658Z"/><path fill="#2F0802" d="M116.588 123.58C121.206 123.418 126.366 123.698 131.078 123.588C135.192 123.685 139.453 123.348 143.542 123.786C148.768 124.345 149.68 129.004 148.917 133.371C147.921 139.066 145.016 142.03 140.499 145.239C128.623 151.117 113.055 147.254 110.546 132.664C109.762 128.105 111.679 124.185 116.588 123.58Z"/><path fill="#FD9BA6" d="M130.622 133.59C135.591 133.288 139.02 134.057 143.088 136.948C142.913 137.17 142.735 137.388 142.554 137.604C139.329 141.432 135.562 142.945 130.695 143.368C125.397 143.557 122.251 142.316 118.187 139.075C122.272 135.557 125.3 134.227 130.622 133.59Z"/><path fill="#FD9BA6" d="M74.7016 127.317C79.3335 126.843 86.8611 128.537 87.9967 133.808C88.2714 135.034 88.0401 136.319 87.355 137.371C86.0102 139.417 83.4499 140.301 81.1722 140.78C76.3528 141.374 68.6384 139.361 67.5728 133.935C67.3462 132.821 67.5776 131.662 68.2149 130.721C69.6549 128.58 72.3147 127.76 74.7016 127.317Z"/><path fill="#74B645" d="M28.8303 143.501C39.6646 125.298 54.7453 133.773 65.3099 146.586C67.0127 148.651 69.7837 152.2 71.9805 153.817C75.2767 155.211 81.0355 155.949 84.7617 156.925C99.9605 160.905 112.409 165.704 123.734 177.22C125.149 178.659 129.388 183.274 130.145 185.047C136.69 192.258 142.962 211.717 143.025 221.45C143.711 225.783 142.634 238.378 141.89 242.836C137.218 243.092 132.656 242.854 128.177 242.981C111.907 243.443 97.2436 241.449 82.0426 235.392C80.7594 234.88 74.4163 232.489 73.4791 231.693C74.1315 230.331 72.476 229.203 73.9893 226.044C72.7324 225.653 72.8262 224.401 69.7491 224.165C69.4497 224.685 69.2913 224.855 68.8908 225.306C68.1735 225.109 68.1585 224.725 67.6561 223.918C66.6955 223.663 61.9347 221.561 60.8169 220.992C60.5835 220.873 60.052 220.041 59.8818 219.751C59.9694 222.617 62.5272 222.586 62.8138 225.657C60.4536 224.46 57.9813 222.855 55.8637 221.309C45.6249 213.833 36.1012 205.133 28.7099 194.78C27.7455 193.429 24.8991 189.882 24.5792 188.362C22.9914 180.815 21.836 172.602 22.4489 164.89C22.9726 159.2 25.3065 147.892 28.8303 143.501Z"/><path fill="#74B645" d="M28.8303 143.501L29.2692 143.918C30.2081 143.727 32.9406 142.366 34.0799 141.942C40.7489 139.46 45.2609 140.078 51.1678 144.008C54.8082 146.429 57.4037 148.791 60.5789 151.749C62.3073 153.359 65.6319 156.849 67.3981 157.884C60.777 165.732 56.6012 176.885 55.1401 187.015C54.9628 188.244 54.5884 193.953 53.8331 194.39C52.9344 193.564 52.1278 192.008 51.3235 191.01C48.854 187.944 44.2657 180.626 41.5982 178.298C44.2899 184.686 47.7294 191.472 51.1212 197.495C53.5465 201.803 55.4108 202.389 56.0917 208.112C56.5227 211.735 58.1139 216.517 59.8818 219.751C59.9694 222.617 62.5272 222.586 62.8138 225.657C60.4536 224.46 57.9813 222.855 55.8637 221.309C45.6249 213.833 36.1012 205.133 28.7099 194.78C27.7455 193.429 24.8991 189.882 24.5792 188.362C22.9914 180.815 21.836 172.602 22.4489 164.89C22.9726 159.2 25.3065 147.892 28.8303 143.501Z"/><path fill="#589832" d="M143.025 221.45C143.711 225.783 142.634 238.378 141.89 242.836C137.218 243.092 132.656 242.854 128.177 242.981C111.907 243.443 97.2436 241.449 82.0426 235.392C80.7594 234.88 74.4163 232.489 73.4791 231.693C74.1315 230.331 72.476 229.203 73.9893 226.044C75.1625 225.971 83.2414 227.665 85.1685 228.024C89.603 228.892 94.0852 229.495 98.5914 229.83C111.211 230.716 123.688 230.232 136.077 227.576C138.307 227.097 140.735 226.38 142.977 226.131C142.937 224.455 142.938 223.123 143.025 221.45Z"/><path fill="#9ED661" d="M28.8303 143.501C39.6646 125.298 54.7453 133.773 65.3099 146.586C67.0127 148.651 69.7837 152.2 71.9805 153.817C75.2767 155.211 81.0355 155.949 84.7617 156.925C99.9605 160.905 112.409 165.704 123.734 177.22C125.149 178.659 129.388 183.274 130.145 185.047L129.993 185.394C128.81 184.398 127.683 182.259 126.602 181.001C115.1 167.618 99.929 160.783 82.9897 156.962C79.0457 156.073 75.0507 155.378 71.3169 154.188C69.2269 152.289 67.3913 149.635 65.4699 147.495C60.0268 141.43 52.3671 133.245 43.5357 133.386C38.2716 133.469 32.5579 138.12 30.0911 142.597L30.3158 142.939C30.5853 142.928 35.7935 141.027 36.687 140.779C49.6165 137.186 58.7806 150.678 67.6687 157.63C67.9497 157.85 73.3248 158.474 74.3286 158.65C76.6818 159.073 79.0226 159.562 81.348 160.117C92.9542 162.836 104.044 168.229 114.249 174.304C116.249 175.495 129.32 185.078 129.769 186.388L129.457 186.488C115.247 172.994 88.3989 159.175 68.5994 158.232C64.3163 165.688 60.9476 180.675 59.8322 189.463C59.3709 193.098 59.541 197.776 59.9129 201.409C62.1131 198.616 64.133 196.041 66.751 193.615C74.8891 186.073 90.5762 178.987 101.76 177.685C102.185 177.634 102.611 177.599 103.038 177.582C89.2409 183.228 66.8591 195.074 62.2594 210.312C64.2674 215.133 65.2646 219.052 67.6561 223.918C66.6955 223.663 61.9347 221.561 60.8169 220.992C60.5835 220.873 60.052 220.041 59.8818 219.751C58.1139 216.517 56.5227 211.735 56.0917 208.112C55.4108 202.389 53.5465 201.803 51.1212 197.495C47.7294 191.472 44.2899 184.686 41.5982 178.298C44.2657 180.626 48.854 187.944 51.3235 191.01C52.1278 192.008 52.9344 193.564 53.8331 194.39C54.5884 193.953 54.9628 188.244 55.1401 187.015C56.6012 176.885 60.777 165.732 67.3981 157.884C65.6319 156.849 62.3073 153.359 60.5789 151.749C57.4037 148.791 54.8082 146.429 51.1678 144.008C45.2609 140.078 40.7489 139.46 34.0799 141.942C32.9406 142.366 30.2081 143.727 29.2692 143.918L28.8303 143.501Z"/><path fill="#9ED661" d="M69.7491 224.165C72.9869 217.604 86.3892 213.537 93.1685 212.993C87.7142 215.655 82.8641 216.978 77.8746 221.202C76.3493 222.493 74.5181 225.635 73.9893 226.044C72.7324 225.653 72.8262 224.401 69.7491 224.165Z"/><path fill="#74B645" d="M136.091 174.678C137.258 172.36 139.663 169.813 141.535 168.046C150.068 159.99 160.066 155.364 171.615 153.674C175.051 153.171 181.199 153.237 184.008 151.855C185.887 150.93 188.935 146.292 190.631 144.479C196.256 138.462 200.653 132.936 207.655 128.485C208.064 130.539 208.748 131.998 209.702 133.822C214.684 140.024 225.695 149.197 233.262 151.519C235.861 153.297 238.772 168.003 241.78 172.097C237.061 182.514 229.826 195.154 221.629 203.269C219.701 205.581 217.863 207.771 215.558 209.741C214.599 210.688 212.1 212.968 211 213.794C209.304 215.498 204.998 219.101 202.825 220.506C200.88 222.877 188.654 229.552 185.213 231.224C173.846 236.749 160.206 241.4 147.532 242.32C150.63 227.009 148.304 208.517 142.032 194.285C140.843 191.586 138.377 187.497 136.895 184.739C135.784 183.011 134.629 181.312 133.431 179.643C134.324 177.813 135.014 176.397 136.091 174.678Z"/><path fill="#589832" d="M139.697 178.949C141.74 182.819 144.18 186.337 146.309 190.141C151.987 200.293 154.707 210.591 155.354 222.152C167.303 217.359 178.497 212.755 188.853 204.847C189.683 204.213 192.35 202.128 193.099 202.242C197.251 206.332 200.853 210.259 203.381 215.57C203.092 216.842 202.388 219.333 202.825 220.506C200.88 222.877 188.654 229.552 185.213 231.224C173.846 236.749 160.206 241.4 147.532 242.32C150.63 227.009 148.304 208.517 142.032 194.285C140.843 191.586 138.377 187.497 136.895 184.739C137.646 183.599 138.352 181.078 139.697 178.949Z"/><path fill="#76C043" d="M218.252 175.85C218.385 176.25 218.469 176.541 218.57 176.95C219.895 182.142 221.052 186.738 221.488 192.123C221.693 194.644 221.236 201.511 221.629 203.269C219.701 205.581 217.863 207.771 215.558 209.741C214.599 210.688 212.1 212.968 211 213.794C209.304 215.498 204.998 219.101 202.825 220.506C202.388 219.333 203.092 216.842 203.381 215.57C200.853 210.259 197.251 206.332 193.099 202.242L192.731 201.899C193.921 201.116 196.736 199.096 197.645 198.117L197.812 198.286C199.244 196.623 203.955 192.391 206.004 191.689C206.108 190.773 206.079 189.508 206.086 188.561C206.27 188.898 206.316 189.667 206.371 190.094C206.966 189.923 210.079 186.125 212.133 184.828L212.368 185.376C212.219 183.806 216.328 178.57 217.686 177.853L217.66 177.68C218.184 176.897 218.205 176.783 218.252 175.85Z"/><path fill="#589832" d="M218.252 175.85C218.385 176.25 218.469 176.541 218.57 176.95C219.895 182.142 221.052 186.738 221.488 192.123C221.693 194.644 221.236 201.511 221.629 203.269C219.701 205.581 217.863 207.771 215.558 209.741C214.599 210.688 212.1 212.968 211 213.794C210.727 212.786 211.185 210.864 211.401 209.775C213.022 201.596 213.115 193.701 212.368 185.376C212.219 183.806 216.328 178.57 217.686 177.853L217.66 177.68C218.184 176.897 218.205 176.783 218.252 175.85Z"/><path fill="#76C043" d="M218.252 175.85C218.385 176.25 218.469 176.541 218.57 176.95C219.895 182.142 221.052 186.738 221.488 192.123C221.693 194.644 221.236 201.511 221.629 203.269C219.701 205.581 217.863 207.771 215.558 209.741C214.349 207.79 217.272 199.962 217.483 196.944C217.949 190.296 218.436 184.507 217.686 177.853L217.66 177.68C218.184 176.897 218.205 176.783 218.252 175.85Z"/><path fill="#589832" d="M197.812 198.286C199.244 196.623 203.955 192.391 206.004 191.689C206.433 194.744 205.866 202.807 205.694 206.068C202.746 202.774 201.29 201.045 197.812 198.286Z"/><path fill="#589832" d="M233.262 151.519C235.861 153.297 238.772 168.003 241.78 172.097C237.061 182.514 229.826 195.154 221.629 203.269C221.236 201.511 221.693 194.644 221.488 192.123C221.052 186.738 219.895 182.142 218.57 176.95C218.597 176.06 219.188 175.257 219.724 174.547C225.112 167.427 228.675 158.945 233.262 151.519Z"/><path fill="#9ED661" d="M136.091 174.678C137.258 172.36 139.663 169.813 141.535 168.046C150.068 159.99 160.066 155.364 171.615 153.674C175.051 153.171 181.199 153.237 184.008 151.855C185.887 150.93 188.935 146.292 190.631 144.479C196.256 138.462 200.653 132.936 207.655 128.485C208.064 130.539 208.748 131.998 209.702 133.822C201.829 138.006 194.741 146.007 189.872 153.375C187.18 157.45 183.324 157.239 178.833 158.04C165.8 160.367 153.086 163.321 143.777 173.564C141.767 175.697 141.06 177.045 139.392 179.176C138.293 177.448 137.521 176.161 136.091 174.678Z"/><path fill="#9ED661" d="M198.047 154.106C199.45 155.593 201.25 158.744 202.345 160.56C207.289 168.754 210.046 175.572 212.133 184.828C210.079 186.125 206.966 189.923 206.371 190.094C206.316 189.667 206.27 188.898 206.086 188.561C205.787 177.264 201.491 164.761 198.047 154.106Z"/><path fill="#76C043" d="M166.343 180.042C169.041 181.018 171.7 182.507 174.299 183.741C183.136 187.94 190.036 191.956 197.645 198.117C196.736 199.096 193.921 201.116 192.731 201.899C187.792 196.552 180.027 190.368 174.346 185.601C172.279 183.867 168.728 182.076 166.343 180.042Z"/><path fill="#76C043" d="M217.66 177.68C217.349 176.351 216.372 172.425 216.82 171.185C217.516 172.702 217.845 174.235 218.252 175.85C218.205 176.783 218.184 176.897 217.66 177.68Z"/><path fill="#74B645" d="M148.018 6.92571C154.956 7.91951 161.805 9.45855 168.501 11.5285C180.63 15.4112 199.124 24.9192 208.632 33.5024C210.431 34.8487 212.704 36.6653 214.227 38.3306L215.585 39.7323C217.669 41.8097 219.635 43.7552 221.593 45.9561C227.125 51.8996 232.315 59.8273 236.189 66.9731C239.714 72.7711 245.331 86.5321 246.677 93.0637C243.147 94.1728 241.474 95.069 238.231 96.8699C233.443 100.022 229.686 103.437 225.784 107.594C211.585 107.339 197.86 98.379 190.102 87.1028C188.444 84.6922 185.656 80.4973 183.472 78.8047C181.974 77.6437 177.169 77.1678 175.169 76.4858C168.695 74.8527 160.327 71.3098 155.293 66.9295C147.03 59.7396 138.393 43.6618 137.482 32.7142C136.642 22.6211 141.678 14.1832 148.018 6.92571Z"/><path fill="#9ED661" d="M208.632 33.5024C210.431 34.8487 212.704 36.6653 214.227 38.3306C212.958 39.0982 209.698 43.9758 208.377 45.6016C209.342 56.5465 208.639 66.2762 206.316 77.0059C205.701 79.8445 205.065 83.0585 204.04 85.7603C203.86 82.6493 204.361 77.6758 204.432 74.3074C204.605 66.8297 204.423 59.348 203.886 51.8876C198.227 57.1889 193.627 62.3938 188.806 68.396C189.875 65.0175 195.244 56.3445 197.315 53.211C191.655 54.624 182.862 55.3836 176.911 56.4529C174.223 56.9358 165.64 58.3746 163.281 58.4336C171.362 54.9052 181.3 52.5269 189.834 50.0429C191.656 49.5125 199.773 47.8632 200.844 47.0027C203.097 45.1937 205.233 40.1944 207.652 37.9132L207.736 37.8355C199.899 37.1866 185.164 35.4972 177.948 35.8732L177.907 35.6708C180.132 35.6512 207.966 33.8205 208.495 33.5734C208.542 33.5517 208.587 33.5261 208.632 33.5024Z"/><path fill="#589832" d="M236.189 66.9731C239.714 72.7711 245.331 86.5321 246.677 93.0637C243.147 94.1728 241.474 95.069 238.231 96.8699C237.968 94.1639 238.602 87.9994 238.436 84.5083C238.141 78.2671 237.187 73.0912 236.189 66.9731Z"/><path fill="#9ED661" d="M215.585 39.7323C217.669 41.8097 219.635 43.7552 221.593 45.9561C220.937 46.8933 220.91 52.3094 220.792 53.8319C220.39 58.9801 219.394 63.6021 218.182 68.618C218.023 67.4088 217.986 66.0646 217.969 64.8673C217.857 56.8217 217.069 49.0095 214.925 41.2328C214.762 40.642 215.251 40.1702 215.585 39.7323Z"/><path fill="#74B645" d="M18.3789 71.9171C20.087 69.3349 21.935 65.2434 23.8047 62.2336C29.3855 53.2494 36.7986 44.6057 44.5779 37.4497C66.6742 17.1236 94.685 7.15835 124.456 5.73954C130.242 5.46376 135.717 6.00307 141.468 6.29212C140.066 7.84632 138.84 9.77144 137.661 11.5176C132.657 20.7887 131.308 26.0614 132.213 36.4072C132.689 38.284 133.19 40.1547 133.714 42.0188C129.153 47.3403 124.216 49.6675 117.284 50.3861C115.405 50.5808 112.126 50.8504 110.502 51.6602C107.904 52.9564 105.479 55.2669 102.917 56.8313C95.1258 61.5899 88.6047 63.6312 79.8669 65.7564C77.2303 68.9093 75.1888 72.8438 72.6748 75.87C63.2496 87.2152 52.6176 95.1385 37.9017 97.7903C34.6962 92.0476 30.7096 86.5516 26.7916 81.2895C23.9179 77.693 21.6167 75.1955 18.3789 71.9171Z"/><path fill="#9ED661" d="M18.3789 71.9171C20.087 69.3349 21.935 65.2434 23.8047 62.2336C29.3855 53.2494 36.7986 44.6057 44.5779 37.4497C66.6742 17.1236 94.685 7.15835 124.456 5.73954C130.242 5.46376 135.717 6.00307 141.468 6.29212C140.066 7.84632 138.84 9.77144 137.661 11.5176C135.695 11.1943 129.789 11.8642 127.667 12.1603C106.083 15.172 89.6565 23.144 72.2953 35.5922L71.7915 35.9561C75.5608 36.5276 79.3543 36.4403 83.0165 36.9247C88.9476 37.7093 95.9678 39.1062 101.714 40.7252C97.4283 40.8008 93.0126 40.084 88.6796 40.0348C84.0422 39.9822 79.4217 40.4566 74.8024 40.1688C78.7533 43.0063 89.7622 52.0222 91.7328 55.7748C87.8341 52.8606 84.2961 51.1768 80.1089 48.7655C75.0974 45.8796 70.2544 42.9624 65.1211 40.2808L60.3047 45.0415C61.8294 49.3535 64.7155 67.1136 64.856 71.8232C63.946 69.3274 58.8563 51.6717 57.7575 51.145C57.5845 51.062 57.419 51.007 57.2355 50.949C56.8748 56.2425 52.6001 64.6079 46.8154 59.5967C45.0778 61.3005 42.5459 65.5028 40.9473 67.6168C35.7092 66.6751 30.0894 74.5444 28.1081 78.5259C27.7696 79.2061 26.9278 80.6312 26.7916 81.2895C23.9179 77.693 21.6167 75.1955 18.3789 71.9171Z"/><path fill="#E7F9B2" d="M51.3086 47.7603C55.0094 47.5488 55.7968 47.4667 57.2355 50.949C56.8748 56.2425 52.6001 64.6079 46.8154 59.5967C45.0041 54.8696 47.014 50.2426 51.3086 47.7603Z"/><path fill="#9ED661" d="M38.8541 94.7992L39.0589 95.2107L39.4794 95.2963C41.8129 93.8799 44.6151 92.9857 46.8957 91.6157C55.7276 86.3106 63.3001 79.5158 69.7597 71.499C71.262 69.8197 74.6305 63.6106 76.6356 62.8386C81.2838 61.049 86.2147 60.505 91.0641 58.38C94.5069 56.8615 97.8272 55.079 100.995 53.0486C103.124 51.6886 106.78 48.8879 108.901 48.1114C112.269 46.8788 117.883 48.0078 121.254 46.2617C124.229 44.6433 126.711 42.2939 128.941 39.7785C129.694 38.9295 131.274 36.6617 132.213 36.4072C132.689 38.284 133.19 40.1547 133.714 42.0188C129.153 47.3403 124.216 49.6675 117.284 50.3861C115.405 50.5808 112.126 50.8504 110.502 51.6602C107.904 52.9564 105.479 55.2669 102.917 56.8313C95.1258 61.5899 88.6047 63.6312 79.8669 65.7564C77.2303 68.9093 75.1888 72.8438 72.6748 75.87C63.2496 87.2152 52.6176 95.1385 37.9017 97.7903C38.6534 97.097 38.7004 95.8242 38.8541 94.7992Z"/><path fill="#E7F9B2" d="M26.7916 81.2895C26.9278 80.6312 27.7696 79.2061 28.1081 78.5259C30.0894 74.5444 35.7092 66.6751 40.9473 67.6168C42.7934 68.4268 43.1094 68.927 44.2423 70.62C44.4263 75.3539 42.7766 78.5261 41.6876 83.0053C40.796 86.6725 39.4971 91.1581 38.8541 94.7992C38.7004 95.8242 38.6534 97.097 37.9017 97.7903C34.6962 92.0476 30.7096 86.5516 26.7916 81.2895Z"/><path fill="#76C043" d="M15.9295 77.1964C24.5094 87.3298 31.6318 95.3968 36.1892 108.411C38.9495 116.294 40.0485 123.309 33.6847 130.235C33.1497 130.817 31.0293 132.156 30.2786 132.69C28.9166 134.102 27.5864 135.545 26.2889 137.017C19.2944 145.019 15.7644 162.776 16.471 173.398C7.86522 154.754 5.12207 136.964 6.04638 116.526C7.45294 102.591 10.1676 90.0633 15.9295 77.1964Z"/><defs><linearGradient id="gradient_0" gradientUnits="userSpaceOnUse" x1="32.92852" y1="141.56354" x2="7.9096689" y2="145.05644"><stop offset="0" stop-color="#5EAC36"/><stop offset="1" stop-color="#9ED263"/></linearGradient></defs><path fill="url(#gradient_0)" d="M6.04638 116.526L6.2135 116.609C6.33787 117.615 6.17952 118.097 7.39317 118.298C8.61932 118.501 9.67144 118.455 10.9018 118.737C12.4351 120.063 17.4878 119.839 18.0185 121.949C17.5728 123.233 15.113 124.245 15.1616 125.335C16.0404 124.786 17.2816 123.468 18.0602 122.699C17.6913 124.431 17.3109 125.711 17.3733 127.472C17.3774 127.628 17.3874 127.783 17.4034 127.937C19.7613 126.206 21.6214 124.593 24.1311 123.022C26.6055 124.492 29.4119 126.077 31.7653 127.691C31.0673 128.906 29.2862 131.381 30.2786 132.69C28.9166 134.102 27.5864 135.545 26.2889 137.017C19.2944 145.019 15.7644 162.776 16.471 173.398C7.86522 154.754 5.12207 136.964 6.04638 116.526Z"/><path fill="#9ED661" d="M15.1616 125.335C16.0404 124.786 17.2816 123.468 18.0602 122.699C17.6913 124.431 17.3109 125.711 17.3733 127.472C17.3774 127.628 17.3874 127.783 17.4034 127.937C17.055 128.915 10.0684 134.395 9.44867 134.514L9.29834 134.089C10.0833 131.388 13.3388 127.503 15.1616 125.335Z"/><path fill="#74B645" d="M19.4613 115.203C19.6094 111.788 24.1728 96.7117 25.8004 93.4688C27.0792 95.0541 28.2085 96.6212 29.1405 98.437C33.098 106.148 37.3291 114.324 34.2298 123.072C29.9567 120.915 22.8254 118.033 19.4397 115.377L19.4613 115.203Z"/><path fill="#9ED661" d="M16.4128 117.3C15.2218 115.346 9.34731 104.368 9.99831 102.796C10.7341 103.125 18.9966 114.124 19.4613 115.203L19.4397 115.377C18.9184 117.697 18.7831 118.408 17.9031 120.582C16.2184 120.033 12.6693 118.992 10.9018 118.737C9.67144 118.455 8.61932 118.501 7.39317 118.298C6.17952 118.097 6.33787 117.615 6.2135 116.609C8.27489 116.346 14.1854 116.991 16.4128 117.3Z"/><path fill="#9ED661" d="M243.024 100.565C248.969 96.7623 249.046 97.8505 249.866 104.294C252.765 119.794 252.183 140.135 247.634 155.326C246.647 158.62 246.008 161.515 244.764 164.754C242.737 160.082 241.293 155.167 239.519 150.413C238.561 147.845 237.459 147.142 235.144 146.195C227.535 142.897 219.432 137.676 214.461 130.881C212.577 128.306 213.33 126.57 215.524 124.504C218.409 121.788 221.571 119.368 224.515 116.671C228.268 113.232 231.651 109.213 235.512 105.94C237.849 103.926 240.364 102.128 243.024 100.565Z"/><path fill="#589832" d="M243.024 100.565C248.969 96.7623 249.046 97.8505 249.866 104.294C252.765 119.794 252.183 140.135 247.634 155.326C246.647 158.62 246.008 161.515 244.764 164.754C242.737 160.082 241.293 155.167 239.519 150.413C238.561 147.845 237.459 147.142 235.144 146.195C235.589 144.841 236.121 143.961 236.335 142.467L236.455 142.462C236.628 141.043 239.339 133.065 239.903 131.117L239.999 130.702C241.066 130.345 243.936 128.553 244.25 127.499L243.845 127.234C242.711 127.176 242.164 127.353 241.051 127.618C240.689 126.733 242.478 117.392 242.697 115.586C243.079 112.439 243.291 109.488 243.456 106.278L243.529 106.078C243.232 104.282 244.262 101.695 243.024 100.565Z"/><path fill="#76C043" d="M236.335 142.467L236.455 142.462C246.897 145.76 243.758 154.14 247.634 155.326C246.647 158.62 246.008 161.515 244.764 164.754C242.737 160.082 241.293 155.167 239.519 150.413C238.561 147.845 237.459 147.142 235.144 146.195C235.589 144.841 236.121 143.961 236.335 142.467Z"/><path fill="#76C043" d="M243.024 100.565C248.969 96.7623 249.046 97.8505 249.866 104.294C248.656 104.59 244.024 106.051 243.529 106.078C243.232 104.282 244.262 101.695 243.024 100.565Z"/><path fill="#74B645" d="M230.029 131.647C229.927 127.539 229.24 123.749 228.424 119.74C228.13 118.291 230.805 115.559 231.896 114.613C235.139 111.8 239.42 107.862 243.456 106.278C243.291 109.488 243.079 112.439 242.697 115.586C242.478 117.392 240.689 126.733 241.051 127.618C242.164 127.353 242.711 127.176 243.845 127.234L244.25 127.499C243.936 128.553 241.066 130.345 239.999 130.702C240.166 129.616 240.34 128.759 240.59 127.688C237.668 128.126 232.778 130.351 230.029 131.647Z"/><path fill="#74B645" d="M229.406 138.38C229.575 138.1 229.751 137.824 229.932 137.552C231.722 134.885 236.816 131.713 239.903 131.117C239.339 133.065 236.628 141.043 236.455 142.462L236.335 142.467C234.147 141.074 231.738 139.869 229.406 138.38Z"/><path fill="#74B645" d="M227.229 119.959C227.688 121.77 225.764 133.236 225.367 135.706C223.885 134.758 223.382 134.411 222.095 133.211C220.919 131.716 220.153 130.443 219.263 128.777C221.9 125.162 223.894 122.981 227.229 119.959Z"/><path fill="#76C043" d="M59.8818 219.751C60.052 220.041 60.5835 220.873 60.8169 220.992C61.9347 221.561 66.6955 223.663 67.6561 223.918C68.1585 224.725 68.1735 225.109 68.8908 225.306C69.2913 224.855 69.4497 224.685 69.7491 224.165C72.8262 224.401 72.7324 225.653 73.9893 226.044C72.476 229.203 74.1315 230.331 73.4791 231.693C69.7704 229.94 66.1461 228.061 62.8138 225.657C62.5272 222.586 59.9694 222.617 59.8818 219.751Z"/><path fill="#55822F" d="M181.752 88.0125C181.322 85.2912 180.179 84.7406 178.548 82.409C180.449 83.484 181.229 83.8161 182.361 85.7438C181.73 86.417 181.802 87.0781 181.752 88.0125Z"/></svg>