<?xml version="1.0" encoding="utf-8" ?><svg xmlns="http://www.w3.org/2000/svg" xmlns:xlink="http://www.w3.org/1999/xlink" width="311" height="302" viewBox="0 0 311 302"><path fill="#331109" d="M111.604 0L129.686 0C130.762 1.12136 131.997 1.2634 133.424 1.13228C142.432 0.304514 149.273 2.49604 156.796 7.30759C158.429 8.35241 161.193 9.03803 162.782 10.0084C165.184 10.0725 167.441 10.0426 169.842 10.0087C171.178 9.33169 173.877 8.57156 175.722 7.65318C179.122 6.01941 182.459 4.30605 185.901 2.76573C187.333 2.12467 191.927 0.966123 192.605 0L213.392 0C215.995 2.30176 220.217 3.7487 223.128 6.6987C228.211 11.8515 232.577 22.4213 241.111 21.8686C246.389 21.0996 252.843 18.8646 258.688 17.6466C261.22 17.0097 263.794 16.9621 266.329 17.6351C275.32 19.5302 279.873 27.2086 282.653 35.3068C283.461 37.6623 284.203 39.7145 285.45 41.8801C291.169 44.9052 294.148 47.6771 296.079 53.9976C298.146 60.7648 298.545 68.0408 300.074 74.9596C302.051 83.9021 305.367 92.5097 307.309 101.451C307.863 104 309.995 118.404 310.738 119.266C310.791 119.328 310.841 119.392 310.895 119.452C310.928 119.488 310.965 119.521 311 119.556L311 158.477C309.569 160.128 309.38 166.3 308.897 168.79C307.738 174.757 306.532 180.719 304.809 186.557C297.279 212.675 283.332 236.493 264.24 255.841C248.726 271.332 230.204 283.482 209.816 291.542C202.002 294.524 193.993 296.965 185.845 298.849C181.233 299.934 176.451 300.379 171.783 301.16C171.354 301.231 170.949 301.67 170.678 302L138.536 302C137.416 300.85 132.154 300.637 130.231 300.32C101.143 295.529 71.7529 281.709 49.9935 261.403C30.7485 243.54 16.2346 221.181 7.75169 196.331C6.52424 192.694 4.59547 186.177 3.72864 182.547C2.96305 179.435 2.34104 176.29 1.86458 173.121C1.55064 171.078 1.31715 166.865 0 165.455L0 115.547C1.36557 114.448 1.85141 107.822 2.32353 105.411C4.97881 91.8531 10.7479 78.6756 13.7435 65.4022C14.5689 61.5926 15.2037 57.7442 15.6455 53.8713C16.3293 48.2739 16.3814 43.0217 19.1124 38.0994C22.8411 31.379 29.5147 31.444 35.3509 28.0257C36.2617 27.4922 38.056 24.9498 38.6871 23.9488C41.7053 19.1624 45.0665 15.5687 50.6823 13.9236C54.0936 12.8067 56.6237 12.9591 60.0728 13.6425C63.4226 14.3333 67.5867 15.8484 70.8569 17.0056C74.3962 17.7424 76.1822 18.1373 79.9034 18.1197C80.792 18.1155 84.118 18.006 84.8115 18.0603C92.3877 14.9797 95.8875 8.19577 103.08 4.07055C105.131 2.89426 110.962 0.950447 111.604 0Z"/><path fill="#835B4B" d="M70.8569 17.0056C74.3962 17.7424 76.1822 18.1373 79.9034 18.1197C80.792 18.1155 84.118 18.006 84.8115 18.0603C82.5858 19.1346 72.2729 18.8292 70.8569 17.0056Z"/><path fill="#835B4B" d="M50.6823 13.9236C54.0936 12.8067 56.6237 12.9591 60.0728 13.6425C58.8309 13.7358 51.6357 14.0876 50.6823 13.9236Z"/><path fill="#835B4B" d="M169.842 10.0087C168.845 11.2019 164.232 10.7945 162.782 10.0084C165.184 10.0725 167.441 10.0426 169.842 10.0087Z"/><path fill="#835B4B" d="M258.688 17.6466C261.22 17.0097 263.794 16.9621 266.329 17.6351C264.6 17.8096 260.403 17.8726 258.688 17.6466Z"/><path fill="#D7A452" d="M31.9783 40.839C32.6364 40.1263 33.2166 39.9461 34.0934 39.6653L34.213 39.7482C34.5206 40.9505 34.7904 42.2214 35.3318 43.3313C43.1582 55.4912 60.591 45.6086 65.6381 63.4999C68.674 71.6865 68.0884 77.1005 76.2292 82.5374C73.827 85.2156 71.0354 88.0447 69.3017 91.1606C71.1623 90.5523 73.8955 89.2891 75.2328 88.8891C86.1959 84.1454 95.1657 72.9494 107.135 70.4983C123.587 67.1289 137.861 77.6953 152.216 83.3869C161.146 86.928 175.7 76.3792 183.323 72.433C193.098 67.1985 203.356 62.7289 215.02 66.0121C224.168 67.3243 234.094 77.8072 239.798 84.4242C242.124 87.123 244.151 89.5638 247.024 91.7328C246.628 89.94 246.241 88.0908 245.806 86.3122C245.264 84.654 244.402 82.3518 243.577 80.8437C253.45 72.8946 250.936 62.1009 258.979 54.6615C264.739 49.3335 272.94 53.0642 281.408 46.647C282.462 47.4082 283.667 48.1831 284.754 48.916C290.552 51.7697 291.161 61.1301 292.042 66.7684C292.713 71.0587 293.351 75.3235 294.471 79.5374C297.09 89.2766 300.153 98.3712 302.038 108.324C308.741 143.508 303.684 179.92 287.646 211.945C269.24 248.19 237.277 275.708 198.699 288.523C162.165 300.473 122.365 297.284 88.1998 279.669C81.2724 276.176 76.2045 272.908 69.9199 268.472C64.8836 265.191 60.1242 261.504 55.6892 257.447C54.2875 256.206 52.3651 254.42 51.1713 253.031C39.1337 242.195 26.9926 223.997 20.2919 209.303C15.467 201.57 9.21371 177.939 7.78737 168.753C9.08032 168.614 9.82465 165.869 13.118 165.77C13.3942 163.942 12.7173 159.479 12.5884 157.425C11.2824 136.613 12.9866 115.736 18.4816 95.5844C20.4302 88.4381 23.6011 81.1477 24.79 73.688C25.466 69.4468 26.0969 65.0995 26.159 60.7641C26.7105 53.9235 25.2458 44.86 31.9783 40.839Z"/><path fill="#C7863A" d="M284.754 48.916C290.552 51.7697 291.161 61.1301 292.042 66.7684C292.713 71.0587 293.351 75.3235 294.471 79.5374C297.09 89.2766 300.153 98.3712 302.038 108.324C308.741 143.508 303.684 179.92 287.646 211.945C269.24 248.19 237.277 275.708 198.699 288.523C162.165 300.473 122.365 297.284 88.1998 279.669C81.2724 276.176 76.2045 272.908 69.9199 268.472C70.2792 268.376 71.0241 268.187 71.3749 268.298C77.0417 270.094 82.6474 272.264 88.3897 273.802C90.6756 274.414 93.0823 274.916 95.3951 275.444C117.686 280.523 140.813 280.717 163.186 276.013C164.328 275.78 171.232 274.356 171.833 273.805L172.017 274.297C174.416 273.042 176.876 272.306 179.371 271.316C184.049 269.46 189.926 267.421 194.359 265.158C200.126 262.152 205.72 258.825 211.114 255.193C213.598 253.496 217.945 250.135 220.289 248.793L220.494 248.677L220.444 248.496C223.143 247.23 235.559 235.57 238.055 232.715C239.219 231.384 242.891 227.142 244.148 226.379C246.585 226.576 247.635 224.264 246.99 222.049C249.324 220.828 257.096 208.339 258.809 205.474C260.079 203.35 261.97 199.341 263.532 197.242L264.136 197.064C265.499 195.835 266.836 193.125 266.132 191.31C266.561 190.683 267.428 188.839 267.769 188.094C283.56 153.629 288.334 112.823 283.847 75.348C283.291 70.7023 281.5 56.4115 279.95 52.2419C281.495 51.3052 283.487 50.1639 284.754 48.916Z"/><path fill="#A1511F" d="M220.494 248.677C221.696 250.173 222.037 252.246 221.692 254.136C219.804 264.463 209.225 272.138 199.725 275.021C197.952 275.559 195.801 275.455 194.024 276.137C185.998 279.499 178.783 282.097 172.017 274.297C174.416 273.042 176.876 272.306 179.371 271.316C184.049 269.46 189.926 267.421 194.359 265.158C200.126 262.152 205.72 258.825 211.114 255.193C213.598 253.496 217.945 250.135 220.289 248.793L220.494 248.677Z"/><path fill="#A1511F" d="M257.161 228.784C259.406 228.324 261.96 231.141 261.447 233.574C261.292 234.342 260.828 235.012 260.165 235.428C258.921 236.206 257.644 236.059 256.302 235.777C254.42 235.84 251.723 234.965 251.426 232.862C251.217 231.383 252.066 230.628 252.918 229.574C254.504 229.374 255.618 229.272 257.161 228.784Z"/><path fill="#A1511F" d="M271.917 213.233C274.598 213.127 274.743 213.472 276.054 215.704C275.301 218.158 273.821 219.941 272.131 221.798C272.003 221.799 271.874 221.799 271.746 221.796C265.544 221.676 269.141 215.445 271.917 213.233Z"/><path fill="#A1511F" d="M240.763 247.754C242.334 247.635 244.12 247.877 244.975 249.425C245.347 250.106 245.409 250.914 245.147 251.644C244.665 253.022 243.471 253.691 242.24 254.25C236.96 254.498 235.455 250.177 240.763 247.754Z"/><path fill="#B36C2B" d="M280.64 174.944C284.808 174.875 284.606 178.382 281.853 180.719C277.306 181.355 278.152 177.243 280.64 174.944Z"/><path fill="#A95A24" d="M213.905 269.215C217.087 269.083 217.238 269.372 218.699 272.1L216.856 274.04C213.587 275.357 211.8 272.301 213.905 269.215Z"/><path fill="#A1511F" d="M158.797 283.75C157.579 282.611 156.448 281.017 158.037 279.529C158.62 278.991 159.393 278.71 160.185 278.749C163.615 278.913 162.951 284.063 160.017 283.972L158.797 283.75Z"/><path fill="#B36C2B" d="M158.797 283.75C158.848 282.822 158.786 281.87 159.255 281.118L159.678 281.071C160.357 281.846 160.083 282.596 159.833 283.544L160.017 283.972L158.797 283.75Z"/><path fill="#A1511F" d="M290.388 122.209C294.292 122.056 294.868 125.233 291.615 127.469C290.107 127.72 288.512 126.068 288.775 124.57C289.013 123.214 289.447 123.063 290.388 122.209Z"/><path fill="#B36C2B" d="M280.379 184.425C283.66 184.502 284.77 187.674 281.304 189.842C279.925 189.791 279.049 188.517 278.157 187.55C278.753 185.922 279.003 185.458 280.379 184.425Z"/><path fill="#B36C2B" d="M232.967 241.252C233.486 241.213 234.379 241.524 234.706 241.905C236.412 243.898 234.765 245.213 233.475 246.083C230.646 246.824 228.45 242.724 232.967 241.252Z"/><path fill="#A1511F" d="M233.475 246.083C230.646 246.824 228.45 242.724 232.967 241.252C232.752 242.052 232.647 242.432 232.314 243.207C232.484 244.807 233.137 244.519 233.475 246.083Z"/><path fill="#A95A24" d="M285.264 143.17C288.467 140.831 291.121 144.556 288.182 146.797C285.467 147.685 283.001 145.401 285.264 143.17Z"/><path fill="#A1511F" d="M285.264 143.17C288.467 140.831 291.121 144.556 288.182 146.797C287.819 146.519 287.198 146.173 286.788 145.926C287.734 144.96 287.855 144.914 287.507 143.711C286.249 143.799 286.164 143.769 285.264 143.17Z"/><path fill="#B36C2B" d="M286.788 145.926C285.933 145.496 286.21 145.753 285.708 144.976L285.822 144.463C286.615 143.746 286.372 143.954 287.507 143.711C287.855 144.914 287.734 144.96 286.788 145.926Z"/><path fill="#B36C2B" d="M290.476 174.249C289.834 173.547 289.159 172.959 288.88 172.077C289.323 171.032 289.889 171.194 290.458 170.381C291.038 169.552 291.116 169.767 292.075 169.703C292.967 170.095 293.604 171.383 293.757 172.302C293.442 174.468 292.216 174.296 290.476 174.249Z"/><path fill="#A1511F" d="M292.075 169.703C292.404 170.808 292.253 172.218 291.566 173.16C290.71 173.638 291.083 173.571 290.162 173.467C289.978 173.087 289.874 172.757 289.738 172.36C290.206 171.129 290.985 170.409 292.075 169.703Z"/><path fill="#B36C2B" d="M13.3136 166.462L13.5538 165.746C14.1668 165.49 14.2974 165.529 14.9807 165.531C16.0518 164.8 17.2741 159.889 21.2556 161.194C28.2437 163.485 27.584 175.324 30.2187 180.869C31.1003 182.725 34.1683 182.219 35.5022 183.616C40.3131 187.849 49.9627 201.101 48.4419 207.697C48.1662 208.893 47.2092 210.806 46.5301 211.831C46.8756 215.62 46.4233 221.042 41.4024 220.984C35.5855 220.916 33.9455 213.18 31.0167 209.363C30.4916 208.678 29.9951 208.046 29.4435 207.394C26.3751 208.634 25.5653 207.8 24.0111 208.273L23.9663 208.424C23.1001 208.445 20.9878 208.838 20.2919 209.303C15.467 201.57 9.21371 177.939 7.78737 168.753C9.08032 168.614 9.82465 165.869 13.118 165.77L13.3136 166.462Z"/><path fill="#E9C084" d="M7.78737 168.753C9.08032 168.614 9.82465 165.869 13.118 165.77L13.3136 166.462C15.5071 180.676 18.2136 194.966 24.0111 208.273L23.9663 208.424C23.1001 208.445 20.9878 208.838 20.2919 209.303C15.467 201.57 9.21371 177.939 7.78737 168.753Z"/><path fill="#FBDEAA" d="M75.2328 88.8891C86.1959 84.1454 95.1657 72.9494 107.135 70.4983C123.587 67.1289 137.861 77.6953 152.216 83.3869C161.146 86.928 175.7 76.3792 183.323 72.433C193.098 67.1985 203.356 62.7289 215.02 66.0121C213.571 67.1593 207.644 67.7531 205.483 68.4163C192.362 72.4434 181.748 82.0171 169.395 87.3889C159.049 91.8881 148.754 85.1625 139.419 81.4807C128.723 76.5947 115.887 74.5904 104.48 78.0693C99.606 79.5556 93.5457 82.1317 88.8257 84.3569C84.7208 86.2921 80.2656 87.5616 76.2781 89.3456C75.5235 89.2305 75.7744 89.3695 75.2328 88.8891Z"/><path fill="#B36C2B" d="M171.833 273.805C171.688 272.867 171.505 270.855 171.981 270.012C174.935 265.048 180.959 262.991 185.569 259.653C191.162 255.603 193.332 247.078 200.801 246.155C203.562 245.814 205.234 246.541 207.327 248.16C212.247 246.357 216.022 244.687 220.444 248.496L220.494 248.677L220.289 248.793C217.945 250.135 213.598 253.496 211.114 255.193C205.72 258.825 200.126 262.152 194.359 265.158C189.926 267.421 184.049 269.46 179.371 271.316C176.876 272.306 174.416 273.042 172.017 274.297L171.833 273.805Z"/><path fill="#FBDEAA" d="M281.408 46.647C282.462 47.4082 283.667 48.1831 284.754 48.916C283.487 50.1639 281.495 51.3052 279.95 52.2419C274.006 54.9349 269.296 55.3018 263.875 58.9979C257.973 63.0229 251.116 85.1596 245.806 86.3122C245.264 84.654 244.402 82.3518 243.577 80.8437C253.45 72.8946 250.936 62.1009 258.979 54.6615C264.739 49.3335 272.94 53.0642 281.408 46.647Z"/><path fill="#FBDEAA" d="M32.9895 43.7373C33.7732 43.6195 34.5542 43.4841 35.3318 43.3313C43.1582 55.4912 60.591 45.6086 65.6381 63.4999C64.8067 63.7485 63.4681 62.2511 62.6792 61.6984C61.251 60.7176 59.7624 59.8278 58.2223 59.0343C51.4468 55.5739 32.4857 53.9078 32.9895 43.7373Z"/><path fill="#FBDEAA" d="M20.2919 209.303C20.9878 208.838 23.1001 208.445 23.9663 208.424C26.6918 214.252 34.3587 230.842 38.8396 235.441C39.2136 235.998 40.0269 237.267 40.4214 237.709C41.8811 240.466 48.9728 249.625 51.2642 251.911L51.1713 253.031C39.1337 242.195 26.9926 223.997 20.2919 209.303Z"/><path fill="#B36C2B" d="M263.532 197.242C263.388 197.166 262.963 196.919 262.843 196.882C259.445 195.833 259.899 189.65 263.628 189.517C264.737 189.477 265.461 190.544 266.132 191.31C266.836 193.125 265.499 195.835 264.136 197.064L263.532 197.242Z"/><path fill="#B36C2B" d="M38.8396 235.441C39.5797 234.286 40.0505 233.113 41.1054 232.382C44.2834 231.911 46.5987 237.035 40.4214 237.709C40.0269 237.267 39.2136 235.998 38.8396 235.441Z"/><path fill="#B36C2B" d="M244.148 226.379C241.072 222.986 242.867 219.846 246.99 222.049C247.635 224.264 246.585 226.576 244.148 226.379Z"/><path fill="#E9C084" d="M31.9783 40.839C32.6364 40.1263 33.2166 39.9461 34.0934 39.6653L34.213 39.7482C34.5206 40.9505 34.7904 42.2214 35.3318 43.3313C34.5542 43.4841 33.7732 43.6195 32.9895 43.7373C32.7066 42.7195 32.5386 41.7256 31.9783 40.839Z"/><path fill="#E9C084" d="M51.2642 251.911C52.6684 253.316 55.5696 255.724 55.6892 257.447C54.2875 256.206 52.3651 254.42 51.1713 253.031L51.2642 251.911Z"/><path fill="#B36C2B" d="M33.5877 82.5387C36.0976 82.3082 36.0621 82.6917 38.2343 83.4758C38.2791 83.492 41.7207 82.5927 42.8427 82.5823C50.5541 86.2979 47.9373 94.5971 46.7129 101.336C45.8723 105.962 44.4913 110.505 43.3315 115.06C51.7636 125.225 43.003 126.342 39.989 133.89C38.1871 138.402 41.694 146.998 33.4523 148.51C26.1959 148.192 26.5641 138.174 26.0952 132.71C25.4936 134.539 24.3708 137.451 21.9829 137.422C21.2322 137.098 21.175 136.893 20.8881 136.409C18.8469 134.141 22.59 132.226 22.3906 131.923C18.2315 125.603 21.5394 116.768 23.0735 110.016C23.8467 106.612 25.4739 103.48 24.8274 99.6715C24.6566 98.6649 25.4993 95.5358 25.7607 94.4408C27.2279 89.6771 28.9947 85.1038 33.5877 82.5387Z"/><path fill="#331109" d="M194.522 151.829C205.058 150.706 214.498 158.367 215.566 168.91C216.635 179.452 208.923 188.851 198.376 189.864C187.906 190.87 178.591 183.228 177.53 172.764C176.47 162.299 184.063 152.944 194.522 151.829Z"/><path fill="#FAF8F6" d="M189.836 158.153C193.181 157.891 196.127 160.342 196.477 163.68C196.827 167.018 194.453 170.027 191.126 170.464C188.894 170.757 186.679 169.816 185.341 168.007C184.003 166.197 183.752 163.804 184.686 161.756C185.62 159.708 187.592 158.329 189.836 158.153Z"/><path fill="#FAF8F6" d="M204.962 176.828C206.569 176.521 208.123 177.567 208.443 179.171C208.763 180.775 207.73 182.338 206.129 182.671C204.508 183.008 202.924 181.96 202.6 180.337C202.276 178.714 203.337 177.138 204.962 176.828Z"/><path fill="#331109" d="M100.516 151.977C110.941 150.515 120.579 157.776 122.052 168.199C123.524 178.623 116.273 188.268 105.851 189.751C95.4143 191.236 85.752 183.972 84.2777 173.534C82.8035 163.096 90.0764 153.441 100.516 151.977Z"/><path fill="#FAF8F6" d="M96.1881 158.154C99.5112 157.664 102.622 159.904 103.211 163.211C103.8 166.518 101.653 169.694 98.3649 170.381C96.1493 170.843 93.8575 170.064 92.3827 168.347C90.9079 166.63 90.4836 164.247 91.2752 162.127C92.0668 160.007 93.949 158.484 96.1881 158.154Z"/><path fill="#FAF8F6" d="M111.542 176.831C113.12 176.392 114.762 177.287 115.248 178.852C115.734 180.417 114.888 182.084 113.339 182.617C112.295 182.976 111.138 182.739 110.319 181.997C109.501 181.256 109.15 180.128 109.405 179.053C109.659 177.978 110.478 177.127 111.542 176.831Z"/><path fill="#331109" d="M134.07 185.792C139.07 185.469 143.929 187.717 149.365 187.821C154.794 187.925 159.037 186.131 164.004 185.939C169.931 185.71 171.528 191.909 170.946 196.933C170.156 203.744 167.77 208.19 162.404 212.716C160.729 213.99 159.012 215.032 157.05 215.807C151.933 217.798 146.234 217.677 141.207 215.469C135.868 213.136 131.675 208.778 129.551 203.353C127.192 197.293 126.729 188.466 134.07 185.792Z"/><path fill="#932C25" d="M137.504 206.606C132.952 200.941 128.973 187.43 140.824 192.019C145.014 193.641 152.435 192.906 156.867 192.579C158.396 192.466 162.675 190.356 164.528 191.172C168.079 193.924 165.461 199.969 163.702 202.963C163.265 203.716 162.816 204.5 162.334 205.223C157.839 211.959 148.105 213.576 141.305 209.614C139.909 208.786 138.63 207.774 137.504 206.606Z"/><path fill="#F47F86" d="M137.504 206.606C138.319 205.777 140.914 203.123 141.902 202.633C147.273 199.974 153.341 199.504 159.168 200.788C160.508 201.083 163.039 201.934 163.702 202.963C163.265 203.716 162.816 204.5 162.334 205.223C157.839 211.959 148.105 213.576 141.305 209.614C139.909 208.786 138.63 207.774 137.504 206.606Z"/><path fill="#B36C2B" d="M207.497 80.6139C207.699 80.5918 207.901 80.5741 208.104 80.5608C208.9 80.5093 210.138 80.7145 210.82 80.6294C217.565 79.7874 224.713 82.3557 220.264 90.3149C219.914 90.9407 221.19 94.3048 219.658 96.4173C216.763 100.411 212.778 103.171 209.399 106.71C205.506 111.103 205.169 115.82 197.97 115.986C195.316 115.408 194.333 114.044 192.721 112.005C186.29 112.754 181.22 109.067 183.285 102.019C184.391 98.2407 188.267 95.9171 191.685 94.3253C193.615 89.6069 196.819 88.5279 200.395 85.1302C202.72 82.9208 204.429 81.617 207.497 80.6139Z"/><path fill="#B36C2B" d="M266.479 89.2761C270.352 88.9944 271.441 90.3441 273.48 93.3775C278.154 88.375 280.68 96.6552 278.253 99.1673C277.872 99.5643 277.339 99.78 276.79 99.7603C275.388 99.7232 274.662 98.8386 273.8 97.8916C273.812 99.2409 273.074 106.294 273.172 106.525C275.65 105.583 277.797 108.256 276.648 110.518C276.055 111.685 274.169 111.409 273.016 111.776C272.504 113.422 272.764 115.974 272.524 117.765C271.978 121.841 270.963 125.422 269.34 129.166C268.139 131.398 265.832 133.889 263.09 133.798C255.412 133.488 257.159 125.24 255.744 120.665C251.201 105.981 252.097 106.807 262.474 96.6216C262.251 93.1262 263.348 90.8425 266.479 89.2761Z"/><path fill="#B36C2B" d="M265.798 158.551C276.143 158.024 270.25 174.92 267.256 179.525C265.201 180.68 264.986 180.905 263.021 179.712C262.436 180.22 260.369 184.025 259.305 185.389C256.698 188.731 250.126 192.483 245.949 192.892C237.76 191.101 242.395 178.249 245.861 174.024C249.183 169.975 248.037 166.158 250.875 162.341C253.395 158.952 257.394 161.546 259.619 163.706C261.066 161.349 263.18 159.479 265.798 158.551Z"/><path fill="#B36C2B" d="M86.1001 236.776C92.6155 236.134 94.2862 243.703 97.5157 247.265C100.362 250.405 104.808 251.873 103.828 257.668C103.562 259.272 102.652 260.698 101.308 261.613C98.7 263.413 95.711 263.054 92.7998 262.546C88.2512 260.92 82.2286 255.3 78.9931 251.817C75.1373 247.666 72.5555 243.092 77.4481 238.719C79.8175 238.229 80.3573 238.585 82.2227 238.441C82.6101 238.411 84.0262 237.223 86.1001 236.776Z"/><path fill="#B36C2B" d="M120.822 94.7718C126.733 94.2361 130.06 99.0582 131.46 104.115C131.624 104.601 132.375 107.004 132.683 107.221C134.324 108.372 138.752 109.288 138.398 112.001C138.248 113.153 136.555 114.746 135.553 115.377C130.105 115.868 130.096 115.11 125.13 112.625C123.373 112.309 119.881 111.216 118.523 111.15C114.785 111.072 111.385 112.668 107.847 110.646C104.844 108.931 106.373 103.504 107.676 101.176C109.058 98.7078 113.312 98.6186 115.936 98.1302C117.682 96.5981 118.722 95.7511 120.822 94.7718Z"/><path fill="#F47F86" d="M213.057 190.849C213.253 190.803 213.452 190.77 213.652 190.749C216.35 190.45 222.015 192.086 223.943 194.006C230.899 200.934 221.75 205.633 214.977 206.005C208.965 206.08 202.397 205.158 200.493 198.423C202.567 192.631 207.517 191.391 213.057 190.849Z"/><path fill="#F47F86" d="M84.2719 191.093C89.1819 190.977 96.2079 191.897 98.4592 197.015C98.7325 197.636 98.9824 198.422 99.2033 199.07C96.8927 204.146 93.876 205.448 88.4706 205.984C84.0285 206.022 79.65 205.888 76.0035 202.883C68.147 196.411 77.9361 191.681 84.2719 191.093Z"/><path fill="#331109" d="M192.198 128.541C197.471 128.09 203.175 128.728 206.768 133.193C207.854 134.524 208.939 137.256 206.889 138.274C204.698 139.362 201.071 137.672 198.724 137.028C196.562 136.552 194.795 136.694 192.614 136.836C190.257 136.873 183.63 140.801 182.827 136.818C181.834 131.9 188.658 129.256 192.198 128.541Z"/><path fill="#331109" d="M103.681 128.355C103.843 128.352 104.006 128.35 104.169 128.349C108.5 128.326 112.062 129.362 115.406 132.371C118.354 135.024 118.126 139.15 113.406 138.617C111.22 138.37 109.517 136.937 106.783 136.794L106.561 136.784C102.632 136.345 100.158 137.448 96.4458 138.356C95.0803 138.742 94.0624 138.815 92.83 137.994C90.8507 136.656 92.3418 134.177 93.5082 132.856C96.28 129.716 99.6695 128.64 103.681 128.355Z"/><path fill="#FBDEAA" d="M107.261 82.5704C112.847 82.3259 118.82 84.8724 111.361 89.3359C108.033 91.3267 102.496 92.5596 98.6811 93.5764C96.863 93.9562 91.2014 94.8153 90.9528 92.8896C90.1582 86.7356 104.258 83.0342 107.261 82.5704Z"/><path fill="#FBDEAA" d="M191.601 83.5388C193.13 83.4472 194.803 83.5821 195.382 85.1988C194.989 89.9569 187.111 93.4195 183.007 94.4928C180.269 94.5448 180.323 94.5488 178.619 92.4109C180.549 87.6255 186.771 84.5662 191.601 83.5388Z"/><path fill="#E9C084" d="M38.0842 62.4929C45.0117 61.8605 46.3714 71.4761 41.1199 74.9207C38.5919 75.6556 36.5034 72.6578 35.4728 70.8712C35.4836 69.0538 35.4368 67.2366 35.3327 65.4222C36.2082 63.5969 36.3086 63.4152 38.0842 62.4929Z"/><path fill="#FBDEAA" d="M269.195 64.2263C277.149 65.3089 271.142 73.0035 266.723 75.0523C260.416 76.3871 262.293 66.8623 269.195 64.2263Z"/><path fill="#B36C2B" d="M56.0502 235.249C57.6463 235.63 58.3409 236.785 58.9759 238.269C60.296 241.353 62.5086 245.371 58.3005 247.15C54.8612 245.954 53.6325 241.151 52.9977 237.852C53.9741 236.305 54.3871 236 56.0502 235.249Z"/><path fill="#B36C2B" d="M238.673 213.438C245.271 213.542 240.392 222.009 237.779 224.288C232.778 223.486 235.091 219.273 236.6 216.395C237.199 215.253 237.673 214.289 238.673 213.438Z"/><path fill="#B36C2B" d="M59.7646 221.469C61.3358 221.861 62.4535 223.053 63.145 224.455C64.5479 227.299 65.0177 229.246 61.9617 230.687C59.1234 230.337 57.4927 226.338 57.8313 223.79C57.9789 222.679 58.9359 222.054 59.7646 221.469Z"/><path fill="#B36C2B" d="M133.77 271.26C136.552 271.147 136.649 272.88 137.059 275.035C135.55 276.635 134.41 277.158 132.341 277.769C130.12 277.748 127.956 276.807 129.312 274.147C130.308 272.193 131.84 271.855 133.77 271.26Z"/><path fill="#B36C2B" d="M140.443 257.233C141.699 257.196 143.782 258.206 143.217 259.78C142.486 261.814 140.791 262.637 138.974 263.517C137.497 263.432 134.986 262.558 135.818 260.6C136.664 258.611 138.581 257.946 140.443 257.233Z"/><path fill="#B36C2B" d="M279.003 76.249C279.301 76.2267 279.601 76.2211 279.9 76.2322C283.317 76.3458 284.756 80.6482 281.822 83.2902C278.168 83.9943 275.944 79.1597 279.003 76.249Z"/><path fill="#B36C2B" d="M160.997 98.2511C162.74 98.3973 164.487 99.2036 163.725 101.317C163.039 103.216 161.893 103.71 160.168 104.524C155.628 103.588 156.569 99.3726 160.997 98.2511Z"/><path fill="#B36C2B" d="M171.837 256.292C176.059 256.292 176.726 260.703 171.809 261.733C168.757 261.918 166.695 257.555 171.837 256.292Z"/><path fill="#B36C2B" d="M82.2739 264.895C83.7608 264.352 85.4097 265.095 85.9869 266.57C86.5641 268.044 85.8583 269.709 84.3975 270.32C83.4226 270.727 82.3035 270.575 81.473 269.922C80.6425 269.268 80.2307 268.217 80.397 267.173C80.5633 266.13 81.2815 265.258 82.2739 264.895Z"/><path fill="#B36C2B" d="M261.779 135.981C263.355 135.826 264.76 136.974 264.924 138.55C265.087 140.125 263.947 141.537 262.372 141.709C260.785 141.882 259.36 140.731 259.196 139.143C259.031 137.556 260.19 136.137 261.779 135.981Z"/><path fill="#B36C2B" d="M106.875 263.516C110.533 263.103 113.237 265.798 109.903 268.619C109.654 268.669 109.403 268.713 109.151 268.749C105.736 269.25 103.978 266.193 106.875 263.516Z"/><path fill="#B36C2B" d="M206.556 234.218C210.482 234.187 210.938 238.226 207.762 240.358C207.517 240.36 207.277 240.36 207.032 240.339C206.223 240.277 205.475 239.884 204.965 239.252C203.484 237.39 205.039 235.366 206.556 234.218Z"/><path fill="#B36C2B" d="M51.3419 172.645C52.6758 172.574 53.8317 173.56 53.9697 174.889C54.1076 176.218 53.1792 177.421 51.8589 177.625C50.9447 177.766 50.0272 177.392 49.4721 176.652C48.9171 175.912 48.8147 174.926 49.2059 174.088C49.5972 173.25 50.4183 172.695 51.3419 172.645Z"/><path fill="#B36C2B" d="M275.974 63.7011C277.654 63.6621 279.399 64.9044 279.313 66.6632C279.265 67.6422 278.546 68.1439 277.888 68.746C277.532 68.7682 277.174 68.7636 276.819 68.7323C274.096 68.4861 273.337 65.4669 275.974 63.7011Z"/><path fill="#B36C2B" d="M219.774 104.909C223.044 105.271 223.802 108.125 220.766 109.912C217.123 110.067 217.124 106.633 219.774 104.909Z"/><path fill="#B36C2B" d="M74.007 95.4338C75.2427 95.0887 76.527 95.7975 76.8937 97.0269C77.2604 98.2564 76.5742 99.5529 75.3513 99.9411C74.541 100.198 73.655 99.9983 73.0338 99.4178C72.4126 98.8374 72.153 97.9669 72.3547 97.1411C72.5564 96.3152 73.1882 95.6624 74.007 95.4338Z"/><path fill="#B36C2B" d="M20.332 154.419C21.5697 154.066 22.8588 154.784 23.211 156.022C23.5632 157.26 22.8449 158.548 21.6069 158.9C20.3696 159.252 19.0815 158.534 18.7295 157.297C18.3775 156.059 19.0949 154.771 20.332 154.419Z"/><path fill="#B36C2B" d="M54.548 71.7094C55.3546 71.4506 56.2381 71.6499 56.8555 72.2299C57.4729 72.81 57.7269 73.6794 57.5188 74.5006C57.3107 75.3217 56.6734 75.9653 55.8543 76.1814C54.633 76.5036 53.3773 75.7941 53.0232 74.5816C52.669 73.3692 53.3453 72.0953 54.548 71.7094Z"/><path fill="#B36C2B" d="M234.561 107.886C235.318 107.543 236.2 107.632 236.872 108.121C237.544 108.61 237.901 109.422 237.807 110.247C237.714 111.072 237.183 111.784 236.419 112.109C235.257 112.604 233.912 112.072 233.403 110.916C232.894 109.759 233.411 108.408 234.561 107.886Z"/><path fill="#B36C2B" d="M215.491 227.413C216.707 227.021 218.01 227.692 218.397 228.909C218.784 230.126 218.109 231.426 216.89 231.809C215.678 232.19 214.387 231.518 214.001 230.308C213.616 229.097 214.282 227.803 215.491 227.413Z"/><path fill="#C7863A" d="M31.4558 63.6653C35.2885 64.0262 35.0354 66.2259 32.766 68.5715C29.3144 68.531 29.199 65.8667 31.4558 63.6653Z"/><path fill="#B36C2B" d="M237.723 134.718C238.547 134.654 239.342 135.04 239.803 135.727C240.263 136.414 240.317 137.296 239.945 138.034C239.572 138.773 238.83 139.253 238.004 139.291C236.754 139.349 235.689 138.392 235.612 137.143C235.535 135.894 236.475 134.814 237.723 134.718Z"/><path fill="#B36C2B" d="M131.384 251.419C132.94 251.477 134.01 252.74 133.681 254.235C133.382 255.591 132.723 255.811 131.65 256.464C128.485 255.402 128.574 253.059 131.384 251.419Z"/><path fill="#B36C2B" d="M147.505 129.663C150.505 129.913 151.495 132.363 149.012 134.547C145.262 134.527 145.5 131.941 147.505 129.663Z"/><path fill="#B36C2B" d="M58.5219 103.646C59.7036 103.454 60.8245 104.234 61.0547 105.409C61.2848 106.584 60.5412 107.729 59.3744 107.997C58.5853 108.179 57.7601 107.916 57.2215 107.311C56.6828 106.707 56.5163 105.857 56.787 105.094C57.0578 104.33 57.7227 103.775 58.5219 103.646Z"/><path fill="#B36C2B" d="M137.63 92.6968C138.766 92.3437 139.978 92.9498 140.377 94.0702C140.775 95.1906 140.219 96.4262 139.116 96.8703C138.361 97.1741 137.501 97.0401 136.874 96.5212C136.248 96.0024 135.956 95.182 136.113 94.3839C136.271 93.5858 136.853 92.9382 137.63 92.6968Z"/><path fill="#B36C2B" d="M182.057 233.425C183.207 233.099 184.408 233.752 184.758 234.896C185.108 236.04 184.479 237.253 183.343 237.627C182.587 237.875 181.755 237.696 181.169 237.157C180.583 236.619 180.334 235.805 180.518 235.031C180.703 234.257 181.291 233.642 182.057 233.425Z"/><path fill="#B36C2B" d="M225.984 86.3915C227.111 86.1891 228.205 86.8892 228.493 87.9983C228.781 89.1073 228.166 90.2511 227.082 90.6229C226.304 90.89 225.441 90.6984 224.848 90.1266C224.256 89.5549 224.034 88.6995 224.273 87.9118C224.513 87.1241 225.173 86.537 225.984 86.3915Z"/><path fill="#B36C2B" d="M60.3477 125.851C61.5238 125.655 62.6387 126.441 62.8491 127.615C63.0596 128.788 62.2874 129.913 61.1165 130.138C60.346 130.286 59.5554 130.008 59.0468 129.411C58.5382 128.813 58.3902 127.989 58.6595 127.252C58.9288 126.515 59.5737 125.979 60.3477 125.851Z"/><path fill="#B36C2B" d="M109.474 113.712C110.214 113.417 111.058 113.552 111.668 114.065C112.279 114.578 112.558 115.385 112.395 116.166C112.231 116.947 111.652 117.574 110.887 117.799C109.778 118.126 108.608 117.523 108.23 116.43C107.852 115.337 108.4 114.141 109.474 113.712Z"/><path fill="#B36C2B" d="M125.802 231.388C126.541 231.134 127.36 231.299 127.943 231.82C128.526 232.341 128.781 233.136 128.611 233.899C128.441 234.662 127.872 235.274 127.123 235.498C125.997 235.835 124.808 235.209 124.449 234.09C124.089 232.971 124.691 231.77 125.802 231.388Z"/><path fill="#B36C2B" d="M60.8221 164.147C61.5368 163.826 62.3692 163.919 62.9962 164.388C63.6231 164.858 63.9457 165.631 63.8387 166.407C63.7317 167.183 63.212 167.84 62.4813 168.122C61.3922 168.543 60.166 168.02 59.7162 166.942C59.2665 165.865 59.7569 164.625 60.8221 164.147Z"/><path fill="#B36C2B" d="M41.1744 138.455C44.3056 138.553 44.7026 140.853 42.8807 143.034C39.2997 143.055 39.1476 140.699 41.1744 138.455Z"/><path fill="#B36C2B" d="M136.736 87.1893C137.464 86.9275 138.277 87.0784 138.862 87.5841C139.448 88.0899 139.715 88.8719 139.562 89.6302C139.408 90.3885 138.858 91.0053 138.122 91.2438C137.009 91.6046 135.813 91.0058 135.434 89.8986C135.056 88.7915 135.635 87.5854 136.736 87.1893Z"/><path fill="#B36C2B" d="M208.869 74.1484C210.007 73.8524 211.171 74.5313 211.474 75.6682C211.777 76.8051 211.105 77.9731 209.97 78.2827C208.825 78.5948 207.645 77.9159 207.34 76.7694C207.034 75.6229 207.72 74.447 208.869 74.1484Z"/><path fill="#B36C2B" d="M200.967 78.3984C201.691 78.1406 202.498 78.2971 203.072 78.8069C203.647 79.3166 203.899 80.0988 203.729 80.8481C203.56 81.5974 202.996 82.1949 202.257 82.4074C201.164 82.7223 200.018 82.1116 199.669 81.0282C199.32 79.9448 199.895 78.7805 200.967 78.3984Z"/><path fill="#D7A452" d="M7.78737 168.753C3.78338 144.849 4.98091 120.362 11.2983 96.9624C14.0397 87.0651 17.7703 77.3375 20.1028 67.3021C20.9545 63.6375 21.4838 59.9024 22.0391 56.1756C22.7231 51.5853 22.6941 45.7792 24.6385 41.604C26.924 36.6961 34.3809 36.6225 38.4001 34.0775C43.3629 30.9352 45.1895 23.7354 50.5148 20.9804C56.9573 17.6475 64.6205 22.1911 71.0357 23.7343C76.1617 24.9674 82.5606 25.4349 87.5957 23.7858C97.0538 20.6881 101.381 10.7662 111.022 7.51332C119.139 4.77494 126.139 7.07241 134.31 7.8221C136.935 8.06294 142.515 7.66272 144.895 8.50952C148.828 9.99131 152.19 12.4582 155.991 14.2796C159.808 16.1091 162.954 16.7914 167.224 16.6978C175.879 16.5079 182.485 10.7623 190.34 8.10869C197.45 5.70677 205.997 4.04269 212.965 7.39088C214.837 8.26971 217.32 10.3885 218.703 11.8877C227.101 20.9941 228.327 28.1382 242.549 28.3263C244.767 27.9734 246.967 27.5146 249.142 26.9516C254.811 25.4442 262.637 22.4682 268.028 25.3184C274.806 27.7896 276.279 39.3103 279.577 44.7031C277.078 44.6533 274.113 44.8555 271.81 44.773C268.033 45.3819 265.494 45.0912 261.481 46.2963C247.152 50.5993 248.265 67.4004 240.37 75.4795C224.979 59.9674 209.852 53.962 188.686 62.7777C178.108 66.9377 167.644 76.8163 156.182 77.6732C152.65 77.9373 142.176 71.6302 138.345 70.0154C129.855 66.437 121.101 63.4714 111.747 63.6942C104.972 63.8556 98.1355 66.4625 92.486 70.0869C88.599 72.6155 84.8823 75.7412 80.8906 78.1303C72.2075 74.5237 73.667 61.275 68.0848 53.8995C61.1397 44.7234 52.106 46.2047 42.1862 42.9314C40.3039 42.3103 35.3929 39.5178 34.645 39.3901L34.213 39.7482L34.0934 39.6653C33.2166 39.9461 32.6364 40.1263 31.9783 40.839C25.2458 44.86 26.7105 53.9235 26.159 60.7641C26.0969 65.0995 25.466 69.4468 24.79 73.688C23.6011 81.1477 20.4302 88.4381 18.4816 95.5844C12.9866 115.736 11.2824 136.613 12.5884 157.425C12.7173 159.479 13.3942 163.942 13.118 165.77C9.82465 165.869 9.08032 168.614 7.78737 168.753Z"/><path fill="#C7863A" d="M34.0934 39.6653C34.183 39.5034 34.2727 39.3414 34.3624 39.1795C36.2388 38.8312 38.9186 38.0514 40.5325 37.4066C41.6836 38.2396 46.2813 37.5436 48.2357 37.8149C55.5026 38.8238 63.5643 41.2867 69.5708 45.5792C74.5586 49.1438 76.9782 55.6794 81.7547 59.29C83.2034 60.3534 90.419 59.7344 92.3536 59.2959C94.3253 58.849 106.133 56.9586 107.204 56.4157C108.614 56.8213 110.197 56.0121 111.625 55.4978C112.397 55.8107 116.669 55.0659 117.798 54.9366C121.545 54.5337 125.314 54.3866 129.081 54.4964C142.482 54.9774 151.825 61.0809 164.863 60.4662C174.133 60.0292 179.931 57.1897 188.55 54.818C195.487 52.9327 202.681 52.1708 209.859 52.5611C214.238 52.7666 218.844 53.7139 223.055 55.0436C226.169 56.0268 232.836 59.3092 236.083 59.3076C241.859 59.3048 244.357 50.7335 248.65 47.1827C254.622 42.2447 259.513 42.5041 266.736 43.8655C268.767 44.2483 269.718 44.6884 271.81 44.773C268.033 45.3819 265.494 45.0912 261.481 46.2963C247.152 50.5993 248.265 67.4004 240.37 75.4795C224.979 59.9674 209.852 53.962 188.686 62.7777C178.108 66.9377 167.644 76.8163 156.182 77.6732C152.65 77.9373 142.176 71.6302 138.345 70.0154C129.855 66.437 121.101 63.4714 111.747 63.6942C104.972 63.8556 98.1355 66.4625 92.486 70.0869C88.599 72.6155 84.8823 75.7412 80.8906 78.1303C72.2075 74.5237 73.667 61.275 68.0848 53.8995C61.1397 44.7234 52.106 46.2047 42.1862 42.9314C40.3039 42.3103 35.3929 39.5178 34.645 39.3901L34.213 39.7482L34.0934 39.6653Z"/><path fill="#FBDEAA" d="M7.78737 168.753C3.78338 144.849 4.98091 120.362 11.2983 96.9624C14.0397 87.0651 17.7703 77.3375 20.1028 67.3021C20.9545 63.6375 21.4838 59.9024 22.0391 56.1756C22.7231 51.5853 22.6941 45.7792 24.6385 41.604C26.924 36.6961 34.3809 36.6225 38.4001 34.0775C43.3629 30.9352 45.1895 23.7354 50.5148 20.9804C56.9573 17.6475 64.6205 22.1911 71.0357 23.7343C76.1617 24.9674 82.5606 25.4349 87.5957 23.7858C97.0538 20.6881 101.381 10.7662 111.022 7.51332C119.139 4.77494 126.139 7.07241 134.31 7.8221C136.935 8.06294 142.515 7.66272 144.895 8.50952C148.828 9.99131 152.19 12.4582 155.991 14.2796C159.808 16.1091 162.954 16.7914 167.224 16.6978C175.879 16.5079 182.485 10.7623 190.34 8.10869C197.45 5.70677 205.997 4.04269 212.965 7.39088C211.674 8.10822 206.818 7.60063 205.053 7.9175C200.66 8.70598 196.546 10.31 192.571 12.3018C187.425 14.8801 182.918 18.6665 177.539 20.7274C165.208 25.1128 156.435 18.5729 145.74 13.6695C143.162 12.4874 138.302 13.1587 135.427 12.6923C132.774 12.367 129.837 11.3744 127.245 10.9099C121.873 9.94729 115.541 10.1261 110.779 12.9794C97.4341 20.976 95.5397 33.6989 76.7362 28.1247C70.0025 26.1286 61.5387 20.7791 54.8101 24.8673C48.7062 28.5759 47.1232 33.2123 40.5325 37.4066C38.9186 38.0514 36.2388 38.8312 34.3624 39.1795C34.2727 39.3414 34.183 39.5034 34.0934 39.6653C33.2166 39.9461 32.6364 40.1263 31.9783 40.839C25.2458 44.86 26.7105 53.9235 26.159 60.7641C26.0969 65.0995 25.466 69.4468 24.79 73.688C23.6011 81.1477 20.4302 88.4381 18.4816 95.5844C12.9866 115.736 11.2824 136.613 12.5884 157.425C12.7173 159.479 13.3942 163.942 13.118 165.77C9.82465 165.869 9.08032 168.614 7.78737 168.753Z"/><path fill="#FBDEAA" d="M242.549 28.3263C244.767 27.9734 246.967 27.5146 249.142 26.9516C254.811 25.4442 262.637 22.4682 268.028 25.3184C266.28 26.1169 263.23 25.6406 261.417 26.144C255.782 27.7084 250.471 30.0846 244.475 29.7006C243.426 29.6334 241.167 29.6707 240.365 29.0223L240.487 28.7289C241.285 28.4421 241.719 28.425 242.549 28.3263Z"/><path fill="#B36C2B" d="M107.204 56.4157C107.017 56.2284 106.833 56.039 106.651 55.8475C105.193 54.3106 104.501 52.9935 104.475 50.8201C104.453 49.072 106.346 48.4682 107.734 48.799C109.321 49.1772 110.575 51.7431 111.42 53.0051C112.081 53.9918 111.903 54.4158 111.625 55.4978C110.197 56.0121 108.614 56.8213 107.204 56.4157Z"/><path fill="#B36C2B" d="M159.263 48.7646C159.54 48.7389 159.819 48.7238 160.097 48.7193C165.656 48.6381 168.23 54.7648 160.454 54.535C159.116 55.734 157.904 56.699 156.495 57.8054C155.283 58.9393 152.861 59.2962 152.102 57.4564C151.169 55.1986 153.38 53.1017 154.949 51.8131C156.312 50.6928 157.641 49.4805 159.263 48.7646Z"/><path fill="#B36C2B" d="M70.3376 33.4485C73.9018 33.7874 75.1023 40.6851 74.8683 43.544C74.7976 44.4079 73.6803 44.9938 73.0083 45.3687C71.8242 45.2883 70.885 45.1312 70.3375 43.9513C68.7553 40.5409 66.2234 35.8015 70.3376 33.4485Z"/><path fill="#B36C2B" d="M146.271 35.2408C147.236 35.1883 149.084 35.5134 149.58 36.3491C151.285 39.2174 145.578 42.866 143.874 43.9933C138.769 44.3825 139.747 40.2064 142.743 38.0198C143.917 37.1635 145.02 36.1202 146.271 35.2408Z"/><path fill="#B36C2B" d="M261.227 32.6366C267.391 32.3907 264.22 39.52 261.364 41.2473C258.877 41.2637 258.467 40.1516 257.558 38.1189C258.653 35.5795 259.465 34.6759 261.227 32.6366Z"/><path fill="#FBDEAA" d="M106.369 22.4916C112.123 22.404 111.16 27.3056 106.465 29.5355C102.069 30.8273 100.473 25.8041 106.369 22.4916Z"/><path fill="#B36C2B" d="M84.5015 46.4826C88.5926 46.2508 89.3539 51.9666 86.0526 54.0097C81.8021 54.0051 81.074 48.5889 84.5015 46.4826Z"/><path fill="#B36C2B" d="M188.351 39.9884C190.963 40.0116 192.884 41.9883 193.048 44.5999C193.119 45.7338 192.31 46.3784 191.549 47.0778C188.387 47.2467 184.3 42.8867 188.351 39.9884Z"/><path fill="#FBDEAA" d="M212.384 23.7819C213.804 23.9321 214.358 24.1832 215.709 24.6934C216.736 25.7977 216.95 26.1526 217.706 27.4745C216.871 28.6943 216.656 29.3952 215.415 29.9412C214.831 29.9308 214.249 29.8743 213.674 29.7724C210.662 29.2164 208.575 25.8278 212.384 23.7819Z"/><path fill="#B36C2B" d="M194.378 18.4502C199.136 19.0815 197.373 23.371 194.436 25.3072C189.441 25.4461 190.821 20.6078 194.378 18.4502Z"/><path fill="#B36C2B" d="M165.675 27.7009C168.7 27.6364 172.418 31.2528 168.512 34.0505C164.77 34.0636 161.777 30.7719 165.675 27.7009Z"/><path fill="#B36C2B" d="M217.091 46.2129C221.977 46.0191 220.666 50.1556 218.018 52.525L217.751 52.5229C212.879 52.4548 214.35 48.4689 217.091 46.2129Z"/><path fill="#B36C2B" d="M204.226 12.9522C205.178 12.5004 206.3 12.5974 207.16 13.2061C208.02 13.8147 208.485 14.8402 208.376 15.8883C208.267 16.9365 207.601 17.8441 206.633 18.2624C205.174 18.8936 203.477 18.2386 202.821 16.7901C202.164 15.3416 202.789 13.6341 204.226 12.9522Z"/><path fill="#B36C2B" d="M58.8116 29.9526C62.2971 30.4704 63.4495 34.3174 59.9761 36.2021C56.3782 35.5889 54.9528 32.0757 58.8116 29.9526Z"/><path fill="#B36C2B" d="M236.793 45.4006C240.224 45.7986 241.289 49.6971 237.726 51.733C233.907 51.0219 233.449 47.5431 236.793 45.4006Z"/><path fill="#B36C2B" d="M94.3793 35.1731C95.8531 34.9636 97.2283 35.9582 97.4906 37.4235C97.753 38.8888 96.8083 40.2988 95.3534 40.6136C94.3647 40.8275 93.3381 40.4844 92.6766 39.719C92.0151 38.9537 91.8243 37.8882 92.1791 36.9409C92.534 35.9935 93.3778 35.3156 94.3793 35.1731Z"/><path fill="#B36C2B" d="M121.195 16.134C122.552 15.8093 123.924 16.6127 124.305 17.9553C124.685 19.2979 123.939 20.7019 122.614 21.138C121.706 21.4367 120.707 21.2138 120.013 20.5575C119.318 19.9011 119.039 18.9168 119.286 17.9935C119.532 17.0702 120.265 16.3563 121.195 16.134Z"/><path fill="#B36C2B" d="M137.595 18.4517C140.952 18.7319 141.427 21.7572 138.419 23.8024C137.526 23.6462 136.539 22.8348 136.059 22.104C135.652 21.4865 135.542 20.7199 135.759 20.013C136.016 19.1491 136.809 18.8606 137.595 18.4517Z"/><path fill="#B36C2B" d="M247.421 35.4185C248.634 34.9383 250.006 35.5356 250.481 36.7505C250.956 37.9654 250.352 39.3349 249.135 39.8046C247.926 40.2715 246.566 39.6728 246.094 38.4652C245.622 37.2577 246.215 35.8957 247.421 35.4185Z"/><path fill="#B36C2B" d="M221.133 30.6245C221.878 30.3831 222.696 30.564 223.271 31.0973C223.845 31.6306 224.086 32.433 223.901 33.1946C223.716 33.9563 223.133 34.5582 222.378 34.7679C221.243 35.0829 220.065 34.4333 219.727 33.3058C219.388 32.1784 220.012 30.9869 221.133 30.6245Z"/></svg>